<?xml version="1.0" standalone="no"?>
<!DOCTYPE svg PUBLIC "-//W3C//DTD SVG 20010904//EN"
 "http://www.w3.org/TR/2001/REC-SVG-20010904/DTD/svg10.dtd">
<svg version="1.0" xmlns="http://www.w3.org/2000/svg"
 width="1535.000000pt" height="1535.000000pt" viewBox="0 0 1535.000000 1535.000000"
 preserveAspectRatio="xMidYMid meet">
<metadata>
Created by potrace 1.14, written by Peter Selinger 2001-2017
</metadata>
<g transform="translate(0.000000,1535.000000) scale(0.100000,-0.100000)"
fill="#000000" stroke="none">
<path d="M8565 13189 c-22 -4 -49 -10 -60 -13 -48 -10 -138 -62 -183 -105
-114 -108 -169 -239 -230 -546 -33 -164 -58 -328 -54 -347 1 -5 -2 -38 -7 -75
-5 -38 -13 -104 -16 -148 -4 -44 -9 -87 -10 -96 -2 -9 -6 -52 -10 -95 -4 -43
-9 -86 -10 -95 -2 -9 -6 -52 -10 -95 -4 -43 -9 -87 -10 -96 -2 -9 -6 -49 -10
-90 -3 -40 -8 -84 -10 -98 -3 -14 -7 -58 -10 -97 -3 -40 -8 -80 -9 -90 -2 -10
-7 -56 -11 -103 -3 -47 -8 -92 -10 -100 -2 -8 -7 -49 -11 -90 -3 -41 -7 -86
-9 -100 -1 -14 -6 -56 -9 -95 -4 -38 -9 -81 -11 -95 -3 -14 -7 -54 -10 -90 -3
-36 -8 -85 -11 -110 -2 -25 -7 -65 -9 -90 -2 -25 -7 -67 -10 -95 -9 -82 -14
-137 -20 -201 -3 -33 -7 -71 -10 -85 -2 -13 -6 -55 -10 -94 -3 -38 -8 -83 -10
-100 -2 -16 -7 -59 -10 -95 -3 -36 -8 -79 -10 -96 -2 -18 -7 -63 -10 -100 -10
-102 -33 -202 -58 -252 -29 -58 -76 -97 -184 -152 -48 -24 -104 -54 -123 -66
-19 -11 -38 -22 -42 -23 -5 0 -99 -46 -210 -100 -339 -165 -678 -307 -690
-288 -4 6 -5 14 -3 17 3 5 7 77 20 310 3 47 7 123 10 170 3 47 7 128 10 180 3
52 7 129 10 170 2 41 7 120 10 175 3 55 7 136 10 180 8 124 25 426 30 525 2
30 6 105 10 165 11 191 14 237 20 360 4 66 8 145 10 175 2 30 6 111 10 180 4
69 8 150 10 180 2 30 7 109 10 175 9 167 12 220 22 380 28 480 -11 782 -121
948 -40 61 -150 167 -173 167 -7 0 -13 4 -13 9 0 12 -136 67 -205 82 -90 19
-268 16 -340 -5 -176 -51 -308 -161 -390 -324 -35 -70 -94 -265 -114 -377 -6
-33 -13 -69 -15 -80 -2 -11 -6 -45 -10 -75 -6 -51 -9 -94 -21 -295 -2 -44 -7
-116 -10 -160 -3 -44 -7 -125 -10 -180 -7 -123 -13 -230 -20 -315 -3 -36 -7
-117 -10 -180 -3 -63 -8 -142 -10 -175 -2 -33 -7 -105 -10 -160 -3 -55 -7
-136 -10 -180 -3 -44 -7 -118 -10 -165 -3 -47 -7 -123 -10 -170 -5 -80 -9
-155 -20 -360 -6 -117 -22 -399 -30 -540 -2 -36 -6 -117 -10 -180 -3 -63 -8
-151 -10 -195 -11 -174 -21 -374 -30 -560 -4 -77 -8 -151 -10 -165 -2 -14 -7
-49 -10 -78 -9 -84 -51 -203 -96 -273 -47 -72 -92 -117 -165 -164 -78 -51
-769 -385 -796 -385 -9 0 -7 313 8 1920 4 349 7 970 8 1380 1 671 -1 753 -16
822 -48 216 -195 359 -403 391 -291 46 -531 -84 -632 -343 -26 -65 -61 -181
-69 -223 -2 -17 -6 -33 -8 -36 -2 -3 -7 -28 -10 -55 -4 -27 -9 -52 -11 -56 -2
-3 -6 -35 -10 -71 -3 -35 -7 -84 -10 -109 -2 -25 -6 -81 -9 -125 -4 -44 -8
-105 -11 -135 -3 -30 -7 -95 -10 -145 -3 -49 -8 -124 -11 -165 -11 -160 -13
-198 -19 -290 -6 -102 -10 -167 -19 -325 -4 -55 -8 -118 -11 -140 -2 -22 -7
-92 -10 -155 -4 -63 -8 -133 -10 -155 -2 -22 -6 -80 -10 -130 -3 -49 -8 -106
-10 -125 -3 -19 -7 -64 -10 -100 -8 -90 -12 -136 -31 -335 -2 -27 -6 -70 -9
-95 -2 -25 -7 -79 -11 -120 -3 -41 -8 -82 -9 -90 -2 -8 -6 -62 -10 -120 -4
-58 -9 -116 -10 -130 -3 -22 -13 -198 -20 -345 -2 -27 -4 -174 -5 -325 -2
-260 -15 -430 -38 -490 -5 -14 -10 -29 -11 -35 -7 -56 -74 -198 -133 -279
-117 -163 -265 -269 -628 -453 -259 -131 -411 -220 -660 -386 -261 -174 -580
-396 -640 -446 -137 -113 -230 -256 -268 -411 -11 -45 -9 -196 3 -252 16 -79
65 -208 97 -254 29 -43 108 -84 164 -84 39 0 68 9 159 50 22 10 94 42 160 70
66 29 143 62 170 75 28 12 70 31 95 43 134 60 292 125 600 247 130 52 206 86
390 172 163 77 380 157 380 140 -1 -71 10 -397 13 -414 3 -12 8 -46 11 -75 9
-79 19 -154 31 -238 4 -31 17 -129 20 -150 7 -57 24 -177 30 -210 3 -14 7 -45
10 -70 5 -44 20 -143 31 -205 3 -16 7 -41 9 -55 10 -74 68 -414 80 -470 17
-78 56 -186 93 -255 137 -259 295 -383 497 -390 97 -4 167 13 250 60 76 44
103 69 163 148 82 107 124 239 137 427 3 52 8 106 10 120 2 14 6 75 10 135 4
61 8 130 10 155 2 25 6 86 10 135 6 92 10 155 20 305 3 47 7 114 9 150 3 36 7
112 11 170 3 58 8 130 10 160 2 30 7 102 10 160 3 58 7 132 10 165 2 33 7 101
10 150 3 50 8 113 10 140 2 28 7 91 10 140 3 50 8 110 11 135 2 25 7 74 10
110 13 169 40 259 92 308 45 43 263 186 372 244 131 70 366 164 373 150 9 -18
-2 -458 -18 -702 -23 -351 -26 -410 -41 -680 -18 -320 -10 -864 16 -1055 5
-38 12 -90 15 -115 8 -64 44 -277 55 -325 5 -22 12 -56 15 -75 3 -19 10 -51
15 -70 5 -19 11 -48 14 -65 2 -16 19 -91 36 -165 17 -74 34 -146 36 -160 3
-13 14 -63 25 -110 12 -47 23 -96 25 -110 8 -43 82 -181 127 -235 84 -103 190
-170 277 -174 178 -8 428 170 535 380 30 59 57 136 71 200 7 34 35 179 41 209
2 14 19 106 38 205 18 99 36 200 40 225 3 25 8 56 10 70 3 14 7 34 9 45 2 11
7 49 11 85 4 36 8 67 10 70 2 3 7 33 10 65 4 33 9 67 10 75 3 18 15 109 20
160 1 19 6 55 9 80 7 58 24 217 31 300 3 36 8 85 10 110 8 75 26 343 40 575
11 193 20 481 30 920 18 822 23 911 60 993 24 53 25 53 147 111 206 98 476
221 483 221 2 0 36 15 77 34 40 18 107 48 148 66 41 18 100 44 130 57 115 53
231 103 237 103 6 0 -4 -1758 -13 -2410 -10 -642 -8 -785 10 -945 2 -16 6 -57
10 -90 3 -33 8 -71 11 -85 2 -14 7 -47 11 -75 3 -27 7 -57 9 -65 3 -24 19
-125 20 -130 8 -34 15 -71 19 -100 3 -19 8 -46 11 -60 3 -14 10 -45 15 -70 68
-335 101 -471 136 -559 53 -136 142 -239 254 -294 57 -28 74 -32 150 -32 72 0
93 4 140 27 126 62 212 187 315 459 77 202 108 348 150 729 6 49 14 118 20
165 2 17 7 55 10 85 3 30 8 62 10 70 2 8 7 49 10 90 3 41 8 82 10 90 2 8 7 42
10 75 3 33 7 76 10 95 6 44 12 99 20 170 3 30 8 71 10 90 2 19 9 80 15 135 6
55 12 118 15 140 2 22 7 65 10 95 3 30 8 71 10 90 2 19 7 67 11 105 6 70 8 99
19 210 13 129 15 152 20 220 3 39 8 93 10 120 2 28 7 86 10 130 3 44 7 100 10
125 2 25 7 95 11 155 3 61 8 133 10 160 2 44 9 180 19 405 2 36 6 189 9 340 9
365 13 477 31 745 14 206 84 323 242 404 55 28 406 166 416 163 4 -1 7 3 7 8
0 6 6 10 13 10 15 0 454 185 772 325 115 50 273 115 283 115 7 0 12 5 12 10 0
6 7 10 15 10 8 0 40 11 71 25 l56 25 -7 -103 c-4 -56 -9 -118 -10 -137 -1 -19
-6 -80 -9 -135 -4 -55 -9 -113 -11 -130 -2 -16 -7 -75 -10 -130 -4 -55 -9
-116 -10 -135 -2 -19 -6 -73 -10 -120 -3 -47 -7 -107 -10 -135 -3 -27 -7 -86
-10 -130 -3 -44 -7 -105 -10 -135 -2 -30 -7 -84 -10 -120 -3 -36 -7 -94 -10
-130 -10 -146 -16 -228 -20 -275 -2 -27 -7 -93 -10 -145 -3 -52 -7 -122 -10
-155 -2 -33 -7 -105 -10 -160 -3 -55 -8 -127 -10 -160 -22 -340 -37 -666 -50
-1070 -3 -93 -8 -249 -11 -345 -9 -287 -12 -1780 -4 -1845 11 -83 21 -139 27
-147 2 -5 6 -16 8 -25 20 -99 192 -457 258 -538 118 -144 262 -208 457 -201
316 10 542 221 584 543 4 26 9 55 11 63 2 8 6 33 10 55 3 22 7 47 10 55 2 8 7
42 10 75 4 33 9 74 11 90 5 40 11 306 19 805 4 228 8 460 10 515 12 364 16
494 20 600 7 160 15 350 20 460 3 50 7 144 10 210 8 191 18 380 31 575 2 41 6
122 9 180 3 58 7 132 10 165 2 33 7 107 10 165 4 58 8 130 10 160 2 30 6 105
10 165 3 61 7 130 10 155 2 25 7 90 10 145 8 121 12 185 20 290 10 139 15 208
20 290 3 44 7 103 9 130 3 28 8 97 11 155 4 58 8 121 10 140 2 19 6 82 10 140
4 58 8 121 10 140 2 19 6 78 10 130 18 257 25 318 51 408 66 229 194 345 517
468 51 19 117 46 147 59 30 13 107 44 170 70 298 123 1406 607 1515 663 230
117 361 259 409 442 17 63 15 248 -3 293 -6 15 -9 27 -6 27 4 0 -37 103 -57
142 -54 103 -178 209 -290 248 -111 39 -271 46 -420 20 -35 -6 -72 -13 -83
-15 -111 -19 -254 -64 -415 -130 -133 -54 -410 -170 -458 -192 -213 -95 -847
-363 -855 -360 -10 3 -11 84 -2 282 19 446 23 710 13 786 -9 61 -44 164 -75
218 -39 67 -131 152 -203 188 -173 86 -418 96 -584 25 -113 -49 -193 -112
-261 -207 -78 -110 -140 -279 -159 -430 -3 -27 -8 -62 -11 -77 -13 -70 -15
-86 -21 -128 -3 -25 -9 -70 -15 -100 -5 -30 -11 -75 -14 -100 -4 -25 -10 -67
-15 -95 -5 -27 -12 -75 -15 -105 -3 -30 -8 -62 -10 -70 -2 -8 -7 -37 -10 -65
-3 -27 -7 -66 -10 -85 -3 -19 -7 -55 -10 -80 -3 -25 -7 -54 -9 -66 -2 -11 -7
-54 -11 -95 -31 -365 -85 -452 -346 -559 -57 -23 -124 -51 -149 -62 -25 -11
-54 -23 -65 -28 -11 -4 -31 -12 -45 -18 -14 -6 -160 -68 -325 -137 -165 -70
-320 -136 -345 -147 -25 -11 -54 -24 -65 -28 -11 -5 -40 -18 -65 -28 -25 -11
-110 -47 -190 -82 -80 -34 -169 -72 -198 -86 -29 -13 -55 -24 -58 -24 -5 0
-87 -36 -117 -52 -18 -9 -19 -3 -12 144 4 84 8 176 10 203 4 70 15 263 20 370
3 50 7 133 10 185 17 328 23 432 30 584 3 71 8 157 10 190 2 34 7 124 10 201
4 77 8 169 10 205 14 264 19 441 19 680 1 303 -5 345 -64 465 -36 73 -78 122
-148 168 -51 35 -177 80 -257 92 -68 10 -308 13 -350 4z"/>
</g>
</svg>
