<?xml version="1.0" encoding="utf-8"?>
<!-- Generator: Adobe Illustrator 28.0.0, SVG Export Plug-In . SVG Version: 6.00 Build 0)  -->
<svg version="1.1" id="Calque_1" xmlns="http://www.w3.org/2000/svg" xmlns:xlink="http://www.w3.org/1999/xlink" x="0px" y="0px"
	 viewBox="0 0 669.7 413.4" style="enable-background:new 0 0 669.7 413.4;" xml:space="preserve">
<style type="text/css">
	.st0{fill:#FFFFFF;}
</style>
<path class="st0" d="M374,31.3c-4.3-3-9.5-6.3-15.4-7.7c-0.4-0.1-0.7-0.2-1.1-0.3c-6.7-2.7-14.1-4-22.5-4c-1.5,0-3,0-4.5,0.1
	c-1.1,0-2.2,0.3-3.4,0.8c-2.3,0.9-3.8,2.6-4.3,4.9c-0.2,1.1-0.6,2.1-1,3.3c-0.2,0.7-0.5,1.4-0.7,2.1c-0.3,0.8-0.5,1.8-0.6,2.8
	c-0.4,6.3-0.4,12.8,0.2,19.1c0.8,9.8,1.5,19.3,1.2,29c0,1.4-0.1,2.8-0.1,4.2c-0.1,2.5-0.2,5-0.2,7.5c0,1.6,0,3.2,0,4.8
	c0,6.3-0.1,12.8,0.1,19.2c0.2,6.6,0.6,13.3,1.1,19.8c0.2,2.6,0.3,5.2,0.5,7.7c0.1,1.5,0.2,3,0.3,4.5c0.2,2.3,0.3,4.8,0.4,7.1
	c0.1,1.7,0,3.4-0.2,5.3c-0.6,5.6-1,10.6-0.1,15.9c0.2,1.3,0.8,2.6,1.7,4.2c0.6,1,1.6,1.6,2.8,1.6c0.5,0,1-0.1,1.5-0.4
	c1.2-0.6,2.5-1.4,2.9-2.6c0.2-0.7,0.5-1.3,0.8-2c0.8-2,1.7-4,1.6-6.4c-0.1-1.1-0.1-2.2-0.2-3.2c-0.1-2.2-0.3-4.4-0.3-6.6
	c-0.1-5.9-0.1-12.2,0-18.4c0.1-5.2,0.3-10.5,0.5-15.7c0.1-3.1,0.2-6.2,0.3-9.3c0-0.6,0-1,0-1.4c0-0.3,0-0.6,0-0.8
	c0.2-0.1,0.5-0.1,0.9-0.2c0.4-0.1,0.8-0.2,1.3-0.2l1-0.2c4.4-0.9,9-1.9,13.2-4.1c0.5,1.5,0.9,3,1.4,4.4c1,3.3,2.1,6.8,3.4,10.1
	c3.6,9.5,6.7,19.3,9.8,28.8c0.5,1.7,1.1,3.4,1.6,5.2c1.7,5.4,3.7,11.2,6.6,16.6c1,1.9,2.3,3.5,3.8,4.8c0.7,0.6,1.7,1.1,2.6,1.2
	c0.2,0,0.5,0.1,0.7,0.1c1.4,0,2.7-0.6,3.6-1.6c1.1-1.2,1.6-2.8,1.5-4.6c-0.2-2.8-0.9-5.1-2.2-7.2c-0.9-1.4-1.4-2.4-1.8-3.5
	c-1.2-3.5-2.4-6.9-3.5-10.4c-1.1-3.2-2.1-6.4-3.2-9.6l-1-3c-1.6-4.7-3.3-9.5-5.1-14.2c-2.2-5.5-4.5-11-6.7-16.3
	c-0.9-2.1-1.8-4.2-2.6-6.3c0,0,0.1-0.1,0.1-0.1c0.5-0.3,0.8-0.6,1.2-0.8c4.1-2.6,7.6-5.9,10.5-9.8c2.2-3.1,4.9-6.7,7.3-10.6
	c4.8-7.6,7.6-14.8,8.6-21.8c0.8-5.6,1.1-13-2.7-19.5C382.4,38.7,378.5,34.4,374,31.3L374,31.3z M335.1,103.8c0-0.2,0-0.4,0-0.8
	c0.1-3.5,0.2-7,0.3-10.5l0.1-4.3c0-0.2,0-0.4-0.2-0.6l0.2-6.2c0.2-5.5,0.4-10.9,0.6-16.4c0.2-6.2,0-11.4-0.7-16.3
	c-0.2-1.7-0.3-3.6-0.3-5.3c0-1-0.1-1.9-0.1-2.9c-0.1-1.8-0.2-3.5-0.4-5.3l-0.2-2.5c0,0,0-0.1,0-0.2c0-0.3,0-0.6,0-0.9
	c0.2,0,0.5,0.1,0.9,0.1c1.2,0.2,2.5,0.3,3.7,0.5c2.8,0.4,5.8,0.8,8.6,1.3c6.8,1.3,13.1,4,18.9,7.9c0.7,0.5,1.4,1.2,1.9,1.8
	c0.4,0.5,0.9,1,1.3,1.4c0.7,0.8,1.3,1.5,2.1,2.3c3.4,3.2,4.6,7.3,3.9,13.4c-0.7,6-3,11.8-7.4,18.7c-1.3,2.1-2.7,4.1-4.1,6.1
	l-0.8,1.2c-2.8,4-6.2,7.3-10.1,9.6l-0.7,0.4c-0.9,0.5-1.8,1.1-2.7,1.7c-4.4,3.3-9.7,4.7-14.2,5.6
	C335.5,103.7,335.3,103.8,335.1,103.8L335.1,103.8z"/>
<path class="st0" d="M519.3,124.9c-0.2-8-0.2-16.1-0.2-23.9c0-5.2,0-10.4-0.1-15.7c0-4.6-0.3-9.3-0.5-13.8l0-1.1
	c-0.1-2-0.2-3.9-0.3-5.9c-0.2-2.4-0.3-4.9-0.4-7.3c-0.3-9-1-16.4-2.3-23.2c-0.5-2.7-1.2-5.4-2-8.2c-0.7-2.2-2.4-3.6-4.5-3.6
	c-0.5,0-1,0.1-1.6,0.2c-1.8,0.5-3,1.9-3.5,4c-0.7,2.6-0.5,5.2-0.4,7.8l0,0.9c0.4,6.9,0.8,13.9,1.1,20.8l0.3,5.9
	c0.1,2.5,0.3,5.1,0.5,7.6c0,0.4,0,0.5,0,0.5c0,0-0.2,0.1-0.5,0.1c-3,0.4-6.2,1-10,1.9c-4.8,1.1-9.8,1.4-14.6,1.7l-0.4,0
	c-0.1,0-0.1,0-0.2,0c0,0,0-0.1,0-0.2l-0.1-1c-0.2-2.8-0.3-5.5-0.5-8.2c-0.4-6.6-0.8-13.4-1.3-20.1c-0.3-4.1-1-8.2-1.7-12.2l-0.3-1.8
	c-0.2-1.2-0.7-2.4-1.6-3.7c-1-1.5-2.5-2.3-4.1-2.3c-1.5,0-2.9,0.7-3.9,2c-0.4,0.5-1.5,2-1.6,3.6c-0.2,2.4-0.2,5,0,8.2
	c0.3,7.6,0.7,15.8,1.2,25.2c0.2,4.3,0.5,8.7,0.8,12.5c0.1,1.8,0.3,3.7,0.5,5.6c0.2,2.8,0.5,5.8,0.7,8.7c0.1,2,0.2,4.1,0.2,6.2
	c0.1,3,0.1,6.2,0.5,9.2c0.6,6.3,1,12.7,1,19.7c0,4.1,0.2,8.2,0.5,12.3c0.5,6.9,1,13.3,1.6,19.5c0.6,6.1,1.2,11.6,1.9,16.9
	c0.3,2.1,1.1,4,1.8,5.5c0.7,1.6,2.7,2.6,4.2,2.6c0.5,0,1-0.1,1.3-0.3c1.4-0.8,3.3-2.1,3.4-4.7l0-0.4c0-0.9,0.1-1.9,0.1-2.8
	c-0.2-5.5-0.5-11.3-0.8-17.2c-0.1-2-0.2-4-0.4-6.1c-0.1-1.7-0.2-3.4-0.3-5.1c-0.1-1.3-0.2-2.6-0.2-3.9c-0.2-3.4-0.5-6.9-0.5-10.4
	c0-8.3,0-17.8-0.9-27.2c-0.4-4.5-0.5-9.1-0.5-13.6c0-1.9,0-3.7-0.1-5.6c0-0.1,0-0.3,0-0.5c0.2,0,0.7,0,0.7,0c1.1,0,2.2-0.1,3.2-0.1
	c2.8-0.1,5.7-0.1,8.5-0.5c3.3-0.4,6.4-1.1,9.7-1.9c1-0.2,2-0.4,3-0.7c0,1.4,0.1,2.7,0.1,4.1c0.1,3.9,0.2,8,0.3,11.9
	c0.1,9,0.2,18.2,0.2,27v1.4c0.1,7.5,1,15,1.8,22.2c0.2,2,0.5,3.9,0.7,5.9c1,7.8,2,15.8,2.1,23.7c0,1.5,0.5,3,1,4.4l0.1,0.2
	c0.6,1.9,2.2,3,4.4,3.2c0.2,0,0.3,0,0.5,0c2.1,0,3.7-1.1,4.5-2.9c0.6-1.4,0.9-3.1,0.9-4.7c0.2-11.7-0.8-23.5-1.8-33.4
	C520,137.4,519.4,131.2,519.3,124.9L519.3,124.9z"/>
<path class="st0" d="M460.7,113.9c-0.1-4.4-0.5-9.2-1.1-15.1c-0.4-3.6-2.5-5.5-5.8-5.5c-0.4,0-0.8,0-1.1,0.1c-1,0.1-2,0.2-2.9,0.3
	c-0.9,0.1-1.8,0.2-2.8,0.3c-0.8,0.1-1.6,0.2-2.2,0.5c-2.9,0.9-4.7,3.3-4.5,5.9c0.2,2.4,2.2,4.5,5,5.2c0.5,0.1,1.1,0.2,1.5,0.2
	c0.4,0,0.7,0,1.1,0c0.2,0,0.4,0,0.6,0c0.3,0,0.6,0,0.8,0c0.1,0,0.2,0,0.3,0c0,0.2,0,0.4,0,0.7l0,0.6c0,0.7,0,1.4,0,2.2
	c0,0.7,0,1.3,0,2l0.1,2.2c0.2,5.9,0.4,11.9,0.6,17.9c0.1,2.4,0.2,5.1,0.6,7.6c0.9,6.5,1,13.5,0.3,21.3c-0.2,2.3-0.6,4.4-1.2,6.4
	c-0.6,2.2-2.4,3.5-4.5,3.5c-1,0-1.9-0.3-2.8-0.8l-0.6-0.3c-0.6-0.4-1.2-0.7-1.8-1.1c-2.1-1.5-3.8-3.5-5-5.8c-1.3-2.6-2-5.4-2.1-8.3
	c-0.1-2.9-0.5-15.1-0.5-15.1c0-0.7,0-1.3,0-2c0-1.3,0-2.7-0.1-4.1c-0.4-4.9-0.8-9.9-1.2-14.8c-0.2-2.8-0.5-5.7-0.7-8.5
	c-0.1-1.4-0.2-2.8-0.3-4.2c-0.2-2.6-0.4-5.2-0.7-7.8c-0.4-3.7-0.6-7.6-0.4-12.3c0.1-6.2,0.2-12.5,0.2-18.5c0-2.2,0-4.3,0-6.5
	c0-0.3,0-0.7-0.1-0.9c0-0.2,0-0.3-0.1-0.4c-0.1-1.4-0.2-2.8-0.3-4.1c-0.2-3.2-0.5-6.6-0.5-9.8c0-4.2,1-8,3.2-11.2
	c0.6-0.8,0.9-1.2,1.1-1.2c0.4,0,1.1,0.4,1.4,0.5c2.9,1.4,5.2,3.5,6.8,6.1c0.2,0.3,0.4,0.7,0.6,1c0.6,1,1.2,2.1,2.1,3.1
	c0.9,1.1,2.1,1.7,3.4,1.7s2.6-0.6,3.5-1.8c0.8-1,1.4-2.4,1.5-3.6c0.4-3.5-0.7-6.7-3.1-9.5c-4.1-4.7-8.6-7.7-13.8-9.1
	c-1-0.3-2-0.4-2.9-0.4c-2.7,0-5.1,1.1-7.3,3.5c-4.5,4.9-7.1,10.9-7.9,18c-0.4,3.5-0.2,7-0.1,10.4c0,1.1,0.1,2.2,0.1,3.3
	c0,1.7,0.1,3.5,0.2,5.2c0.1,1.6,0.2,3.3,0.2,4.9c0.1,2.4,0,4.8,0,7.2c0,0.9,0,1.8,0,2.7c-0.1,0.1-0.1,0.3-0.1,0.4c0,0,0,4.9,0,6.2
	c0,1.3,0,2.6,0,3.9c0,2.8-0.1,5.8,0,8.7c0.2,4.3,0.5,8.6,1,13.3c0.2,2.2,0.5,4.4,0.7,6.5c0.2,1.7,0.4,3.4,0.6,5.1l0.3,2.6
	c0.5,4.8,1,9.8,1.4,14.8c0.2,2.5,0.3,5.1,0.5,7.6c0.2,3.4,0.3,6.9,0.7,10.3c0.5,5.2,1.8,11.8,7.1,16.9c0.2,0.2,0.4,0.4,0.5,0.7
	c0.2,0.2,0.4,0.5,0.6,0.7c4.7,5.1,9.2,7.5,14.8,7.8c0.3,0,0.6,0,1,0c6.6,0,12.1-3.8,14.2-9.8c1-2.9,1.7-6.1,2.1-9.4
	c1-8.7,0.8-17.9-0.5-29.1C461.3,125.5,460.8,119.5,460.7,113.9L460.7,113.9z"/>
<path class="st0" d="M207.7,76.4c-1.5-0.8-3.1-1.3-4.7-1.3c-0.6,0-1.3-0.1-1.9-0.1c-1.7,0-3.6,0.1-5.8,0.3c-2.1,0.2-4.1,0.5-6.2,0.8
	c-0.6,0.1-1.1,0.2-1.7,0.2c0-0.2,0-0.3,0-0.5c-0.1-1.2-0.2-2.3-0.2-3.5c-0.1-2.9-0.2-5.7-0.3-8.6l-0.1-4.2l-0.2-6.1
	c-0.2-5-0.3-10-0.5-14.9c0-0.1,0-0.2,0-0.3c0.1,0,0.3,0,0.5,0c0.6,0,1.1,0.1,1.7,0.2c1.4,0.1,2.8,0.3,4.3,0.3h0.3
	c9.6-0.1,19.5-0.3,29.4-0.6c6.4-0.2,13-1.4,19.4-3.7c1.3-0.4,2.2-0.9,3.1-1.4c1.4-0.9,1.6-1.8,1.5-2.4c-0.1-0.6-0.4-1.5-1.9-2.2
	c-0.5-0.2-1-0.4-1.4-0.5c-0.4-0.1-0.9-0.3-1.3-0.5c-4.8-2.1-9.4-3.1-13.9-3.1c-0.2,0-0.4,0-0.7,0c-6.2,0.1-12.5,0.2-18.7,0.4
	c-3.1,0-6.3,0.1-9.4,0.2h-0.4c-0.5,0-1.1,0-1.7,0.1c-3,0.8-6.1,0.9-9.3,0.9c-2.4,0.1-4.9,0.1-7.4,0.5c-2.4,0.4-5.6,1.4-5.9,5.9
	l-0.2,2.7c-0.4,7.2-0.9,14.5-0.5,21.9c0.5,8.7,0.8,17.5,1,26c0.1,3.5,0.2,7.1,0.4,10.6c0,0.5,0,1,0.1,1.5c0.1,1.4,0.1,2.8,0.1,4.1
	c-0.8,13-0.6,26.2,0.5,39.4c0.1,1.1,0.1,2.2,0.2,3.3c0.1,1.1,0.1,2.1,0.2,3.2c0.2,2.2,0.4,4.4,0.5,6.5c0.3,3.7,0.6,7.6,0.9,11.3
	c0.2,2.6,0.2,5.3,0.3,7.9c0.1,1.8,0.1,3.6,0.2,5.3c0.2,3.7,1.4,6.7,3.6,9c1.1,1.1,2,1.3,2.7,1.3c0.8,0,1.9-0.3,2.8-1.8
	c0.6-1,1.4-2.5,1.6-4.1c0.4-3.8,0.9-7.8,0.9-11.7c0-6.4-0.2-12.9-0.4-19.3l-0.1-3.4c-0.1-3.2-0.3-6.5-0.5-9.7l-0.1-0.7
	c-0.1-1.4-0.2-2.8-0.3-4.2c-0.2-2.4-0.4-5-0.5-7.5c-0.1-8.3-0.1-16.8-0.1-25c0-3.2,0-6.4,0-9.7c0-0.1,0-0.3,0-0.4c0-0.1,0-0.1,0-0.2
	c0.1-0.1,0.1-0.2,0.2-0.2c0.1,0,0.2,0,0.4,0c0.2,0,0.4,0,0.6,0c0.3,0,0.5,0,0.8,0c0.1,0,0.2,0,0.3,0l2.6-0.1
	c3.3-0.1,6.6-0.3,9.9-0.5c2.3-0.2,4.3-0.9,5.9-2.1c1.8-1.4,2.8-3.3,2.6-5.2C210.8,79.1,209.6,77.4,207.7,76.4L207.7,76.4z"/>
<path class="st0" d="M168.3,26.2c-0.8-0.6-1.9-1.2-3-1.4c-2.3-0.4-4.5-0.6-6.6-0.6c-0.2,0-0.4,0-0.6,0c-1,0-2,0.1-3,0.1
	c-0.9,0.1-1.8,0.1-2.6,0.1c-2.8,0-5.6,0-8.4,0.1c-3.7,0-7.4,0-11.1,0.1c-1.6,0-3.2,0.1-4.7,0.2c-1.5,0.1-3.1,0.2-4.6,0.2h-0.7
	c-2.7,0-5.4,0.1-8.1,1.1c-0.2,0.1-0.6,0.1-0.9,0.1h-0.2c-3.8,0-5.9,1.8-6.3,5.5c-0.4,3.1-0.6,6-0.5,8.7c0,2.6,0.1,5.2,0.2,7.7
	c0.1,2.8,0.2,5.6,0.2,8.4c0,9.5-0.1,19.3-0.3,29.9c-0.1,6.2-0.3,12.2-0.5,19.2c-0.1,3.3-0.2,6.8-0.3,10.6l0.2,3.4
	c0.2,3.6,0.3,8,0.6,12.4c0.3,6.4,0.7,11.7,1.2,16.6c0.2,2,0.7,3.9,1.2,5.8c0.7,2.6,2.4,4.1,5.1,4.8c4.6,1.1,9.2,1.5,13.1,1.8
	c2.6,0.2,6,0.4,9.4,0.4s6.8-0.2,9.8-0.6c3.2-0.5,6.6-1.2,9.5-3.2c1.3-0.9,2-1.9,2.1-3c0.1-1.1-0.4-2.2-1.6-3.3
	c-1.6-1.6-3.6-2.6-5.7-2.8c-2.9-0.3-5.6-0.6-8.3-0.6c-0.5,0-1,0-1.4,0c-1.8,0.1-3.7,0.1-5.1,0.1h-4.2c-4.2,0-7.8,0.1-11.4,0.6
	c-0.3,0-0.7,0.1-0.9,0.1c-0.1-0.2-0.2-0.6-0.2-1c-0.2-1-0.3-2-0.3-2.9c0-2.6-0.1-5.3-0.1-8c0-2.5,0-4.9-0.1-7.4
	c0-1.2-0.1-2.4-0.1-3.6c-0.1-1.9-0.2-3.9-0.1-5.8c0.1-3.1,0.3-6.3,0.5-9.4c0.1-1.4,0.2-2.9,0.3-4.3c0.2-3.6,0.4-7.3,0.6-10.9
	c0-0.2,0-0.4,0-0.5c0,0,0.7,0,0.7,0c0.5,0,1,0,1.5,0c0.7,0,1.3,0.1,2,0.1c0.7,0,1.3,0,1.9-0.1c2.7-0.3,5.5-0.7,8.3-1.3
	c2.3-0.5,4.2-1.7,5.3-3.7c1.4-2.3-0.1-3.5-0.5-3.8l-0.4-0.3c-2.1-1.4-4.4-2.9-7.2-3.1c-0.4,0-0.8,0-1.3,0c-1.8,0-3.7,0.2-5.4,0.3
	h-0.2c-0.8,0.1-1.5,0.3-2.3,0.4c-0.4,0.1-0.8,0.2-1.2,0.3c-0.2,0-0.4,0.1-0.6,0.1c0-0.1,0-0.3,0-0.5c0-0.4,0.1-0.8,0.1-1.2
	c0.1-1,0.2-2,0.2-3c0-4.2,0.1-8.7,0-14.3c0-1.8-0.1-3.4-0.2-4.8c-0.3-3.5-0.5-7-0.8-10.5c-0.3-4.2-0.7-8.4-1-12.6c0-0.1,0-0.5,0-0.7
	c0.3,0,0.6,0,1,0.1c3.5,0.3,7.1,0.6,10.9,0.8c1.9,0.1,3.7,0.1,5.5,0.2c0.7,0,1.4,0,2.1,0c1.8,0,3.6,0.1,5.4,0.1
	c3.2,0.1,6.6,0.2,9.9,0.2c1.1,0,2.2,0,3.3,0c4.8-0.1,8.7-1.6,11.8-4.3c1.6-1.5,1.9-2.8,1.8-3.7C170.5,28.8,170,27.5,168.3,26.2
	L168.3,26.2z"/>
<path class="st0" d="M584.9,28.1c0-0.1,0.1-0.1,0.1-0.2c0.2-0.2,0.2-0.4,0.2-0.7c0-1.9-0.3-3.8-3.2-4.3c-2.8-0.4-5.6-0.9-8.4-0.9
	c-4.2-0.1-8.3-0.1-12.3-0.1H557c-1.7,0-3.6,0-5.4,0.2c-6,0.8-12.2,1.6-18.1,2.4l-3,0.4c-1.4,0.2-2.7,0.4-4,0.7
	c-2,0.5-3.1,1.8-3.2,3.5c0,1.8,1.1,3.2,3,3.7c1.4,0.4,3,0.7,4.5,0.8c3.7,0.3,6.8,0.5,9.7,0.5c2.5,0,4.9-0.1,7.1-0.3
	c0.4,0,0.7-0.1,1-0.1c0,0.3,0,0.7,0.1,1c0.5,11.7,0.9,23.5,1.4,35.2l0,1.2c0.1,3.6,0.3,7.2,0.4,10.7l0.2,4.9
	c0.1,2.4,0.2,4.7,0.3,7.1c0.2,5.1,0.5,10.4,0.5,15.5c0,14.1,0.1,31.7,1.7,48.5c0.5,4.9,1,9.9,1.6,14.8l0.4,3.4
	c0.1,0.7,0.2,1.6,0.6,2.4c1,1.8,2.4,2.8,4.2,2.9c0,0,0.1,0,0.1,0c1.8,0,3.6-1.5,4.1-3.6c0.4-1.4,0.7-2.9,0.5-4.3
	c-0.3-2.3-0.2-4.6-0.1-6.9c0.1-1.2,0.1-2.5,0.1-3.8c0-2.3-0.1-4.6-0.1-6.9c-0.1-2.9-0.1-5.9-0.1-8.9c0-6.7,0-13.8,0.2-20.8
	c0.4-14.2,0.2-29.3-0.8-49c-0.2-3.6-0.3-7.2-0.5-10.9c-0.2-4.7-0.4-9.6-0.7-14.4c-0.3-5-0.7-10-1.2-14.9l-0.3-3c0-0.1,0-0.1,0-0.2
	c0,0,0.8,0,0.8,0c2.3,0,4.6-0.1,7-0.2c2.3-0.2,4.8-0.3,7.3-0.7c2.7-0.4,5.1-1.5,7.2-3C584.3,29,584.6,28.4,584.9,28.1L584.9,28.1z"
	/>
<path class="st0" d="M150.4,172.6c-1.4-1-3-1.8-4.4-2c-2.4-0.4-4.8-0.5-7.2-0.5c-0.9,0-1.8,0-2.7,0c-1.2,0-2.3,0-3.5,0
	c-1.1,0-2.3,0-3.5,0c-1.3,0-2.6,0-4,0c-1.3,0-2.7,0-4,0c-1.5,0-2.8,0-4.1,0.1c-4.5,0.2-9.1,0.5-13.5,0.8c-2.7,0.2-5.4,0.4-8.1,0.5
	l-0.3,0c-0.5,0-0.9,0.1-1.3,0.1H94c0-0.2,0-0.5,0-0.8l0-0.8c0.1-8.8,0.2-17.6,0.3-25.2l0.1-7.4v-34.9c0-1.5,0-3.1,0-4.6
	c0-3.2,0-6.4,0-9.7c0.1-4.1,0.1-8.2,0.2-12.3c0-2,0.1-3.9,0.1-5.9c0-1.2,0-2.4,0-3.6c0-2.6,0-5.2,0.3-7.8c0.4-3.6,0.3-7.4-0.3-12.2
	c-0.1-0.5-0.1-1-0.1-1.4c-0.1-0.7-0.1-1.3-0.2-2l-0.2-1.3c-0.5-3.3-1-6.7-1.6-10c-0.2-1.2-0.9-2.3-1.5-3c-0.8-1-2.1-1.6-3.4-1.6
	c-1,0-1.8,0.4-2.3,1c-0.2,0.2-0.4,0.5-0.6,0.7c-1.1,1.4-2.4,2.9-2.3,5.2c0,1.2,0,2.4-0.1,3.7c-0.1,1.2-0.2,2.5-0.1,3.8
	c0.2,6.2,0.4,12.6,0.7,18.5c0.1,1.3,0.2,2.6,0.3,3.9c0.2,1.7,0.3,3.5,0.3,5.2c0.1,9,0.1,17.9,0.1,26.9c0,6.6,0,13.1,0.1,19.7
	c0,1.7,0.1,3.3,0.2,4.9c0.1,1.5,0.1,3,0.2,4.4c0,2.5,0,5.1,0,7.6c0,2.6,0,5.2,0,7.8c0.1,5.1,0.2,10.2,0.2,15.3
	c0.1,2.6,0.1,5.2,0.1,7.9c0.1,3.4,0.1,6.8,0.1,10.1c0,0.5-0.1,1.1-0.2,1.8c-0.6,2.5-0.1,4,0.6,4.9c0.6,0.9,1.8,1.9,4.3,2.1
	c5.2,0.5,10.4,0.8,14.3,1c0.2,0,0.5,0,0.8,0c0.8,0,1.6-0.1,2.4-0.1c0.7-0.1,1.4-0.1,2.1-0.1c3.2,0,6.4,0,9.6,0
	c5.3,0,10.8,0,16.2-0.1c4-0.1,8-0.4,11-0.7c1.3-0.1,2.8-0.6,4.1-1.3c1.8-1,2.9-2.5,3-4.2C152.9,175.5,152.1,173.9,150.4,172.6
	L150.4,172.6z"/>
<path class="st0" d="M277.2,57.4c0.9-0.4,1.4-1.1,1.5-1.9c0.1-0.8-0.4-1.6-1.2-2.1c-0.9-0.6-1.7-1-2.5-1.1c-1.4-0.3-3.2-0.6-5-0.7
	c-1.9-0.1-3.8-0.2-5.6-0.2c-1.1,0-2.2,0-3.2-0.1c-1.6-0.1-3.3-0.1-4.9-0.2c-3.2-0.1-6.4-0.3-9.7-0.3c-0.4,0-0.9,0-1.3,0
	c-2.8,0-5.7,0.1-8.5,0.2l-3.3,0.1c-4.3,0.2-8.8,0.4-13.2,0.7c-2.8,0.2-5.7,0.7-8.4,1.1c-0.8,0.1-1.5,0.2-2.2,0.3
	c-0.8,0.1-1.7,0.4-2.4,0.9c-1.3,0.8-2,2.2-2,3.6c0,1.3,0.8,2.5,2,3.3c1.2,0.7,2.7,1.2,4.1,1.3c3.2,0.2,6.5,0.4,9.6,0.5
	c1.2,0.1,2.4,0.1,3.7,0.2c0,0,0,0,0.1,0c0.3,0,0.5-0.1,0.7-0.3h4.4c1.2,0,2.3,0,3.5,0c0.3,0,0.8,0,1,0c0,0.2,0.1,0.6,0.1,1
	c0.1,2.2,0.2,4.4,0.3,6.5c0.2,5.6,0.5,11.4,0.8,17.1c0.2,3.3,0.4,6.7,0.6,9.9c0.3,3.7,0.5,7.6,0.7,11.4c0.3,5.2,0.5,10.6,0.7,15.8
	c0.2,4.9,0.4,10,0.6,14.9c0.2,4.6,0.5,9.9,1.2,14.9c0.9,6.2,1.4,12.4,1.4,18.5c0,1.5,0.2,3.1,0.5,4.6c0.5,3.3,1.7,4.3,5.1,4.6
	c0.2,0,0.5,0,0.7,0c1.6,0,3.7-0.6,4.2-3.7c0.2-1,0.2-2.1,0.1-3.1c-0.1-1.1-0.1-2.2-0.2-3.3c-0.1-1.2-0.2-2.5-0.2-3.7
	c-0.1-3.2-0.2-6.4-0.3-9.6c-0.1-3.8-0.2-7.7-0.4-11.5c-0.1-3-0.3-6-0.4-9c-0.2-4.7-0.5-9.6-0.6-14.4c-0.1-5.2-0.2-10.4-0.2-15.5
	c-0.1-5-0.1-10.2-0.2-15.2c-0.1-4.2-0.4-8.4-0.7-12.5l-0.2-3.1c-0.2-3.1-0.5-6.1-0.7-9.2c-0.1-1.7-0.3-3.4-0.4-5.1
	c0-0.3-0.1-0.6-0.1-0.9c0.2,0,0.6,0,0.8,0c1.1,0,2.2,0,3.3,0c1.4,0,2.7,0,3.9,0.1c0.5,0,1.1,0,1.6,0c5.1,0,10.2-0.9,15.2-2.6
	C273.3,59.1,275.2,58.3,277.2,57.4L277.2,57.4z"/>
<path class="st0" d="M663.2,11.2c-0.4-1.5-1.6-2.4-3.2-2.4c-0.1,0-0.2,0-0.4,0c-1,0.1-2.1,0.3-3.1,0.7c-1.5,0.6-3,1.3-4.5,1.9
	c-1,0.4-2,0.8-2.9,1.2c-0.1,0-0.2,0.1-0.3,0.1c0-0.3,0-0.5,0-0.8c0-0.6,0-1.1,0.1-1.7c0-0.9,0.1-1.8,0.1-2.7c0-2.3-1.4-3.1-2.3-3.3
	c-0.4-0.1-0.7-0.1-1.1-0.1c-1.3,0-2.5,0.6-3.1,1.7c-0.3,0.6-0.5,1.2-0.7,2.1l-0.1,0.5c-0.3,2-0.6,4.1-0.8,6.2
	c-0.1,1.1-0.6,1.7-1.7,2.2c-2.2,0.9-4.3,1.8-6.4,2.7c-1,0.4-2,0.8-2.9,1.2l0.1-1.3c0.1-2.1,0.2-4.3,0.3-6.4l0.1-1.8
	c0.1-2.1,0.2-4.2,0.2-6.3c0-2.3-0.8-3.4-3-3.6c-0.3,0-0.6,0-0.9,0c-2.3,0-2.9,1.6-3.2,3c-0.2,0.9-0.3,1.7-0.4,2.4
	c-0.3,2.8-0.6,5.7-0.9,8.5c-0.2,2.4-0.5,4.8-0.8,7.3c-0.1,1.1-0.3,1.7-0.9,2c-1.9,1-4,2.1-6.4,3l0.3-5.7c0.3-4.7,0.5-9.4,0.8-14.1
	c0-0.9,0-1.9-0.2-2.9c-0.3-1.6-1.6-2.6-3.3-2.7c-0.1,0-0.2,0-0.3,0c-1.6,0-2.8,0.9-3.3,2.3c-0.4,1-0.6,2.1-0.6,3.1
	c-0.4,6.8-0.8,13.8-1.2,21.3c-0.1,1.7-0.7,2.7-1.9,3.3l-0.4,0.2c-1.2,0.6-2.5,1.2-3.7,1.8c0-0.4,0-0.8,0-1.2l0.2-18.9
	c0-0.7,0-1.4,0-2.1c-0.1-1.6-1.1-2.7-2.6-2.8c-0.1,0-0.2,0-0.3,0c-1.4,0-2.5,0.7-2.9,2c-0.3,0.9-0.6,1.9-0.6,2.8
	c-0.2,1.9-0.3,3.8-0.4,5.6c-0.1,1.2-0.2,2.5-0.2,3.7c-0.1,1.2-0.2,2.4-0.3,3.5c-0.2,2.5-0.5,5.1-0.4,7.7c0.1,3-1.1,4.7-4.2,6.1
	c-2.1,1-4,2.3-5.9,3.6l-1.1,0.7c-2.7,1.8-2.3,3.9-1.6,5.4c0.2,0.4,0.6,0.6,1,0.6c0.2,0,0.3,0,0.5-0.1c0.6-0.3,1.2-0.5,1.8-0.8
	c1.4-0.6,2.7-1.2,4-1.7c0.7-0.2,1.3-0.5,2-0.8c0.9-0.4,1.7-0.8,2.6-1c0,0.8,0,1.5,0.1,2.3c0.3,2.7,0.7,5.4,1.2,8
	c0.2,0.9,0.6,1.8,1.2,2.6c0.6,0.8,1.4,1.2,2.3,1.2c1.1,0,2.1-0.7,2.6-1.8c0.3-0.6,0.3-1.2,0.4-1.6c0.1-1.6,0.2-3.2,0.3-4.8
	c0,0,0.1-2.2,0.2-3c0.1-1.9,0.2-3.8,0.4-5.7c0.1-0.7,0.3-1.2,0.4-1.2c1.5-1.1,2.8-1.8,4.2-2.2c0,0.7,0,1.4,0,2.1
	c0,1.1-0.1,2.1-0.2,3.2c-0.1,2.2-0.3,4.5-0.2,6.8c0.1,2.3,0.6,4.6,1.1,6.8l0.3,1.3c0.2,0.8,1.2,2.3,2.3,2.3c0.1,0,0.2,0,0.2,0
	c1-0.2,2-1,2.5-1.8c0.4-0.7,0.6-1.5,0.7-2.1c0-0.2,0.1-0.3,0.1-0.5c1.2-6,1.5-12,1.5-16.5c0-1.5,0.1-2.9,0.1-4.4
	c0-1.1,0.3-1.4,0.5-1.5c1.8-0.8,3.6-1.7,5.6-2.5c0.3-0.1,0.6-0.3,0.9-0.4c0,0.4,0,0.8,0,1.2c0,1.4,0,2.8,0,4.2c0,3.5,0,7.1-0.1,10.6
	c-0.1,3,0.6,5.8,1.2,8.5c0.1,0.5,0.2,0.9,0.4,1.2c0.5,1,1.3,1.5,2.1,1.5c0.8,0,1.4-0.5,1.9-1.2c0.7-1.3,1.2-2.7,1.3-4l0-0.3
	c0.8-6.9,1.7-14,1.8-21c0-0.6,0-1.2,0.1-1.8c0-0.3,0-0.7,0.1-1c0.1-1.3,0.6-2,1.8-2.5c1.9-0.7,3.8-1.5,5.6-2.3
	c0.9-0.4,1.9-0.8,2.8-1.2c0.1,0,0.2-0.1,0.2-0.1c-0.1,1.6-0.2,3.3-0.4,5c-0.3,3.7-0.6,7.5-0.8,11.3c-0.2,4.5-0.3,9.2-0.2,14.9
	c0,1.4,0.7,2.7,1.3,3.9c0.5,1,1.6,1.6,2.7,1.6c0.2,0,0.5,0,0.8-0.1c1.4-0.3,2.3-1.3,2.6-2.6c0.2-1.1,0.4-2.2,0.4-3.3
	c0-10.9,0.9-21.9,1.6-31.6c0.1-2,0.9-3,2.7-3.7c2.3-0.9,4.6-1.9,6.8-2.9c0.8-0.4,1.7-0.7,2.5-1.1c0.5-0.2,1.2-0.5,1.8-0.9
	C663.1,14.2,663.7,12.8,663.2,11.2L663.2,11.2z"/>
<path class="st0" d="M408.8,152.3c-0.1-1.8-0.2-3.6-0.4-5.4v-0.1c-0.1-1.2-0.2-2.5-0.4-3.7c-0.2-1.7-0.3-3.4-0.5-5.1
	c-0.1-1-0.1-2.1-0.2-3.1c0-1-0.1-1.9-0.2-2.9c-0.1-1.6-0.3-3.2-0.4-4.8c-0.3-3-0.5-6.1-0.7-9.1c-0.2-3.6-0.1-7.2-0.1-10.8
	c0-1.1,0-2.2,0-3.2c0-2.2,0-4.6,0.1-7c0.3-5,0.6-10.1,0.9-15.1l0.4-5.9c0.1-6.1-0.4-12.3-0.9-18.3c-0.2-2.6-0.4-5.2-0.6-7.8
	c-0.1-2.2-0.4-4.3-0.7-6.4l-0.2-1.8c-0.5-3.5-1-7.1-1.6-10.7c-0.2-1.4-0.7-2.9-1.5-4.7c-0.8-1.8-2.4-2.8-4.5-2.9H397
	c-1.8,0-3.3,0.9-4.1,2.5c-0.9,1.9-1.9,3.9-1.7,6.2c0,0.7,0.1,1.4,0.1,2.1c0.1,1.5,0.1,2.9,0.2,4.4c0.1,1.9,0.3,3.8,0.4,5.7
	c0.1,1.3,0.2,2.6,0.3,3.9c0.2,2.6,0.4,5.2,0.6,7.8c0.3,4.7,0.7,9.3,1.1,13.9c0.6,7.1,1.1,14.7,0.8,22.2c0,0.9-0.1,1.8-0.2,2.6
	c-0.1,1.4-0.2,2.8-0.2,4.2c0.1,5.9,0.2,11.9,0.3,17.8l0.1,5.4c0,0.6,0.1,1.2,0.1,1.7c0.3,2.5,0.6,5.1,1,7.6c0.7,5.5,1.4,11.3,2,16.9
	c0.7,7.3,1.1,14.8,1.5,22.1l0,0.7c0.2,2.9,1.1,5.4,2.1,7.8c0.5,1.4,1.6,2.2,3,2.2c0,0,0.1,0,0.1,0c1,0,2.2-0.4,3-2.1l0.1-0.1
	c0.1-0.2,0.2-0.4,0.3-0.6c1.2-3,1.8-5.7,1.7-8.3C409.4,164.7,409.2,159.1,408.8,152.3L408.8,152.3z"/>
<path class="st0" d="M310.6,93.7c0-0.3-0.1-0.6-0.4-0.8s-0.6-0.3-0.9-0.3c0,0-0.4,0-0.4,0c-0.2,0-0.5,0-0.9,0.2
	c-0.7,0.3-1.3,0.6-2,0.9c-1.1,0.6-2.2,1.1-3.4,1.5c-2.6,0.9-4.6,1.4-6.5,1.4c-1.5,0-2.8-0.3-4.1-0.8c-1.6-0.7-3.2-1.4-5.1-2.4
	c-2.6-1.3-5.2-2-7.8-2c-0.3,0-0.7,0-1,0c-4.1,0.3-8.4,1.5-13.3,3.9c-0.7,0.4-1.4,0.9-1.8,1.6s-0.6,1.8-0.1,2.6
	c0.4,0.7,1.4,1.2,2.3,1.2l0,0c0.6,0,1.1-0.2,1.5-0.4c0.2-0.1,0.3-0.2,0.5-0.2l1.7-0.5c1.9-0.6,3.8-1.2,5.7-1.8
	c1.4-0.4,2.8-0.6,4.2-0.6c2.3,0,4.6,0.7,6.7,1.9c0.8,0.5,1.7,1,2.8,1.6c2.5,1.3,5,1.9,7.2,1.9c0.1,0,0.2,0,0.4,0
	c4.5,0,8.4-1.5,12.3-4.7c0.9-0.7,1.5-1.6,2.1-2.3c0.4-0.5,0.3-1.1,0.3-1.5C310.6,93.9,310.6,93.8,310.6,93.7L310.6,93.7z"/>
<path class="st0" d="M307.6,124.7l-0.4-0.2c-0.2-0.1-0.4-0.2-0.6-0.2c-0.2,0-0.4,0-0.5,0.1c-0.7,0.4-1.5,0.7-2.2,1.1
	c-1.5,0.8-3.1,1.6-4.7,2.4c-1.6,0.8-3.3,1.2-5,1.2c-1.5,0-2.9-0.3-4.4-0.9c-1.8-0.7-3.7-1.3-5.9-1.8c-2.1-0.5-4.3-0.7-6.3-0.7
	c-4.4,0-8.6,1.1-12.6,3.2c-0.9,0.5-1.7,1.1-2.3,1.8c-0.6,0.6-0.8,2.1-0.2,2.9c0.4,0.5,1.3,1.1,2.2,1.1c0.1,0,0.3,0,0.5-0.1
	c0.8-0.2,1.5-0.5,2.2-0.9c0.3-0.1,0.6-0.3,0.9-0.4c2.9-1.2,5.9-1.9,8.9-1.9c2.2,0,4.4,0.3,6.6,1c1.2,0.4,2.4,0.8,3.6,1.2
	c0.7,0.2,1.4,0.5,2,0.7c1.8,0.6,3.4,0.9,5,0.9c1.4,0,2.7-0.2,4-0.7c3.5-1.3,6.5-3.5,9-6.6c0.3-0.4,0.5-0.9,0.7-1.3
	c0.1-0.1,0.1-0.3,0.2-0.4C308.3,125.6,308.1,125,307.6,124.7L307.6,124.7z"/>
<path class="st0" d="M281.4,123.7c0.2,0,0.4,0,0.5-0.1c1.9-0.4,2-2.2,2-2.9c0-0.3,0-0.6,0-0.9c0-0.2,0-0.5,0-0.7
	c0-0.7,0.1-1.5,0.1-2.2c0.7,1,1.4,1.9,2.1,2.8c0.8,1.1,1.7,2,2.6,2.8c0.6,0.6,1.5,0.6,1.8,0.6c0.2,0,0.4,0,0.6-0.1
	c1.2-0.3,1.3-2,1.3-2.2c0.1-3,0.2-6.2,0.3-9.4c0-1.2-0.1-2.3-0.3-3.4l0-0.1c-0.1-0.5-0.2-1.2-0.6-1.9c-0.4-0.7-1.1-1.1-1.9-1.1
	c-0.8,0-1.6,0.5-2,1.4c-0.3,0.7-0.4,1.4-0.5,2c-0.1,0.9-0.3,1.9-0.4,2.9c-0.9-1.2-1.8-2.4-2.7-3.6c-0.1-0.1-0.2-0.3-0.3-0.4
	c-0.5-0.7-1.3-1.8-2.6-1.8c-0.3,0-0.6,0.1-0.9,0.2c-1.8,0.7-1.9,2.7-2,4c0,0.7-0.1,1.5-0.1,2.2c-0.1,1.6-0.2,3.2-0.2,4.8
	c0,1.4,0.2,3,0.5,4.6C279.1,122.8,280.1,123.7,281.4,123.7L281.4,123.7z"/>
<path class="st0" d="M274,122.5c-0.3-0.9-0.5-1.9-0.8-2.8c-0.7-2.6-1.5-5.3-2.4-7.9c-0.8-2.1-2-3.9-3.2-5.7l-0.1-0.2
	c-0.5-0.8-1.4-1.3-2.2-1.3c-1.1,0-2.1,0.8-2.5,2.1c-0.1,0.3-0.1,0.6-0.1,0.8l-1.6,12v2.2c0,0,0,0,0,0c0.1,0.8,0.2,1.7,0.5,2.6
	s1,1.5,1.9,1.5c0.7,0,1.3-0.3,1.8-0.9c0.3-0.5,0.6-1,0.8-1.8c0.3-1.2,0.7-2.6,0.9-3.9c0-0.1,0-0.1,0-0.1c0.1,0,0.2,0,0.3,0h0.4
	c0.2,0,0.2,0,0.2,0.1c0.4,0.9,0.8,2,1.4,3c0.5,0.9,1.2,1.6,1.8,2.2c0.2,0.2,0.5,0.4,1.1,0.4c0.3,0,0.7-0.1,1-0.2
	C273.9,124.2,274.2,123.1,274,122.5L274,122.5z M266,115.1V111l1.6,4.1H266z"/>
<path class="st0" d="M305.8,105.1c-1.9-0.8-3.2-1.2-4.3-1.2c-3.5,0-3.7,4-3.9,6.2c-0.1,2.3,0.4,4.6,1,6.9c0.1,0.5,0.3,1.1,0.4,1.6
	c0.5,2.5,1.7,2.7,4,2.7h0.1c0.1,0,0.2,0,0.2,0c0,0,0.1,0,0.2,0c0.4-0.1,1-0.1,1.7-0.4c3.4-1.6,5.2-4.3,5.3-7.7
	C310.6,109.3,308.9,106.4,305.8,105.1L305.8,105.1z M304.1,115.3l-0.3,0.4l-0.8-6.1C304.9,111.1,305.4,113.5,304.1,115.3z"/>
<path class="st0" d="M89.5,227.2l-1.2-1.1v13h-4.7v-23.4h0.1l11,11.1l11-11.1h0.1v23.4h-4.7v-13l-1.2,1.1c-1.7,1.9-3.4,3.7-5.2,5.5
	C93,230.9,91.3,229,89.5,227.2L89.5,227.2z"/>
<path class="st0" d="M113.6,239.1v-23h4.9v23H113.6z"/>
<path class="st0" d="M145.4,239.4l-12.6-12.1l-1.5-1.3v13.1h-4.8v-23.4h0.2l12.6,12.1l1.5,1.3V216h4.9v23.4H145.4z"/>
<path class="st0" d="M153.4,239.1v-23h7.4c7.8,0,12.8,4.8,12.8,11.5s-4.9,11.5-12.7,11.5H153.4z M158.4,220.2V235h2.4
	c4.9,0,7.8-3.2,7.8-7.4s-2.9-7.4-7.9-7.4H158.4z"/>
<path class="st0" d="M178.8,225.6h10.3v3.7h-10.3V225.6z"/>
<path class="st0" d="M212.7,232.4c0,4.4-3.6,6.7-8.8,6.7h-8.1v-23h7.5c4.9,0,8.6,2.1,8.6,6.5c0,2.2-1.3,3.8-2.9,4.5
	C210.9,227.7,212.7,229.7,212.7,232.4L212.7,232.4z M203.4,225.6c0.7,0,1.3,0,1.9-0.2c0.9-0.4,1.5-1.2,1.5-2.5
	c0-1.9-1.3-2.9-3.3-2.9h-3.1v5.7H203.4L203.4,225.6z M200.5,235.1h3.6c1.9,0,3.5-1.1,3.5-3.1s-1.4-3.1-3.2-3.1h-4V235.1L200.5,235.1
	z"/>
<path class="st0" d="M219.2,239.1v-23h4.9V235h8.9v4.1H219.2z"/>
<path class="st0" d="M249.2,215.6c6.9,0,12.1,5.3,12.1,12s-5.1,12-12.1,12s-12.1-5.2-12.1-12S242.3,215.6,249.2,215.6L249.2,215.6z
	 M249.2,235c4.2,0,7.1-3.3,7.1-7.5s-2.9-7.5-7.1-7.5s-7.1,3.4-7.1,7.5S245.1,235,249.2,235L249.2,235z"/>
<path class="st0" d="M269.8,216l3.1,7.8c0.8,1.9,1.4,3.7,1.9,5.2c0.4-0.8,1.1-2.6,1.7-4l1.3-2.9l2.7-5.9h0.2c2,4.4,4.4,9.6,5.6,12.9
	c0.8-2.1,3.7-9.5,5.1-13.1h5.5l-10.3,23.4h-0.2l-4.5-10.3c-0.4-0.9-0.8-1.9-1.2-2.8c-0.4,0.9-0.8,1.9-1.1,2.8l-4.5,10.3h-0.2
	l-10.3-23.4L269.8,216L269.8,216z"/>
<path class="st0" d="M302.1,239.1v-23h4.9v23H302.1z"/>
<path class="st0" d="M333.9,239.4l-12.6-12.1l-1.5-1.3v13.1h-4.8v-23.4h0.2l12.6,12.1l1.5,1.3V216h4.9v23.4H333.9L333.9,239.4z"/>
<path class="st0" d="M352.8,239.5c-7.3,0-12.4-5.2-12.4-12s5.1-12,12.3-12c3.4,0,5.9,1,7.2,1.6v4.5c-1.5-0.7-3.8-1.6-6.9-1.6
	c-4.8,0-7.6,3.4-7.6,7.5s2.9,7.5,7.4,7.5c1.1,0,2.3-0.2,3.1-0.4v-6.1h4.7v9.3C358.6,238.8,355.6,239.5,352.8,239.5L352.8,239.5z"/>
<path class="st0" d="M376.1,239.1v-23h4.9v23H376.1z"/>
<path class="st0" d="M407.8,239.4l-12.6-12.1l-1.5-1.3v13.1h-4.8v-23.4h0.2l12.6,12.1l1.5,1.3V216h4.9v23.4H407.8L407.8,239.4z"/>
<path class="st0" d="M420.8,220.2v5.5h7.7v4.1h-7.7v9.3h-4.9v-23h14v4.1L420.8,220.2L420.8,220.2z"/>
<path class="st0" d="M436.1,239.1v-23h4.9V235h8.9v4.1H436.1L436.1,239.1z"/>
<path class="st0" d="M464.4,215.7h0.2l11.2,23.4h-5.1l-1.9-4.1h-8.6l-1.8,4.1h-5.1L464.4,215.7L464.4,215.7z M467.3,231.6
	c-1.1-2.4-2.1-4.8-2.8-6.9c-0.7,1.6-1.9,4.7-2.9,6.9H467.3z"/>
<path class="st0" d="M488.5,220.2v18.9h-4.9v-18.9h-6.4V216H495v4.1H488.5L488.5,220.2z"/>
<path class="st0" d="M507.5,215.7h0.2l11.2,23.4h-5.2l-1.9-4.1h-8.6l-1.8,4.1h-5.1L507.5,215.7z M510.5,231.6
	c-1.1-2.4-2.1-4.8-2.8-6.9c-0.7,1.6-1.9,4.7-2.9,6.9H510.5z"/>
<path class="st0" d="M541,232.4c0,4.4-3.6,6.7-8.8,6.7h-8.1v-23h7.5c4.9,0,8.6,2.1,8.6,6.5c0,2.2-1.3,3.8-2.9,4.5
	C539.3,227.7,541.1,229.7,541,232.4L541,232.4z M531.8,225.6c0.7,0,1.3,0,1.9-0.2c0.9-0.4,1.5-1.2,1.5-2.5c0-1.9-1.3-2.9-3.3-2.9
	h-3.1v5.7H531.8L531.8,225.6z M528.9,235.1h3.7c2,0,3.5-1.1,3.5-3.1s-1.4-3.1-3.2-3.1h-4L528.9,235.1L528.9,235.1z"/>
<path class="st0" d="M547.6,239.1v-23h4.9V235h8.9v4.1H547.6z"/>
<path class="st0" d="M567.3,239.1v-23h14.8v4.1h-9.9v5.2h8.4v4h-8.4v5.6h10.4v4.1L567.3,239.1L567.3,239.1z"/>
<path class="st0" d="M101.1,265.4c0,4.4-3.6,6.7-8.8,6.7h-8.1v-23h7.5c4.9,0,8.6,2.1,8.6,6.5c0,2.2-1.3,3.8-2.9,4.5
	C99.3,260.7,101.1,262.7,101.1,265.4L101.1,265.4z M91.8,258.6c0.7,0,1.3,0,1.9-0.2c0.9-0.4,1.5-1.2,1.5-2.5c0-1.9-1.3-2.9-3.3-2.9
	h-3.1v5.7H91.8L91.8,258.6z M88.9,268.1h3.7c1.9,0,3.5-1.1,3.5-3.1s-1.4-3.1-3.2-3.1h-4V268.1L88.9,268.1z"/>
<path class="st0" d="M118.6,248.6c6.9,0,12.1,5.3,12.1,12s-5.1,12-12.1,12s-12.1-5.2-12.1-12S111.6,248.6,118.6,248.6z M118.6,268
	c4.2,0,7.1-3.3,7.1-7.5s-2.9-7.5-7.1-7.5s-7.1,3.4-7.1,7.5S114.4,268,118.6,268z"/>
<path class="st0" d="M144.9,248.7h0.2l11.2,23.4h-5.1l-1.9-4.1h-8.6l-1.8,4.1h-5.1L144.9,248.7L144.9,248.7z M147.9,264.6
	c-1.1-2.4-2.1-4.8-2.8-6.9c-0.7,1.6-1.9,4.7-2.9,6.9H147.9z"/>
<path class="st0" d="M169.4,253.2v18.9h-4.9v-18.9h-6.4V249h17.8v4.1H169.4z"/>
<path class="st0" d="M180.9,271.2v-4.7c1.6,0.8,3.7,1.5,5.8,1.7c0.7,0,1.4,0,2.1-0.1c1.8-0.3,2.8-0.9,2.8-2c0-1.5-1.4-2.3-4.5-3.5
	c-4-1.5-6.4-3.2-6.4-7.2s3.4-6.7,8.4-6.7c2.3,0,4.6,0.5,6,1.1v4.5c-1.3-0.8-3.5-1.4-5.6-1.4c-2.4,0-3.9,0.9-3.9,2.4
	c0,1.3,1.2,2.3,4.4,3.5c4,1.6,6.5,3.3,6.5,7.1c0,4.2-3.1,6.7-8.6,6.7C185.1,272.5,182.5,271.9,180.9,271.2L180.9,271.2z"/>
<path class="st0" d="M228.7,265.4c0,4.4-3.6,6.7-8.8,6.7h-8.1v-23h7.5c4.9,0,8.6,2.1,8.6,6.5c0,2.2-1.3,3.8-2.9,4.5
	C226.9,260.7,228.7,262.7,228.7,265.4L228.7,265.4z M219.4,258.6c0.7,0,1.3,0,1.9-0.2c0.9-0.4,1.5-1.2,1.5-2.5
	c0-1.9-1.3-2.9-3.3-2.9h-3.1v5.7H219.4L219.4,258.6z M216.5,268.1h3.6c1.9,0,3.5-1.1,3.5-3.1s-1.4-3.1-3.2-3.1h-4V268.1L216.5,268.1
	z"/>
<path class="st0" d="M237.9,249l5.3,9.4l5.3-9.4h5.6l-8.4,14.1v8.9h-4.9v-8.9l-8.4-14.1L237.9,249L237.9,249z"/>
<path class="st0" d="M273.8,260.2l-1.2-1.1v13h-4.7v-23.4h0.1l11,11.1l11-11.1h0.1v23.4h-4.7v-13l-1.2,1.1c-1.7,1.9-3.4,3.7-5.1,5.5
	C277.2,263.9,275.5,262,273.8,260.2L273.8,260.2z"/>
<path class="st0" d="M306.8,248.7h0.2l11.2,23.4H313l-1.9-4.1h-8.6l-1.8,4.1h-5.1L306.8,248.7L306.8,248.7z M309.7,264.6
	c-1.1-2.4-2.1-4.8-2.8-6.9c-0.7,1.6-1.9,4.7-2.9,6.9H309.7z"/>
<path class="st0" d="M343.3,249l-8,11.4l8.1,11.6h-5.5l-5.2-7.8l-5.2,7.8h-5.5l8.1-11.6l-8-11.4h5.5l5.1,7.7l5.1-7.6L343.3,249
	L343.3,249z"/>
<path class="st0" d="M349.9,272.1v-23h4.9v23H349.9z"/>
<path class="st0" d="M368.9,260.2l-1.2-1.1v13H363v-23.4h0.1l11,11.1l11-11.1h0.1v23.4h-4.7v-13l-1.2,1.1c-1.7,1.9-3.4,3.7-5.1,5.5
	C372.4,263.9,370.7,262,368.9,260.2L368.9,260.2z"/>
<path class="st0" d="M393.4,272.1v-23h14.8v4.1h-9.9v5.2h8.4v4h-8.4v5.6h10.4v4.1L393.4,272.1L393.4,272.1z"/>
<path class="st0" d="M432.4,249c5.3,0,8.9,2.7,8.9,7.6c0,3.4-1.9,5.6-4.4,6.6l4.8,8.9h-5.2l-4.1-8.1h-3.3v8.1h-4.8v-23L432.4,249
	L432.4,249z M429.2,253.2v6.9h3.5c2.2,0,3.7-1.1,3.7-3.4s-1.6-3.5-3.8-3.5L429.2,253.2L429.2,253.2z"/>
<path class="st0" d="M448.5,272.1v-23h4.9v23H448.5z"/>
<path class="st0" d="M479.1,254.7c-1.4-0.7-3.5-1.6-6.4-1.6c-4.7,0-7.6,3.4-7.6,7.5s2.9,7.5,7.5,7.5c3,0,5.2-0.9,6.7-1.6v4.6
	c-1.2,0.6-3.8,1.5-7,1.5c-6.9,0-12-5.2-12-12s5.1-12,12.2-12c3.2,0,5.5,1,6.7,1.6V254.7L479.1,254.7z"/>
<path class="st0" d="M500.4,272.1v-9.6h-9.5v9.6h-4.9v-23h4.9v9.3h9.5V249h4.9v23H500.4z"/>
<path class="st0" d="M522,248.7h0.2l11.2,23.4h-5.2l-1.9-4.1h-8.6l-1.8,4.1h-5.1L522,248.7L522,248.7z M524.9,264.6
	c-1.1-2.4-2.1-4.8-2.8-6.9c-0.7,1.6-1.9,4.7-2.8,6.9H524.9z"/>
<path class="st0" d="M547.1,249c5.3,0,8.9,2.7,8.9,7.6c0,3.4-1.9,5.6-4.4,6.6l4.8,8.9h-5.2l-4.1-8.1h-3.3v8.1H539v-23L547.1,249
	L547.1,249z M543.8,253.2v6.9h3.5c2.2,0,3.7-1.1,3.7-3.4s-1.6-3.5-3.8-3.5L543.8,253.2L543.8,253.2z"/>
<path class="st0" d="M563.1,272.1v-23h7.4c7.8,0,12.8,4.8,12.8,11.5c0,6.7-4.9,11.5-12.7,11.5L563.1,272.1L563.1,272.1z M568,253.2
	V268h2.4c4.9,0,7.8-3.2,7.8-7.4s-2.9-7.4-7.9-7.4L568,253.2L568,253.2z"/>
<path class="st0" d="M87.3,364.5v-33.8h7.2v27.8h13v6.1C107.6,364.5,87.3,364.5,87.3,364.5z"/>
<path class="st0" d="M114,364.5v-33.8h21.8v6.1h-14.5v7.7h12.3v5.8h-12.3v8.2h15.2v6.1L114,364.5L114,364.5z"/>
<path class="st0" d="M160.9,353v11.6h-7.2v-33.8h11c7.8,0,13,3.9,13,11.1s-5.2,11.1-13,11.1L160.9,353L160.9,353z M160.9,336.8v10.1
	h4.1c3.1,0,5.3-1.6,5.3-5s-2.3-5.1-5.5-5.1L160.9,336.8L160.9,336.8z"/>
<path class="st0" d="M184.2,364.5v-33.8h7.2v27.8h13v6.1H184.2L184.2,364.5z"/>
<path class="st0" d="M223.3,330.2h0.3l16.4,34.4h-7.6l-2.7-6h-12.6l-2.6,6h-7.6L223.3,330.2L223.3,330.2z M227.6,353.5
	c-1.6-3.5-3.1-7.1-4.1-10.1c-1,2.4-2.8,6.9-4.2,10.1H227.6L227.6,353.5z"/>
<path class="st0" d="M245.4,364.5v-33.8h7.2v33.8H245.4z"/>
<path class="st0" d="M260.2,363.3v-7c2.4,1.2,5.5,2.3,8.5,2.4c1.1,0,2.1,0,3-0.2c2.6-0.4,4.1-1.4,4.1-3c0-2.3-2-3.4-6.7-5.1
	c-5.9-2.2-9.4-4.6-9.4-10.5s5-9.9,12.3-9.9c3.4,0,6.7,0.8,8.8,1.7v6.7c-2-1.2-5.2-2.1-8.3-2.1c-3.5,0-5.7,1.4-5.7,3.5
	c0,2,1.8,3.3,6.4,5.1c5.9,2.3,9.6,4.8,9.6,10.5c0,6.1-4.6,9.8-12.6,9.8C266.5,365.2,262.7,364.3,260.2,363.3L260.2,363.3z"/>
<path class="st0" d="M289.7,364.5v-33.8h7.2v33.8H289.7z"/>
<path class="st0" d="M318.1,330.7c7.9,0,13.1,3.9,13.1,11.1c0,4.9-2.8,8.2-6.4,9.6l7.1,13.1h-7.7l-6-11.8h-4.9v11.8h-7.1v-33.8
	L318.1,330.7L318.1,330.7z M313.3,336.8v10.1h5.2c3.2,0,5.4-1.6,5.4-5s-2.3-5.1-5.6-5.1L313.3,336.8L313.3,336.8z"/>
<path class="st0" d="M348.9,364.5v-33.8h10.8c11.5,0,18.8,7,18.8,16.9s-7.2,16.9-18.7,16.9L348.9,364.5L348.9,364.5z M356.2,336.8
	v21.7h3.6c7.2,0,11.5-4.7,11.5-10.9s-4.3-10.9-11.6-10.9L356.2,336.8L356.2,336.8z"/>
<path class="st0" d="M413.5,352.2c0,7.9-5.2,13-14.1,13s-14.1-5.1-14.1-13v-21.5h7.2v20.8c0,4.4,2.5,7,6.9,7s6.9-2.6,6.9-7v-20.8
	h7.2V352.2z"/>
<path class="st0" d="M439.6,346.7l13.2-16h8.5l-12,14.1l12.2,19.7h-8.1l-9-15l-4.8,5.5v9.5h-7.2v-33.8h7.2V346.7z"/>
<path class="st0" d="M479.5,330.2h0.3l16.5,34.4h-7.6l-2.7-6h-12.6l-2.6,6H463L479.5,330.2L479.5,330.2z M483.7,353.5
	c-1.5-3.5-3-7.1-4.1-10.1c-1,2.4-2.8,6.9-4.2,10.1H483.7z"/>
<path class="st0" d="M500.5,330.7l7.8,13.9l7.8-13.9h8.2l-12.3,20.7v13.1h-7.2v-13.1l-12.3-20.7H500.5L500.5,330.7z"/>
<path class="st0" d="M536.8,330.2h0.3l16.5,34.4h-7.6l-2.7-6h-12.6l-2.6,6h-7.6L536.8,330.2L536.8,330.2z M541,353.5
	c-1.5-3.5-3-7.1-4.1-10.1c-1,2.4-2.8,6.9-4.2,10.1H541z"/>
<path class="st0" d="M566,346.7l13.2-16h8.5l-12,14.1l12.2,19.7h-8.1l-9-15L566,355v9.5h-7.2v-33.8h7.2L566,346.7L566,346.7z"/>
<path class="st0" d="M85.8,405.5v-19.4h4.2v16h7.5v3.5L85.8,405.5L85.8,405.5z"/>
<path class="st0" d="M107.8,385.8h0.2l9.4,19.7H113l-1.6-3.4h-7.3l-1.5,3.4h-4.3L107.8,385.8L107.8,385.8z M110.2,399.2
	c-0.9-2-1.8-4.1-2.3-5.8c-0.6,1.4-1.6,3.9-2.4,5.8H110.2z"/>
<path class="st0" d="M129.4,389.6v4.6h6.5v3.4h-6.5v7.9h-4.2v-19.4h11.9v3.5L129.4,389.6L129.4,389.6z"/>
<path class="st0" d="M149.4,385.7c5.9,0,10.2,4.5,10.2,10.1s-4.3,10.1-10.2,10.1s-10.2-4.4-10.2-10.1S143.6,385.7,149.4,385.7z
	 M149.4,402.1c3.5,0,6-2.8,6-6.3s-2.5-6.3-6-6.3s-6,2.8-6,6.3S145.9,402.1,149.4,402.1z"/>
<path class="st0" d="M179.2,405.8l-10.7-10.2l-1.3-1.1v11h-4.1v-19.7h0.2L174,396l1.2,1.1v-11h4.1v19.7H179.2L179.2,405.8z"/>
<path class="st0" d="M198.9,390.9c-1.2-0.6-3-1.4-5.4-1.4c-3.9,0-6.4,2.8-6.4,6.3s2.5,6.3,6.3,6.3c2.5,0,4.4-0.7,5.6-1.4v3.9
	c-1,0.5-3.2,1.3-5.9,1.3c-5.9,0-10.1-4.4-10.1-10.1s4.3-10.1,10.3-10.1c2.7,0,4.7,0.8,5.7,1.4V390.9L198.9,390.9z"/>
<path class="st0" d="M210.2,389.6v16h-4.2v-16h-5.4v-3.5h15v3.5H210.2z"/>
<path class="st0" d="M218.6,405.5v-19.4h4.2v19.4H218.6z"/>
<path class="st0" d="M236.5,385.7c5.9,0,10.2,4.5,10.2,10.1s-4.3,10.1-10.2,10.1s-10.2-4.4-10.2-10.1S230.6,385.7,236.5,385.7
	L236.5,385.7z M236.5,402.1c3.5,0,6-2.8,6-6.3s-2.5-6.3-6-6.3s-6,2.8-6,6.3S233,402.1,236.5,402.1z"/>
<path class="st0" d="M266.2,405.8l-10.7-10.2l-1.3-1.1v11h-4.1v-19.7h0.2L261,396l1.2,1.1v-11h4.1v19.7H266.2L266.2,405.8z"/>
<path class="st0" d="M287.2,405.8l-10.7-10.2l-1.3-1.1v11h-4.1v-19.7h0.2L282,396l1.2,1.1v-11h4.1v19.7H287.2L287.2,405.8z"/>
<path class="st0" d="M299.3,385.8h0.2l9.5,19.7h-4.4l-1.6-3.4h-7.3l-1.5,3.4h-4.4L299.3,385.8L299.3,385.8z M301.7,399.2
	c-0.9-2-1.8-4.1-2.4-5.8c-0.6,1.4-1.6,3.9-2.4,5.8H301.7z"/>
<path class="st0" d="M311.4,405.5v-19.4h4.2v16h7.5v3.5L311.4,405.5L311.4,405.5z"/>
<path class="st0" d="M326.2,405.5v-19.4h4.2v19.4H326.2z"/>
<path class="st0" d="M342.9,389.6v16h-4.2v-16h-5.4v-3.5h15v3.5H342.9z"/>
<path class="st0" d="M351.3,405.5v-19.4h12.5v3.5h-8.3v4.4h7.1v3.4h-7.1v4.7h8.8v3.5L351.3,405.5L351.3,405.5z M357.9,379h5
	l-4.2,5.5h-3.3L357.9,379z"/>
<path class="st0" d="M373.1,405.5v-19.4h6.2c6.6,0,10.8,4,10.8,9.7s-4.2,9.7-10.7,9.7L373.1,405.5L373.1,405.5z M377.2,389.6v12.5h2
	c4.2,0,6.6-2.7,6.6-6.2s-2.5-6.2-6.7-6.2L377.2,389.6L377.2,389.6z"/>
<path class="st0" d="M395,392.1h-3.3l2.1-7.9h4.1L395,392.1z"/>
<path class="st0" d="M416.5,398.5c0,4.5-3,7.5-8.1,7.5s-8.1-2.9-8.1-7.5v-12.4h4.2v12c0,2.5,1.4,4,4,4s4-1.5,4-4v-12h4.2
	L416.5,398.5L416.5,398.5z"/>
<path class="st0" d="M437.1,405.8l-10.7-10.2l-1.3-1.1v11h-4.1v-19.7h0.2l10.6,10.2l1.2,1.1v-11h4.1v19.7H437.1L437.1,405.8z"/>
<path class="st0" d="M451.5,398.9v6.6h-4.2v-19.4h6.3c4.5,0,7.5,2.2,7.5,6.4s-3,6.4-7.5,6.4L451.5,398.9L451.5,398.9z M451.5,389.6
	v5.8h2.4c1.8,0,3-0.9,3-2.9s-1.3-2.9-3.2-2.9L451.5,389.6L451.5,389.6z"/>
<path class="st0" d="M469.6,385.8h0.2l9.5,19.7h-4.4l-1.6-3.4H466l-1.5,3.4h-4.4L469.6,385.8L469.6,385.8z M472.1,399.2
	c-0.9-2-1.8-4.1-2.4-5.8c-0.6,1.4-1.6,3.9-2.4,5.8H472.1z"/>
<path class="st0" d="M495.7,390.9c-1.2-0.6-3-1.4-5.4-1.4c-3.9,0-6.4,2.8-6.4,6.3s2.5,6.3,6.3,6.3c2.5,0,4.4-0.7,5.6-1.4v3.9
	c-1,0.5-3.2,1.3-5.9,1.3c-5.9,0-10.1-4.4-10.1-10.1s4.3-10.1,10.3-10.1c2.7,0,4.7,0.8,5.7,1.4L495.7,390.9L495.7,390.9z"/>
<path class="st0" d="M503.4,395.3l7.6-9.2h4.9l-6.9,8.1l7,11.3h-4.6l-5.2-8.6l-2.8,3.2v5.5h-4.2v-19.4h4.2L503.4,395.3L503.4,395.3z
	"/>
<path class="st0" d="M525.4,386.1c4.5,0,7.5,2.2,7.5,6.4c0,2.8-1.6,4.7-3.7,5.5l4.1,7.5h-4.4l-3.4-6.8h-2.8v6.8h-4.1v-19.4H525.4
	L525.4,386.1z M522.7,389.6v5.8h3c1.8,0,3.1-0.9,3.1-2.9s-1.3-2.9-3.2-2.9L522.7,389.6L522.7,389.6z"/>
<path class="st0" d="M544,385.8h0.2l9.5,19.7h-4.3l-1.6-3.4h-7.3l-1.5,3.4h-4.3L544,385.8L544,385.8z M546.5,399.2
	c-0.9-2-1.8-4.1-2.3-5.8c-0.6,1.4-1.6,3.9-2.4,5.8H546.5z"/>
<path class="st0" d="M560.3,389.6v4.6h6.5v3.4h-6.5v7.9h-4.2v-19.4H568v3.5L560.3,389.6L560.3,389.6z"/>
<path class="st0" d="M579.2,389.6v16H575v-16h-5.4v-3.5h15v3.5H579.2z"/>
<rect x="91.2" y="306.5" class="st0" width="487.5" height="3.4"/>
</svg>
