<?xml version="1.0" encoding="utf-8"?>
<!-- Generator: Adobe Illustrator 28.0.0, SVG Export Plug-In . SVG Version: 6.00 Build 0)  -->
<svg version="1.1" id="Calque_1" xmlns="http://www.w3.org/2000/svg" xmlns:xlink="http://www.w3.org/1999/xlink" x="0px" y="0px"
	 viewBox="0 0 679.6 427.9" style="enable-background:new 0 0 679.6 427.9;" xml:space="preserve">
<style type="text/css">
	.st0{opacity:0.6;enable-background:new    ;}
	.st1{fill:#FFFFFF;}
</style>
<path class="st0" d="M670.9,12.1l-9,2.2c-0.3-9.7-8.5-9.7-36.4-9.7c-15.3,0-24.1,9.3-28.2,15.1H77.1v400.1h525v-330L657,79l6.7-38.9
	c0,0,2.6-5,9.8-12.5S676.6,9.8,670.9,12.1z"/>
<path class="st1" d="M379.7,45c-4.3-3-9.5-6.3-15.4-7.7c-0.4-0.1-0.7-0.2-1.1-0.3c-6.7-2.7-14.1-4-22.5-4c-1.5,0-3,0-4.5,0.1
	c-1.1,0-2.2,0.3-3.4,0.8c-2.3,0.9-3.8,2.6-4.3,4.9c-0.2,1.1-0.6,2.2-1,3.3c-0.2,0.7-0.5,1.4-0.7,2.1c-0.3,0.8-0.5,1.8-0.6,2.8
	c-0.4,6.3-0.4,12.8,0.2,19.1c0.8,9.8,1.5,19.3,1.2,29c0,1.4-0.1,2.8-0.1,4.2c-0.1,2.5-0.2,5-0.2,7.5c0,1.6,0,3.2,0,4.8
	c0,6.3-0.1,12.8,0.1,19.2c0.2,6.6,0.6,13.3,1.1,19.8c0.2,2.6,0.3,5.2,0.5,7.7c0.1,1.5,0.2,3,0.3,4.5c0.2,2.3,0.3,4.8,0.4,7.1
	c0.1,1.7,0,3.4-0.2,5.3c-0.6,5.6-1,10.6-0.1,15.9c0.2,1.3,0.8,2.6,1.7,4.2c0.6,1,1.6,1.6,2.8,1.6c0.5,0,1-0.1,1.5-0.4
	c1.2-0.6,2.5-1.4,2.9-2.6c0.2-0.7,0.5-1.3,0.8-2c0.8-2,1.7-4,1.6-6.4c-0.1-1.1-0.1-2.2-0.2-3.2c-0.1-2.2-0.3-4.4-0.3-6.6
	c-0.1-5.9-0.1-12.2,0-18.4c0.1-5.2,0.3-10.5,0.5-15.7c0.1-3.1,0.2-6.2,0.3-9.3c0-0.6,0-1,0-1.4c0-0.3,0-0.6,0-0.8
	c0.2-0.1,0.5-0.1,0.9-0.2c0.4-0.1,0.8-0.1,1.3-0.2l1-0.2c4.4-0.9,9-1.9,13.2-4.1c0.5,1.5,0.9,3,1.4,4.5c1,3.3,2.1,6.8,3.4,10.1
	c3.6,9.5,6.7,19.3,9.8,28.8c0.5,1.7,1.1,3.4,1.6,5.2c1.7,5.4,3.7,11.2,6.6,16.6c1,1.9,2.3,3.5,3.8,4.8c0.7,0.6,1.7,1.1,2.6,1.2
	c0.2,0,0.5,0.1,0.7,0.1c1.4,0,2.7-0.6,3.6-1.6c1.1-1.2,1.6-2.8,1.5-4.6c-0.2-2.8-0.9-5.1-2.2-7.2c-0.9-1.4-1.4-2.4-1.8-3.5
	c-1.2-3.5-2.4-6.9-3.5-10.4c-1.1-3.2-2.1-6.4-3.2-9.6l-1-3c-1.6-4.7-3.3-9.5-5.1-14.2c-2.2-5.5-4.5-11-6.7-16.3
	c-0.9-2.1-1.8-4.2-2.6-6.3l0.1-0.1c0.5-0.3,0.8-0.6,1.2-0.8c4.1-2.6,7.6-5.9,10.5-9.8c2.2-3.1,4.9-6.7,7.3-10.6
	c4.8-7.6,7.6-14.8,8.6-21.8c0.8-5.6,1.1-12.9-2.7-19.5C388.1,52.4,384.2,48.2,379.7,45L379.7,45z M340.8,117.5c0-0.2,0-0.4,0-0.8
	c0.1-3.5,0.2-7,0.3-10.5l0.1-4.3c0-0.2,0-0.4-0.2-0.6l0.2-6.2c0.2-5.5,0.4-10.9,0.6-16.4c0.2-6.2,0-11.4-0.7-16.3
	c-0.2-1.7-0.3-3.6-0.3-5.3c0-1-0.1-1.9-0.1-2.9c-0.1-1.8-0.2-3.5-0.4-5.3l-0.2-2.5c0,0,0-0.1,0-0.2c0-0.3,0-0.6,0-0.9
	c0.2,0,0.5,0.1,0.9,0.1c1.2,0.2,2.5,0.3,3.7,0.5c2.8,0.4,5.8,0.8,8.6,1.3c6.8,1.3,13.1,4,18.9,7.9c0.7,0.5,1.4,1.2,1.9,1.8
	c0.4,0.5,0.9,1,1.3,1.4c0.7,0.8,1.3,1.5,2.1,2.3c3.4,3.2,4.6,7.3,3.9,13.4c-0.7,6-3,11.8-7.4,18.7c-1.3,2.1-2.7,4.1-4.1,6.1
	l-0.8,1.2c-2.8,4-6.2,7.3-10.1,9.6l-0.7,0.4c-0.9,0.5-1.8,1.1-2.7,1.7c-4.4,3.3-9.7,4.7-14.2,5.6C341.2,117.4,341,117.5,340.8,117.5
	L340.8,117.5z"/>
<path class="st1" d="M525,138.6c-0.2-8-0.2-16.1-0.2-23.9c0-5.2,0-10.4-0.1-15.7c0-4.6-0.3-9.3-0.5-13.8v-1.1
	c-0.1-2-0.2-3.9-0.3-5.9c-0.2-2.4-0.3-4.9-0.4-7.3c-0.3-9-1-16.4-2.3-23.2c-0.5-2.7-1.2-5.4-2-8.2c-0.7-2.2-2.4-3.6-4.5-3.6
	c-0.5,0-1,0.1-1.6,0.2c-1.8,0.5-3,1.9-3.5,4c-0.7,2.6-0.5,5.2-0.4,7.8v0.9c0.4,6.9,0.8,13.9,1.1,20.8l0.3,5.9
	c0.1,2.5,0.3,5.1,0.5,7.6c0,0.4,0,0.5,0,0.5s-0.2,0.1-0.5,0.1c-3,0.4-6.2,1-10,1.9c-4.8,1.1-9.8,1.4-14.6,1.7h-0.4
	c-0.1,0-0.1,0-0.2,0c0,0,0-0.1,0-0.2l-0.1-1c-0.2-2.8-0.3-5.5-0.5-8.2c-0.4-6.6-0.8-13.4-1.3-20.1c-0.3-4.1-1-8.2-1.7-12.2l-0.3-1.8
	c-0.2-1.2-0.7-2.4-1.6-3.7c-1-1.5-2.5-2.3-4.1-2.3c-1.5,0-2.9,0.7-3.9,2c-0.4,0.5-1.5,2-1.6,3.6c-0.2,2.4-0.2,5,0,8.2
	c0.3,7.6,0.7,15.8,1.2,25.2c0.2,4.3,0.5,8.7,0.8,12.5c0.1,1.8,0.3,3.7,0.5,5.6c0.2,2.8,0.5,5.8,0.7,8.7c0.1,2,0.2,4.1,0.2,6.2
	c0.1,3,0.1,6.2,0.5,9.2c0.6,6.3,1,12.7,1,19.7c0,4.1,0.2,8.2,0.5,12.3c0.5,6.9,1,13.3,1.6,19.5c0.6,6.1,1.2,11.6,1.9,16.9
	c0.3,2.1,1.1,4,1.8,5.5c0.7,1.6,2.7,2.6,4.2,2.6c0.5,0,1-0.1,1.3-0.3c1.4-0.8,3.3-2.1,3.4-4.7v-0.4c0-0.9,0.1-1.9,0.1-2.8
	c-0.2-5.5-0.5-11.3-0.8-17.2c-0.1-2-0.2-4-0.4-6.1c-0.1-1.7-0.2-3.4-0.3-5.1c-0.1-1.3-0.2-2.6-0.2-3.9c-0.2-3.4-0.5-6.9-0.5-10.4
	c0-8.3,0-17.8-0.9-27.2c-0.4-4.5-0.5-9.1-0.5-13.6c0-1.9,0-3.7-0.1-5.6c0-0.1,0-0.3,0-0.5c0.2,0,0.7,0,0.7,0c1.1,0,2.2-0.1,3.2-0.1
	c2.8-0.1,5.7-0.1,8.5-0.5c3.3-0.4,6.4-1.1,9.7-1.9c1-0.2,2-0.4,3-0.7c0,1.4,0.1,2.7,0.1,4.1c0.1,3.9,0.2,8,0.3,11.9
	c0.1,9,0.2,18.2,0.2,27v1.4c0.1,7.5,1,15,1.8,22.2c0.2,2,0.5,3.9,0.7,5.9c1,7.8,2,15.8,2.1,23.7c0,1.5,0.5,3,1,4.4l0.1,0.2
	c0.6,1.9,2.2,3,4.4,3.2c0.2,0,0.3,0,0.5,0c2.1,0,3.7-1.1,4.5-2.9c0.6-1.4,0.9-3.1,0.9-4.7c0.2-11.7-0.8-23.5-1.8-33.4
	C525.7,151.1,525.1,144.9,525,138.6L525,138.6z"/>
<path class="st1" d="M466.5,127.6c-0.1-4.4-0.5-9.2-1.1-15.1c-0.4-3.6-2.5-5.5-5.8-5.5c-0.4,0-0.8,0-1.1,0.1c-1,0.1-2,0.2-2.9,0.3
	c-0.9,0.1-1.8,0.2-2.8,0.3c-0.8,0.1-1.6,0.2-2.2,0.5c-2.9,0.9-4.7,3.3-4.5,5.9c0.2,2.4,2.2,4.5,5,5.2c0.5,0.1,1.1,0.2,1.5,0.2
	s0.7,0,1.1,0c0.2,0,0.4,0,0.6,0c0.3,0,0.6,0,0.8,0c0.1,0,0.2,0,0.3,0c0,0.2,0,0.4,0,0.7v0.6c0,0.7,0,1.4,0,2.2c0,0.7,0,1.3,0,2
	l0.1,2.2c0.2,5.9,0.4,11.9,0.6,17.9c0.1,2.4,0.2,5.1,0.6,7.6c0.9,6.5,1,13.5,0.3,21.3c-0.2,2.3-0.6,4.4-1.2,6.4
	c-0.6,2.2-2.4,3.5-4.5,3.5c-1,0-1.9-0.3-2.8-0.8l-0.6-0.3c-0.6-0.4-1.2-0.7-1.8-1.1c-2.1-1.5-3.8-3.5-5-5.8c-1.3-2.6-2-5.4-2.1-8.3
	c-0.1-2.9-0.5-15.1-0.5-15.1c0-0.7,0-1.3,0-2c0-1.3,0-2.7-0.1-4.1c-0.4-4.9-0.8-9.9-1.2-14.8c-0.2-2.9-0.5-5.7-0.7-8.5
	c-0.1-1.4-0.2-2.8-0.3-4.2c-0.2-2.6-0.4-5.2-0.7-7.8c-0.4-3.7-0.6-7.6-0.4-12.3c0.1-6.2,0.2-12.5,0.2-18.5c0-2.2,0-4.3,0-6.5
	c0-0.3,0-0.7-0.1-0.9c0-0.2,0-0.3-0.1-0.4c-0.1-1.4-0.2-2.8-0.3-4.1c-0.2-3.2-0.5-6.6-0.5-9.8c0-4.2,1-8,3.2-11.2
	c0.6-0.8,0.9-1.2,1.1-1.2c0.4,0,1.1,0.4,1.4,0.5c2.9,1.4,5.2,3.5,6.8,6.1c0.2,0.3,0.4,0.7,0.6,1c0.6,1,1.2,2.1,2.1,3.1
	c0.9,1.1,2.1,1.7,3.4,1.7s2.6-0.6,3.5-1.8c0.8-1,1.4-2.4,1.5-3.6c0.4-3.5-0.7-6.7-3.1-9.5c-4.1-4.7-8.6-7.7-13.8-9.1
	c-1-0.3-2-0.4-2.9-0.4c-2.7,0-5.1,1.1-7.3,3.5c-4.5,4.8-7.1,10.9-7.9,18c-0.4,3.5-0.2,7-0.1,10.4c0,1.1,0.1,2.2,0.1,3.3
	c0,1.7,0.1,3.5,0.2,5.2c0.1,1.6,0.2,3.3,0.2,4.9c0.1,2.4,0,4.8,0,7.2c0,0.9,0,1.8,0,2.7c-0.1,0.1-0.1,0.3-0.1,0.4c0,0,0,4.9,0,6.2
	c0,1.3,0,2.6,0,3.9c0,2.8-0.1,5.8,0,8.7c0.2,4.3,0.5,8.6,1,13.3c0.2,2.2,0.5,4.4,0.7,6.5c0.2,1.7,0.4,3.4,0.6,5.1l0.3,2.6
	c0.5,4.8,1,9.8,1.4,14.8c0.2,2.5,0.3,5.1,0.5,7.6c0.2,3.4,0.3,6.9,0.7,10.3c0.5,5.2,1.8,11.8,7.1,16.9c0.2,0.2,0.4,0.4,0.5,0.7
	c0.2,0.2,0.4,0.5,0.6,0.7c4.7,5.1,9.2,7.5,14.8,7.8c0.3,0,0.6,0,1,0c6.6,0,12.1-3.8,14.2-9.8c1-2.9,1.7-6.1,2.1-9.4
	c1-8.7,0.8-17.9-0.5-29.1C467,139.3,466.5,133.2,466.5,127.6L466.5,127.6z"/>
<path class="st1" d="M213.4,90.2c-1.5-0.8-3.1-1.3-4.7-1.3c-0.6,0-1.3-0.1-1.9-0.1c-1.7,0-3.6,0.1-5.8,0.3c-2.1,0.2-4.1,0.5-6.2,0.8
	c-0.6,0.1-1.1,0.2-1.7,0.2c0-0.2,0-0.3,0-0.5c-0.1-1.2-0.2-2.3-0.2-3.5c-0.1-2.9-0.2-5.7-0.3-8.6l-0.1-4.2l-0.2-6.1
	c-0.2-5-0.3-10-0.5-14.9c0-0.1,0-0.2,0-0.3c0.1,0,0.3,0,0.5,0c0.6,0,1.1,0.1,1.7,0.2c1.4,0.1,2.8,0.3,4.3,0.3h0.3
	c9.6-0.1,19.5-0.3,29.4-0.6c6.4-0.2,13-1.4,19.4-3.7c1.3-0.4,2.2-0.9,3.1-1.4c1.4-0.9,1.6-1.8,1.5-2.4c-0.1-0.6-0.4-1.5-1.9-2.2
	c-0.5-0.2-1-0.4-1.4-0.5s-0.9-0.3-1.3-0.5c-4.8-2.1-9.4-3.1-13.9-3.1c-0.2,0-0.4,0-0.7,0c-6.2,0.1-12.5,0.2-18.7,0.3
	c-3.1,0-6.3,0.1-9.4,0.2h-0.4c-0.5,0-1.1,0-1.7,0.1c-3,0.8-6.1,0.9-9.3,0.9c-2.4,0.1-4.9,0.1-7.4,0.5c-2.4,0.4-5.6,1.4-5.9,5.9
	l-0.2,2.7c-0.4,7.2-0.9,14.5-0.5,21.9c0.5,8.7,0.8,17.5,1,26c0.1,3.5,0.2,7.1,0.4,10.6c0,0.5,0,1,0.1,1.5c0.1,1.4,0.1,2.8,0.1,4.1
	c-0.8,13-0.6,26.2,0.5,39.4c0.1,1.1,0.1,2.2,0.2,3.3c0.1,1.1,0.1,2.1,0.2,3.2c0.2,2.2,0.4,4.4,0.5,6.5c0.3,3.7,0.6,7.6,0.9,11.3
	c0.2,2.6,0.2,5.3,0.3,7.9c0.1,1.8,0.1,3.6,0.2,5.3c0.2,3.7,1.4,6.7,3.6,9c1.1,1.1,2,1.3,2.7,1.3c0.8,0,1.9-0.3,2.8-1.8
	c0.6-1,1.4-2.5,1.6-4.1c0.4-3.8,0.9-7.8,0.9-11.7c0-6.4-0.2-12.9-0.4-19.3l-0.1-3.4c-0.1-3.2-0.3-6.5-0.5-9.7l-0.1-0.7
	c-0.1-1.4-0.2-2.8-0.3-4.2c-0.2-2.4-0.4-5-0.5-7.4c-0.1-8.3-0.1-16.8-0.1-25c0-3.2,0-6.4,0-9.7c0-0.1,0-0.3,0-0.4s0-0.1,0-0.2
	c0.1-0.1,0.1-0.2,0.2-0.2c0.1,0,0.2,0,0.4,0s0.4,0,0.6,0c0.3,0,0.5,0,0.8,0c0.1,0,0.2,0,0.3,0l2.6-0.1c3.3-0.1,6.6-0.3,9.9-0.5
	c2.3-0.2,4.3-0.9,5.9-2.1c1.8-1.4,2.8-3.3,2.6-5.2C216.5,92.8,215.4,91.2,213.4,90.2L213.4,90.2z"/>
<path class="st1" d="M174,39.9c-0.8-0.6-1.9-1.2-3-1.4c-2.3-0.4-4.5-0.6-6.6-0.6c-0.2,0-0.4,0-0.6,0c-1,0-2,0.1-3,0.1
	c-0.9,0.1-1.8,0.1-2.6,0.1c-2.8,0-5.6,0-8.4,0.1c-3.7,0-7.4,0-11.1,0.1c-1.6,0-3.2,0.1-4.7,0.2c-1.5,0.1-3.1,0.2-4.6,0.2h-0.7
	c-2.7,0-5.4,0.1-8.1,1.1c-0.2,0.1-0.6,0.1-0.9,0.1h-0.2c-3.8,0-5.9,1.8-6.3,5.5c-0.4,3.1-0.6,6-0.5,8.7c0,2.6,0.1,5.2,0.2,7.7
	c0.1,2.8,0.2,5.6,0.2,8.4c0,9.5-0.1,19.3-0.3,29.9c-0.1,6.2-0.3,12.2-0.5,19.2c-0.1,3.3-0.2,6.8-0.3,10.6l0.2,3.4
	c0.2,3.6,0.3,8,0.6,12.4c0.3,6.4,0.7,11.7,1.2,16.6c0.2,2,0.7,3.9,1.2,5.8c0.7,2.6,2.4,4.1,5.1,4.8c4.6,1.1,9.2,1.5,13.1,1.8
	c2.6,0.2,6,0.4,9.4,0.4s6.8-0.2,9.8-0.6c3.2-0.5,6.6-1.2,9.5-3.2c1.3-0.9,2-1.9,2.1-3s-0.4-2.2-1.6-3.3c-1.6-1.6-3.6-2.6-5.7-2.8
	c-2.9-0.3-5.6-0.6-8.3-0.6c-0.5,0-1,0-1.4,0c-1.8,0.1-3.7,0.1-5.1,0.1h-4.2c-4.2,0-7.8,0.1-11.4,0.6c-0.3,0-0.7,0.1-0.9,0.1
	c-0.1-0.2-0.2-0.6-0.2-1c-0.2-1-0.3-2-0.3-2.9c0-2.6-0.1-5.3-0.1-8c0-2.5,0-4.9-0.1-7.4c0-1.2-0.1-2.4-0.1-3.6
	c-0.1-1.9-0.2-3.9-0.1-5.8c0.1-3.1,0.3-6.3,0.5-9.4c0.1-1.4,0.2-2.9,0.3-4.3c0.2-3.6,0.4-7.3,0.6-10.9c0-0.2,0-0.4,0-0.5h0.7
	c0.5,0,1,0,1.5,0c0.7,0,1.3,0.1,2,0.1s1.3,0,1.9-0.1c2.7-0.3,5.5-0.7,8.3-1.3c2.3-0.5,4.2-1.7,5.3-3.7c1.4-2.3-0.1-3.5-0.5-3.8
	l-0.4-0.3c-2.1-1.4-4.4-2.9-7.2-3.1c-0.4,0-0.8,0-1.3,0c-1.8,0-3.7,0.2-5.4,0.3h-0.2c-0.8,0.1-1.5,0.3-2.3,0.4
	c-0.4,0.1-0.8,0.2-1.2,0.3c-0.2,0-0.4,0.1-0.6,0.1c0-0.1,0-0.3,0-0.5c0-0.4,0.1-0.8,0.1-1.2c0.1-1,0.2-2,0.2-3c0-4.2,0.1-8.7,0-14.3
	c0-1.8-0.1-3.4-0.2-4.8c-0.3-3.5-0.5-7-0.8-10.5c-0.3-4.2-0.7-8.4-1-12.6c0-0.1,0-0.5,0-0.7c0.3,0,0.6,0,1,0.1
	c3.5,0.3,7.1,0.6,10.9,0.8c1.9,0.1,3.7,0.1,5.5,0.2c0.7,0,1.4,0,2.1,0c1.8,0,3.6,0.1,5.4,0.1c3.2,0.1,6.6,0.2,9.9,0.2
	c1.1,0,2.2,0,3.3,0c4.8-0.1,8.7-1.6,11.8-4.3c1.6-1.5,1.9-2.8,1.8-3.7C176.2,42.5,175.8,41.2,174,39.9L174,39.9z"/>
<path class="st1" d="M590.6,41.8c0-0.1,0.1-0.1,0.1-0.2c0.2-0.2,0.2-0.4,0.2-0.7c0-1.9-0.3-3.8-3.2-4.3c-2.8-0.4-5.6-0.9-8.4-0.9
	c-4.2-0.1-8.3-0.1-12.3-0.1h-4.4c-1.7,0-3.6,0-5.4,0.2c-6,0.8-12.2,1.6-18.1,2.4l-3,0.4c-1.4,0.2-2.7,0.4-4,0.7
	c-2,0.5-3.1,1.8-3.2,3.5c0,1.8,1.1,3.2,3,3.7c1.4,0.4,3,0.7,4.5,0.8c3.7,0.3,6.8,0.5,9.7,0.5c2.5,0,4.9-0.1,7.1-0.3
	c0.4,0,0.7-0.1,1-0.1c0,0.3,0,0.7,0.1,1c0.5,11.7,0.9,23.5,1.4,35.2v1.2c0.1,3.6,0.3,7.2,0.4,10.7l0.2,4.9c0.1,2.4,0.2,4.7,0.3,7.1
	c0.2,5.1,0.5,10.4,0.5,15.5c0,14.1,0.1,31.7,1.7,48.5c0.5,4.9,1,9.9,1.6,14.8l0.4,3.4c0.1,0.7,0.2,1.6,0.6,2.4
	c1,1.8,2.4,2.8,4.2,2.9h0.1c1.8,0,3.6-1.5,4.1-3.6c0.4-1.4,0.7-2.9,0.5-4.3c-0.3-2.3-0.2-4.6-0.1-6.9c0.1-1.2,0.1-2.5,0.1-3.8
	c0-2.3-0.1-4.6-0.1-6.9c-0.1-2.9-0.1-5.9-0.1-8.9c0-6.7,0-13.8,0.2-20.8c0.4-14.2,0.2-29.3-0.8-49c-0.2-3.6-0.3-7.2-0.5-10.9
	c-0.2-4.7-0.4-9.6-0.7-14.4c-0.3-5-0.7-10-1.2-14.9l-0.3-3c0-0.1,0-0.1,0-0.2h0.8c2.3,0,4.6-0.1,7-0.2c2.3-0.2,4.8-0.3,7.3-0.7
	c2.7-0.4,5.1-1.5,7.2-3C590,42.7,590.4,42.1,590.6,41.8L590.6,41.8z"/>
<path class="st1" d="M156.2,186.4c-1.4-1-3-1.8-4.4-2c-2.4-0.4-4.8-0.5-7.2-0.5c-0.9,0-1.8,0-2.7,0c-1.2,0-2.3,0-3.5,0
	c-1.1,0-2.3,0-3.5,0c-1.3,0-2.6,0-4,0c-1.3,0-2.7,0-4,0c-1.5,0-2.8,0-4.1,0.1c-4.5,0.2-9.1,0.5-13.5,0.8c-2.7,0.2-5.4,0.4-8.1,0.5
	h-0.3c-0.5,0-0.9,0.1-1.3,0.1h-0.1c0-0.2,0-0.5,0-0.8v-0.8c0.1-8.8,0.2-17.6,0.3-25.2l0.1-7.4v-34.9c0-1.5,0-3.1,0-4.6
	c0-3.2,0-6.4,0-9.7c0.1-4.1,0.1-8.2,0.2-12.3c0-2,0.1-3.9,0.1-5.9c0-1.2,0-2.4,0-3.6c0-2.6,0-5.2,0.3-7.8c0.4-3.6,0.3-7.4-0.3-12.2
	c-0.1-0.5-0.1-1-0.1-1.4c-0.1-0.7-0.1-1.3-0.2-2l-0.2-1.3c-0.5-3.3-1-6.7-1.6-10c-0.2-1.2-0.9-2.3-1.5-3c-0.8-1-2.1-1.6-3.4-1.6
	c-1,0-1.8,0.4-2.3,1c-0.2,0.2-0.4,0.5-0.6,0.7c-1.1,1.4-2.4,2.9-2.3,5.2c0,1.2,0,2.4-0.1,3.7c-0.1,1.2-0.2,2.5-0.1,3.8
	c0.2,6.2,0.4,12.6,0.7,18.5c0.1,1.3,0.2,2.6,0.3,3.9c0.2,1.7,0.3,3.5,0.3,5.2c0.1,9,0.1,17.9,0.1,26.9c0,6.6,0,13.1,0.1,19.7
	c0,1.6,0.1,3.3,0.2,4.9c0.1,1.5,0.1,3,0.2,4.4c0,2.5,0,5.1,0,7.6c0,2.6,0,5.2,0,7.8c0.1,5.1,0.2,10.2,0.2,15.3
	c0.1,2.6,0.1,5.2,0.1,7.9c0.1,3.4,0.1,6.8,0.1,10.1c0,0.5-0.1,1.1-0.2,1.8c-0.6,2.5-0.1,4,0.6,4.9c0.6,0.9,1.8,1.9,4.3,2.1
	c5.2,0.5,10.4,0.8,14.3,1c0.2,0,0.5,0,0.8,0c0.8,0,1.6-0.1,2.4-0.1c0.7-0.1,1.4-0.1,2.1-0.1c3.2,0,6.4,0,9.6,0
	c5.3,0,10.8,0,16.2-0.1c4-0.1,8-0.4,11-0.7c1.3-0.1,2.8-0.6,4.1-1.3c1.8-1,2.9-2.5,3-4.2C158.6,189.2,157.8,187.6,156.2,186.4
	L156.2,186.4z"/>
<path class="st1" d="M282.9,71.1c0.9-0.4,1.4-1.1,1.5-1.9s-0.4-1.6-1.2-2.1c-0.9-0.6-1.7-1-2.5-1.1c-1.4-0.3-3.2-0.6-5-0.7
	c-1.9-0.1-3.8-0.2-5.6-0.2c-1.1,0-2.2-0.1-3.2-0.1c-1.6-0.1-3.3-0.1-4.9-0.2c-3.2-0.1-6.4-0.3-9.7-0.3c-0.4,0-0.9,0-1.3,0
	c-2.8,0-5.7,0.1-8.5,0.2l-3.3,0.1c-4.3,0.2-8.8,0.4-13.2,0.7c-2.8,0.2-5.7,0.7-8.4,1.1c-0.8,0.1-1.5,0.2-2.2,0.3
	c-0.8,0.1-1.7,0.4-2.4,0.9c-1.3,0.8-2,2.2-2,3.6c0,1.3,0.8,2.5,2,3.3c1.2,0.7,2.7,1.2,4.1,1.3c3.2,0.2,6.5,0.4,9.6,0.6
	c1.2,0.1,2.4,0.1,3.7,0.2c0,0,0,0,0.1,0c0.3,0,0.5-0.1,0.7-0.3h4.4c1.2,0,2.3,0,3.5,0c0.3,0,0.8,0,1,0c0,0.2,0.1,0.6,0.1,1
	c0.1,2.2,0.2,4.4,0.3,6.5c0.2,5.6,0.5,11.4,0.8,17.1c0.2,3.3,0.4,6.7,0.6,9.9c0.3,3.7,0.5,7.6,0.7,11.4c0.3,5.2,0.5,10.6,0.7,15.8
	c0.2,4.9,0.4,9.9,0.6,14.9c0.2,4.6,0.5,9.9,1.2,14.9c0.9,6.2,1.4,12.4,1.4,18.5c0,1.5,0.2,3.1,0.5,4.6c0.5,3.3,1.7,4.3,5.1,4.6
	c0.2,0,0.5,0,0.7,0c1.6,0,3.7-0.6,4.2-3.7c0.2-1,0.2-2.1,0.1-3.1c0-1.1-0.1-2.2-0.2-3.3c-0.1-1.2-0.2-2.5-0.2-3.7
	c-0.1-3.2-0.2-6.4-0.3-9.6c-0.1-3.8-0.3-7.7-0.4-11.5c-0.1-3-0.3-6-0.4-9c-0.2-4.7-0.5-9.6-0.6-14.4c-0.1-5.1-0.2-10.4-0.2-15.5
	c-0.1-5-0.1-10.2-0.2-15.2c-0.1-4.2-0.4-8.4-0.7-12.5l-0.2-3.1c-0.2-3.1-0.5-6.1-0.7-9.2c-0.1-1.7-0.3-3.4-0.4-5.1
	c0-0.3-0.1-0.6-0.1-0.9c0.2,0,0.6,0,0.8,0c1.1,0,2.2,0,3.3,0c1.4,0,2.7,0,3.9,0.1c0.5,0,1.1,0,1.6,0c5.1,0,10.2-0.9,15.2-2.6
	C279,72.8,281,72,282.9,71.1L282.9,71.1z"/>
<path class="st1" d="M668.9,24.9c-0.4-1.5-1.6-2.4-3.2-2.4c-0.1,0-0.2,0-0.4,0c-1,0.1-2.1,0.3-3.1,0.7c-1.5,0.6-3,1.3-4.5,1.9
	c-1,0.4-2,0.8-2.9,1.2c-0.1,0-0.2,0.1-0.3,0.1c0-0.3,0-0.5,0-0.8c0-0.6,0-1.1,0.1-1.7c0-0.9,0.1-1.8,0.1-2.7c0-2.4-1.4-3.1-2.3-3.3
	c-0.4-0.1-0.7-0.1-1.1-0.1c-1.3,0-2.5,0.6-3.1,1.7c-0.3,0.6-0.5,1.2-0.7,2.1l-0.1,0.5c-0.3,2-0.6,4.1-0.8,6.2
	c-0.1,1.1-0.6,1.7-1.7,2.2c-2.2,0.9-4.3,1.8-6.4,2.7c-1,0.4-2,0.8-2.9,1.2l0.1-1.3c0.1-2.1,0.2-4.3,0.3-6.4l0.1-1.8
	c0.1-2.1,0.2-4.2,0.2-6.3c0-2.4-0.8-3.4-3-3.6c-0.3,0-0.6-0.1-0.9-0.1c-2.3,0-2.9,1.6-3.2,3c-0.2,0.9-0.3,1.7-0.4,2.4
	c-0.3,2.8-0.6,5.7-0.9,8.5c-0.2,2.4-0.5,4.8-0.8,7.3c-0.1,1.1-0.3,1.7-0.9,2c-1.9,1-4,2.1-6.4,3l0.3-5.7c0.3-4.7,0.5-9.4,0.8-14.1
	c0-0.9,0-1.9-0.2-2.9c-0.3-1.6-1.6-2.6-3.3-2.7c-0.1,0-0.2,0-0.3,0c-1.6,0-2.8,0.9-3.3,2.3c-0.4,1-0.6,2.1-0.6,3.1
	c-0.4,6.8-0.8,13.7-1.2,21.3c-0.1,1.7-0.7,2.7-1.9,3.3l-0.4,0.2c-1.2,0.6-2.5,1.2-3.7,1.8c0-0.4,0-0.8,0-1.2l0.2-18.9
	c0-0.7,0-1.4,0-2.1c-0.1-1.6-1.1-2.7-2.6-2.8c-0.1,0-0.2,0-0.3,0c-1.4,0-2.5,0.7-2.9,2c-0.3,0.9-0.6,1.9-0.6,2.8
	c-0.2,1.9-0.3,3.8-0.4,5.6c-0.1,1.2-0.2,2.5-0.2,3.7c-0.1,1.2-0.2,2.4-0.3,3.5c-0.2,2.5-0.5,5.1-0.4,7.7c0.1,3-1.1,4.7-4.2,6.1
	c-2.1,1-4,2.3-5.9,3.6l-1.1,0.7c-2.7,1.8-2.3,3.9-1.6,5.4c0.2,0.4,0.6,0.6,1,0.6c0.2,0,0.3,0,0.5-0.1c0.6-0.3,1.2-0.5,1.8-0.8
	c1.4-0.6,2.7-1.2,4-1.7c0.7-0.2,1.3-0.5,2-0.8c0.9-0.4,1.7-0.8,2.6-1c0,0.8,0,1.5,0.1,2.3c0.3,2.7,0.7,5.4,1.2,8
	c0.2,0.9,0.6,1.8,1.2,2.6c0.6,0.8,1.4,1.2,2.3,1.2c1.1,0,2.1-0.7,2.6-1.8c0.3-0.6,0.3-1.2,0.4-1.6c0.1-1.6,0.2-3.2,0.3-4.8
	c0,0,0.1-2.2,0.2-3c0.1-1.9,0.2-3.8,0.4-5.7c0.1-0.7,0.3-1.2,0.4-1.2c1.5-1.1,2.8-1.8,4.2-2.2c0,0.7,0,1.4,0,2.1
	c0,1.1-0.1,2.1-0.2,3.2c-0.1,2.2-0.3,4.5-0.2,6.8c0.1,2.3,0.6,4.6,1.1,6.8l0.3,1.3c0.2,0.8,1.2,2.3,2.3,2.3c0.1,0,0.2,0,0.2,0
	c1-0.2,2-1,2.5-1.8c0.4-0.7,0.6-1.4,0.7-2.1c0-0.2,0.1-0.3,0.1-0.5c1.2-6,1.5-12,1.5-16.5c0-1.5,0.1-2.9,0.1-4.4
	c0-1.1,0.3-1.4,0.5-1.5c1.8-0.8,3.6-1.7,5.6-2.5c0.3-0.1,0.6-0.3,0.9-0.4c0,0.4,0,0.8,0,1.2c0,1.4,0,2.8,0,4.2c0,3.5,0,7.1-0.1,10.6
	c-0.1,3,0.6,5.8,1.2,8.5c0.1,0.5,0.2,0.9,0.4,1.2c0.5,1,1.3,1.5,2.1,1.5s1.4-0.5,1.9-1.2c0.7-1.3,1.2-2.7,1.3-4v-0.3
	c0.8-6.9,1.7-14,1.8-21c0-0.6,0-1.2,0.1-1.8c0-0.3,0-0.7,0.1-1c0.1-1.3,0.6-2,1.8-2.5c1.9-0.7,3.8-1.5,5.6-2.3
	c0.9-0.4,1.9-0.8,2.8-1.2c0.1,0,0.2-0.1,0.2-0.1c-0.1,1.6-0.2,3.3-0.4,5c-0.3,3.7-0.6,7.5-0.8,11.3c-0.2,4.5-0.3,9.2-0.2,14.9
	c0,1.4,0.7,2.7,1.3,3.9c0.5,1,1.6,1.6,2.7,1.6c0.2,0,0.5,0,0.8-0.1c1.4-0.3,2.3-1.3,2.6-2.6c0.2-1.1,0.4-2.2,0.4-3.3
	c0-10.9,0.9-21.9,1.6-31.6c0.1-2,0.9-3,2.7-3.7c2.3-0.9,4.6-1.9,6.8-2.9c0.8-0.4,1.7-0.7,2.5-1.1c0.5-0.2,1.2-0.5,1.8-0.9
	C668.8,27.9,669.4,26.5,668.9,24.9L668.9,24.9z"/>
<path class="st1" d="M414.6,166.1c-0.1-1.8-0.2-3.6-0.4-5.4v-0.1c-0.1-1.2-0.2-2.5-0.4-3.7c-0.2-1.7-0.3-3.4-0.5-5.1
	c-0.1-1-0.1-2.1-0.2-3.1c0-1-0.1-1.9-0.2-2.9c-0.1-1.6-0.3-3.2-0.4-4.8c-0.3-3-0.5-6.1-0.7-9.1c-0.2-3.6-0.1-7.2-0.1-10.8
	c0-1.1,0-2.2,0-3.2c0-2.2,0-4.6,0.1-7c0.3-5,0.6-10.1,0.9-15.1l0.4-5.9c0.1-6.1-0.4-12.3-0.9-18.3c-0.2-2.6-0.4-5.2-0.6-7.8
	c-0.1-2.2-0.4-4.3-0.7-6.4l-0.2-1.8c-0.5-3.5-1-7.1-1.6-10.7c-0.2-1.4-0.7-2.9-1.5-4.7s-2.4-2.8-4.5-2.9h-0.2
	c-1.8,0-3.3,0.9-4.1,2.5c-0.9,1.9-1.9,3.9-1.7,6.2c0,0.7,0.1,1.4,0.1,2.1c0.1,1.5,0.1,2.9,0.2,4.4c0.1,1.9,0.3,3.8,0.4,5.7
	c0.1,1.3,0.2,2.6,0.3,3.9c0.2,2.6,0.4,5.2,0.6,7.8c0.3,4.7,0.7,9.3,1.1,13.9c0.6,7.1,1.1,14.7,0.8,22.2c0,0.9-0.1,1.8-0.2,2.6
	c-0.1,1.4-0.2,2.8-0.2,4.2c0.1,5.9,0.2,11.9,0.3,17.8l0.1,5.4c0,0.6,0.1,1.2,0.1,1.7c0.3,2.5,0.6,5.1,1,7.6c0.7,5.5,1.4,11.3,2,16.9
	c0.7,7.3,1.1,14.8,1.5,22.1v0.7c0.2,2.9,1.1,5.4,2.1,7.8c0.5,1.4,1.6,2.2,3,2.2h0.1c1,0,2.2-0.4,3-2.1l0.1-0.1
	c0.1-0.2,0.2-0.4,0.3-0.6c1.2-3,1.8-5.7,1.7-8.3C415.1,178.5,414.9,172.8,414.6,166.1L414.6,166.1z"/>
<path class="st1" d="M316.3,107.4c0-0.3-0.1-0.6-0.4-0.8s-0.6-0.3-0.9-0.3h-0.4c-0.2,0-0.5,0-0.9,0.2c-0.7,0.3-1.3,0.6-2,0.9
	c-1.1,0.6-2.2,1.1-3.4,1.5c-2.6,0.9-4.6,1.4-6.5,1.4c-1.5,0-2.8-0.3-4.1-0.8c-1.6-0.7-3.2-1.4-5.1-2.4c-2.6-1.3-5.2-2-7.8-2
	c-0.3,0-0.7,0-1,0c-4.1,0.3-8.4,1.5-13.3,3.9c-0.7,0.4-1.4,0.9-1.8,1.6s-0.6,1.8-0.1,2.6c0.4,0.7,1.4,1.2,2.3,1.2l0,0
	c0.6,0,1.1-0.2,1.5-0.4c0.2-0.1,0.3-0.2,0.5-0.2l1.7-0.5c1.9-0.6,3.8-1.2,5.7-1.8c1.4-0.4,2.8-0.6,4.2-0.6c2.3,0,4.6,0.7,6.7,1.9
	c0.8,0.5,1.7,1,2.8,1.6c2.5,1.3,5,1.9,7.2,1.9c0.1,0,0.2,0,0.4,0c4.5,0,8.4-1.5,12.3-4.7c0.9-0.7,1.5-1.6,2.1-2.3
	c0.4-0.5,0.3-1.1,0.3-1.5C316.4,107.6,316.3,107.5,316.3,107.4L316.3,107.4z"/>
<path class="st1" d="M313.4,138.4l-0.4-0.2c-0.2-0.1-0.4-0.2-0.6-0.2s-0.4,0-0.5,0.1c-0.7,0.4-1.5,0.7-2.2,1.1
	c-1.5,0.8-3.1,1.6-4.7,2.4c-1.6,0.8-3.3,1.2-5,1.2c-1.5,0-2.9-0.3-4.4-0.9c-1.8-0.7-3.7-1.3-5.9-1.8c-2.1-0.5-4.3-0.7-6.3-0.7
	c-4.4,0-8.6,1.1-12.6,3.2c-0.9,0.5-1.7,1.1-2.3,1.8c-0.6,0.6-0.8,2.1-0.2,2.9c0.4,0.5,1.3,1.1,2.2,1.1c0.1,0,0.3,0,0.5-0.1
	c0.8-0.2,1.5-0.5,2.2-0.9c0.3-0.1,0.6-0.3,0.9-0.4c2.9-1.2,5.9-1.9,8.9-1.9c2.2,0,4.4,0.3,6.6,1c1.2,0.4,2.4,0.8,3.6,1.2
	c0.7,0.2,1.4,0.5,2,0.7c1.8,0.6,3.4,0.9,5,0.9c1.4,0,2.7-0.2,4-0.7c3.5-1.3,6.5-3.5,9-6.6c0.3-0.4,0.5-0.9,0.7-1.3
	c0.1-0.1,0.1-0.3,0.2-0.4C314,139.3,313.8,138.7,313.4,138.4L313.4,138.4z"/>
<path class="st1" d="M287.1,137.4c0.2,0,0.4,0,0.5-0.1c1.9-0.4,2-2.2,2-2.9c0-0.3,0-0.6,0-0.9c0-0.2,0-0.5,0-0.7
	c0-0.7,0.1-1.5,0.1-2.2c0.7,1,1.4,1.9,2.1,2.8c0.8,1.1,1.7,2,2.6,2.8c0.6,0.6,1.5,0.6,1.8,0.6c0.2,0,0.4,0,0.6-0.1
	c1.2-0.3,1.3-2,1.3-2.2c0.1-3,0.2-6.2,0.3-9.4c0-1.2-0.1-2.3-0.3-3.4v-0.1c-0.1-0.5-0.2-1.2-0.6-1.9c-0.4-0.7-1.1-1.1-1.9-1.1
	s-1.6,0.5-2,1.4c-0.3,0.7-0.4,1.4-0.5,2c-0.1,0.9-0.3,1.9-0.4,2.9c-0.9-1.2-1.8-2.4-2.7-3.6c-0.1-0.1-0.2-0.3-0.3-0.4
	c-0.5-0.7-1.3-1.8-2.6-1.8c-0.3,0-0.6,0.1-0.9,0.2c-1.8,0.7-1.9,2.7-2,4c0,0.7-0.1,1.5-0.1,2.2c-0.1,1.6-0.2,3.2-0.2,4.8
	c0,1.4,0.2,3,0.5,4.6C284.9,136.5,285.8,137.4,287.1,137.4L287.1,137.4z"/>
<path class="st1" d="M279.7,136.2c-0.3-0.9-0.5-1.9-0.8-2.8c-0.7-2.6-1.5-5.3-2.4-8c-0.8-2.1-2-3.9-3.2-5.7l-0.1-0.2
	c-0.5-0.8-1.4-1.3-2.2-1.3c-1.1,0-2.1,0.8-2.5,2.1c-0.1,0.3-0.1,0.6-0.1,0.8l-1.6,12v2.2l0,0c0.1,0.8,0.2,1.7,0.5,2.6s1,1.5,1.9,1.5
	c0.7,0,1.3-0.3,1.8-0.9c0.3-0.5,0.6-1,0.8-1.8c0.3-1.2,0.7-2.6,0.9-3.9c0-0.1,0-0.1,0-0.1c0.1,0,0.2,0,0.3,0h0.4
	c0.2,0,0.2,0,0.2,0.1c0.4,0.9,0.8,2,1.4,3c0.5,0.9,1.2,1.6,1.8,2.2c0.2,0.2,0.5,0.4,1.1,0.4c0.3,0,0.7-0.1,1-0.2
	C279.7,137.9,279.9,136.8,279.7,136.2L279.7,136.2z M271.8,128.8v-4.1l1.6,4.1H271.8z"/>
<path class="st1" d="M311.5,118.8c-1.9-0.8-3.2-1.2-4.3-1.2c-3.5,0-3.7,4-3.9,6.2c-0.1,2.3,0.4,4.6,1,6.9c0.1,0.5,0.3,1.1,0.4,1.6
	c0.5,2.5,1.7,2.7,4,2.7h0.1c0.1,0,0.2,0,0.2,0s0.1,0,0.2,0c0.4-0.1,1-0.1,1.7-0.4c3.4-1.6,5.2-4.3,5.3-7.7
	C316.3,123,314.6,120.2,311.5,118.8L311.5,118.8z M309.8,129.1l-0.3,0.4l-0.8-6.1C310.7,124.8,311.1,127.2,309.8,129.1z"/>
<path class="st1" d="M95.3,240.9l-1.2-1.1v13h-4.7v-23.4h0.1l11,11.1l11-11.1h0.1v23.4h-4.7v-13l-1.2,1.1c-1.7,1.9-3.4,3.7-5.2,5.5
	C98.7,244.6,97,242.8,95.3,240.9L95.3,240.9z"/>
<path class="st1" d="M119.3,252.8v-23h4.9v23H119.3z"/>
<path class="st1" d="M151.1,253.2L138.5,241l-1.5-1.3v13.1h-4.8v-23.4h0.2l12.6,12.1l1.5,1.3v-13.1h4.9v23.4L151.1,253.2
	L151.1,253.2z"/>
<path class="st1" d="M159.2,252.8v-23h7.4c7.8,0,12.8,4.8,12.8,11.5s-4.9,11.5-12.7,11.5H159.2z M164.1,233.9v14.8h2.4
	c4.9,0,7.8-3.2,7.8-7.4s-2.9-7.4-7.9-7.4L164.1,233.9L164.1,233.9z"/>
<path class="st1" d="M184.5,239.3h10.3v3.7h-10.3V239.3z"/>
<path class="st1" d="M218.4,246.1c0,4.4-3.6,6.7-8.8,6.7h-8.1v-23h7.5c4.9,0,8.6,2.1,8.6,6.5c0,2.2-1.3,3.8-2.9,4.5
	C216.6,241.4,218.4,243.5,218.4,246.1L218.4,246.1z M209.1,239.4c0.7,0,1.3,0,1.9-0.2c0.9-0.4,1.5-1.2,1.5-2.5
	c0-1.9-1.3-2.9-3.3-2.9h-3.1v5.7h3V239.4z M206.2,248.9h3.6c1.9,0,3.5-1.1,3.5-3.1s-1.4-3.1-3.2-3.1h-4L206.2,248.9L206.2,248.9z"/>
<path class="st1" d="M225,252.8v-23h4.9v18.9h8.9v4.1H225z"/>
<path class="st1" d="M255,229.3c6.9,0,12.1,5.3,12.1,12s-5.1,12-12.1,12s-12.1-5.2-12.1-12S248,229.3,255,229.3L255,229.3z
	 M255,248.7c4.2,0,7.1-3.3,7.1-7.5s-2.9-7.5-7.1-7.5s-7.1,3.4-7.1,7.5S250.8,248.7,255,248.7L255,248.7z"/>
<path class="st1" d="M275.5,229.8l3.1,7.8c0.8,1.9,1.4,3.7,1.9,5.2c0.4-0.8,1.1-2.6,1.7-4l1.3-2.9l2.7-5.9h0.2
	c2,4.4,4.4,9.6,5.6,12.9c0.8-2.1,3.7-9.5,5.1-13.1h5.5l-10.3,23.4h-0.2l-4.5-10.3c-0.4-0.9-0.8-1.9-1.2-2.8
	c-0.4,0.9-0.8,1.9-1.1,2.8l-4.5,10.3h-0.2L270,229.8H275.5L275.5,229.8z"/>
<path class="st1" d="M307.8,252.8v-23h4.9v23H307.8z"/>
<path class="st1" d="M339.6,253.2L327,241l-1.5-1.3v13.1h-4.8v-23.4h0.2l12.6,12.1l1.5,1.3v-13.1h4.9v23.4L339.6,253.2L339.6,253.2z
	"/>
<path class="st1" d="M358.5,253.3c-7.3,0-12.4-5.2-12.4-12s5.1-12,12.3-12c3.4,0,5.9,1,7.2,1.6v4.5c-1.5-0.7-3.8-1.6-6.9-1.6
	c-4.8,0-7.6,3.4-7.6,7.5s2.9,7.5,7.4,7.5c1.1,0,2.3-0.2,3.1-0.4v-6.1h4.7v9.3C364.3,252.6,361.4,253.3,358.5,253.3L358.5,253.3z"/>
<path class="st1" d="M381.8,252.8v-23h4.9v23H381.8z"/>
<path class="st1" d="M413.6,253.2L400.9,241l-1.5-1.3v13.1h-4.8v-23.4h0.2l12.6,12.1l1.5,1.3v-13.1h4.9v23.4L413.6,253.2
	L413.6,253.2z"/>
<path class="st1" d="M426.5,233.9v5.5h7.7v4.1h-7.7v9.3h-4.9v-23h14v4.1L426.5,233.9L426.5,233.9z"/>
<path class="st1" d="M441.9,252.8v-23h4.9v18.9h8.9v4.1H441.9L441.9,252.8z"/>
<path class="st1" d="M470.1,229.4h0.2l11.2,23.4h-5.1l-1.9-4.1h-8.6l-1.8,4.1H459L470.1,229.4L470.1,229.4z M473,245.3
	c-1.1-2.4-2.1-4.8-2.8-6.9c-0.7,1.6-1.9,4.7-2.9,6.9H473z"/>
<path class="st1" d="M494.3,233.9v18.9h-4.9v-18.9H483v-4.1h17.8v4.1H494.3L494.3,233.9z"/>
<path class="st1" d="M513.3,229.4h0.2l11.2,23.4h-5.2l-1.9-4.1H509l-1.8,4.1h-5.1L513.3,229.4z M516.2,245.3
	c-1.1-2.4-2.1-4.8-2.8-6.9c-0.7,1.6-1.9,4.7-2.9,6.9H516.2z"/>
<path class="st1" d="M546.8,246.1c0,4.4-3.6,6.7-8.8,6.7h-8.1v-23h7.5c4.9,0,8.6,2.1,8.6,6.5c0,2.2-1.3,3.8-2.9,4.5
	C545,241.4,546.8,243.5,546.8,246.1L546.8,246.1z M537.5,239.4c0.7,0,1.3,0,1.9-0.2c0.9-0.4,1.5-1.2,1.5-2.5c0-1.9-1.3-2.9-3.3-2.9
	h-3.1v5.7h3V239.4z M534.6,248.9h3.7c2,0,3.5-1.1,3.5-3.1s-1.4-3.1-3.2-3.1h-4V248.9L534.6,248.9z"/>
<path class="st1" d="M553.3,252.8v-23h4.9v18.9h8.9v4.1H553.3z"/>
<path class="st1" d="M573.1,252.8v-23h14.8v4.1H578v5.2h8.4v4H578v5.6h10.4v4.1L573.1,252.8L573.1,252.8z"/>
<path class="st1" d="M106.8,279.1c0,4.4-3.6,6.7-8.8,6.7h-8.1v-23h7.5c4.9,0,8.6,2.1,8.6,6.5c0,2.2-1.3,3.8-2.9,4.5
	C105,274.4,106.8,276.5,106.8,279.1L106.8,279.1z M97.5,272.4c0.7,0,1.3,0,1.9-0.2c0.9-0.4,1.5-1.2,1.5-2.5c0-1.9-1.3-2.9-3.3-2.9
	h-3.1v5.7h3V272.4z M94.6,281.9h3.7c1.9,0,3.5-1.1,3.5-3.1s-1.4-3.1-3.2-3.1h-4V281.9L94.6,281.9z"/>
<path class="st1" d="M124.3,262.3c6.9,0,12.1,5.3,12.1,12s-5.1,12-12.1,12c-7,0-12.1-5.2-12.1-12S117.3,262.3,124.3,262.3z
	 M124.3,281.7c4.2,0,7.1-3.3,7.1-7.5s-2.9-7.5-7.1-7.5c-4.2,0-7.1,3.4-7.1,7.5S120.1,281.7,124.3,281.7z"/>
<path class="st1" d="M150.7,262.4h0.2l11.2,23.4H157l-1.9-4.1h-8.6l-1.8,4.1h-5.1L150.7,262.4L150.7,262.4z M153.6,278.3
	c-1.1-2.4-2.1-4.8-2.8-6.9c-0.7,1.6-1.9,4.7-2.9,6.9H153.6z"/>
<path class="st1" d="M175.1,266.9v18.9h-4.9v-18.9h-6.4v-4.1h17.8v4.1H175.1z"/>
<path class="st1" d="M186.6,284.9v-4.7c1.6,0.8,3.7,1.5,5.8,1.7c0.7,0,1.4,0,2.1-0.1c1.8-0.3,2.8-0.9,2.8-2c0-1.5-1.4-2.3-4.5-3.5
	c-4-1.5-6.4-3.2-6.4-7.2s3.4-6.7,8.4-6.7c2.3,0,4.6,0.5,6,1.1v4.5c-1.3-0.8-3.5-1.4-5.6-1.4c-2.4,0-3.9,0.9-3.9,2.4
	c0,1.3,1.2,2.3,4.4,3.5c4,1.6,6.5,3.3,6.5,7.1c0,4.2-3.1,6.7-8.6,6.7C190.8,286.2,188.3,285.6,186.6,284.9L186.6,284.9z"/>
<path class="st1" d="M234.4,279.1c0,4.4-3.6,6.7-8.8,6.7h-8.1v-23h7.5c4.9,0,8.6,2.1,8.6,6.5c0,2.2-1.3,3.8-2.9,4.5
	C232.7,274.4,234.4,276.5,234.4,279.1L234.4,279.1z M225.2,272.4c0.7,0,1.3,0,1.9-0.2c0.9-0.4,1.5-1.2,1.5-2.5
	c0-1.9-1.3-2.9-3.3-2.9h-3.1v5.7h3V272.4z M222.2,281.9h3.6c1.9,0,3.5-1.1,3.5-3.1s-1.4-3.1-3.2-3.1h-4L222.2,281.9L222.2,281.9z"/>
<path class="st1" d="M243.6,262.8l5.3,9.4l5.3-9.4h5.6l-8.4,14.1v8.9h-4.9v-8.9l-8.4-14.1H243.6L243.6,262.8z"/>
<path class="st1" d="M279.5,273.9l-1.2-1.1v13h-4.7v-23.4h0.1l11,11.1l11-11.1h0.1v23.4h-4.7v-13l-1.2,1.1c-1.7,1.9-3.4,3.7-5.1,5.5
	C283,277.6,281.3,275.8,279.5,273.9L279.5,273.9z"/>
<path class="st1" d="M312.5,262.4h0.2l11.2,23.4h-5.1l-1.9-4.1h-8.6l-1.8,4.1h-5.1L312.5,262.4L312.5,262.4z M315.4,278.3
	c-1.1-2.4-2.1-4.8-2.8-6.9c-0.7,1.6-1.9,4.7-2.9,6.9H315.4z"/>
<path class="st1" d="M349,262.8l-8,11.4l8.1,11.6h-5.5l-5.2-7.8l-5.2,7.8h-5.5l8.1-11.6l-8-11.4h5.5l5.1,7.6l5.1-7.6H349L349,262.8z
	"/>
<path class="st1" d="M355.6,285.8v-23h4.9v23H355.6z"/>
<path class="st1" d="M374.7,273.9l-1.2-1.1v13h-4.7v-23.4h0.1l11,11.1l11-11.1h0.1v23.4h-4.7v-13l-1.2,1.1c-1.7,1.9-3.4,3.7-5.1,5.5
	C378.1,277.6,376.4,275.8,374.7,273.9L374.7,273.9z"/>
<path class="st1" d="M399.1,285.8v-23h14.8v4.1H404v5.2h8.4v4H404v5.6h10.4v4.1L399.1,285.8L399.1,285.8z"/>
<path class="st1" d="M438.1,262.8c5.3,0,8.9,2.7,8.9,7.6c0,3.4-1.9,5.6-4.4,6.6l4.8,8.9h-5.2l-4.1-8.1h-3.3v8.1H430v-23L438.1,262.8
	L438.1,262.8z M434.9,266.9v6.9h3.5c2.2,0,3.7-1.1,3.7-3.4s-1.6-3.5-3.8-3.5H434.9L434.9,266.9z"/>
<path class="st1" d="M454.2,285.8v-23h4.9v23H454.2z"/>
<path class="st1" d="M484.8,268.4c-1.4-0.7-3.5-1.6-6.4-1.6c-4.7,0-7.6,3.4-7.6,7.5s2.9,7.5,7.5,7.5c3,0,5.2-0.9,6.7-1.6v4.6
	c-1.2,0.6-3.8,1.5-7,1.5c-6.9,0-12-5.2-12-12s5.1-12,12.2-12c3.2,0,5.5,1,6.7,1.6v4.5H484.8z"/>
<path class="st1" d="M506.1,285.8v-9.6h-9.5v9.6h-4.9v-23h4.9v9.3h9.5v-9.3h4.9v23H506.1z"/>
<path class="st1" d="M527.7,262.4h0.2l11.2,23.4H534l-1.9-4.1h-8.6l-1.8,4.1h-5.2L527.7,262.4L527.7,262.4z M530.7,278.3
	c-1.1-2.4-2.1-4.8-2.8-6.9c-0.7,1.6-1.9,4.7-2.8,6.9H530.7z"/>
<path class="st1" d="M552.8,262.8c5.3,0,8.9,2.7,8.9,7.6c0,3.4-1.9,5.6-4.4,6.6l4.8,8.9h-5.2l-4.1-8.1h-3.3v8.1h-4.8v-23
	L552.8,262.8L552.8,262.8z M549.5,266.9v6.9h3.5c2.2,0,3.7-1.1,3.7-3.4s-1.6-3.5-3.8-3.5H549.5L549.5,266.9z"/>
<path class="st1" d="M568.8,285.8v-23h7.4c7.8,0,12.8,4.8,12.8,11.5s-4.9,11.5-12.7,11.5H568.8L568.8,285.8z M573.8,266.9v14.8h2.4
	c4.9,0,7.8-3.2,7.8-7.4s-2.9-7.4-7.9-7.4H573.8L573.8,266.9z"/>
<rect x="97" y="320.2" class="st1" width="487.5" height="3.4"/>
<g>
	<path class="st1" d="M107.4,371.6v-9.4h-8.1v9.4h-7.1v-24.3h7.1v9h8.1v-9h7.1v24.3H107.4z"/>
	<path class="st1" d="M120,347.4h16.3v5.9H127v3.2h7.9v5.6H127v3.6h9.7v5.9H120V347.4z"/>
	<path class="st1" d="M158.8,347.4v5.9h-6.2v18.4h-7.1v-18.4h-6.2v-5.9H158.8z"/>
	<path class="st1" d="M188.3,355.9c0,5.8-4.3,8.5-10.4,8.5h-1.2v7.2h-7.1v-24.3h8.3C184,347.4,188.3,350.1,188.3,355.9z
		 M176.7,353.3v5.2h1.6c1.5,0,2.9-0.6,2.9-2.6c0-1.9-1.3-2.6-2.9-2.6H176.7z"/>
	<path class="st1" d="M191.9,371.6v-24.3h7.1v18.4h8.3v5.9H191.9z"/>
	<path class="st1" d="M211.2,347.4h16.3v5.9h-9.2v3.2h7.9v5.6h-7.9v3.6h9.7v5.9h-16.8V347.4z"/>
	<path class="st1" d="M241.4,365.7h9.7v5.9h-20.4l10.5-18.4h-9.2v-5.9h19.9L241.4,365.7z"/>
	<path class="st1" d="M262.8,371.6h-7.1v-24.3h7.1V371.6z"/>
	<path class="st1" d="M268.4,347.4h16.3v5.9h-9.2v3.2h7.9v5.6h-7.9v3.6h9.7v5.9h-16.8V347.4z"/>
	<path class="st1" d="M301.9,371.6l-3.6-7.6h-2v7.6h-6.9v-24.3h9.1c6,0,10.2,2.8,10.2,8.5c0,3.4-1.6,5.8-4.3,7.1l4.7,8.7H301.9z
		 M296.3,353.3v5.2h2.6c1.4,0,2.7-0.6,2.7-2.6c0-1.9-1.3-2.6-2.7-2.6H296.3z"/>
	<path class="st1" d="M335.6,347.4h7.8L330.6,372h-0.3l-12.7-24.6h7.8l3,6.4c0.8,1.8,1.7,3.8,2.1,5h0.1c0.3-1.2,1.2-3.2,2.1-5
		L335.6,347.4z"/>
	<path class="st1" d="M355.1,368.4h-7.4l-1.5,3.2h-7.3l12.3-24.6h0.3l12.3,24.6h-7.3L355.1,368.4z M349.7,363.9h3.5
		c-0.6-1.4-1.5-3.6-1.7-4.5h-0.1C351.2,360.2,350.3,362.4,349.7,363.9z"/>
	<path class="st1" d="M374,360.7v10.9h-6.9V347h0.3l13.9,11.2v-10.9h6.9V372h-0.3L374,360.7z"/>
	<path class="st1" d="M400.8,347.4h16.3v5.9h-9.2v3.2h7.9v5.6h-7.9v3.6h9.7v5.9h-16.8V347.4z"/>
	<path class="st1" d="M421.9,347.4h16.3v5.9H429v3.2h7.9v5.6H429v3.6h9.7v5.9h-16.8V347.4z"/>
	<path class="st1" d="M449.8,360.7v10.9H443V347h0.3l13.9,11.2v-10.9h6.9V372h-0.3L449.8,360.7z"/>
	<path class="st1" d="M491.1,357.9l8.4,13.8h-7.8l-5.4-9.3l-2.5,3.1v6.2h-7.1v-24.3h7.1v10l7.4-10h8.2L491.1,357.9z"/>
	<path class="st1" d="M516.2,368.4h-7.4l-1.5,3.2H500l12.3-24.6h0.3l12.3,24.6h-7.3L516.2,368.4z M510.8,363.9h3.5
		c-0.6-1.4-1.5-3.6-1.7-4.5h-0.1C512.3,360.2,511.4,362.4,510.8,363.9z"/>
	<path class="st1" d="M527.8,365.8c0.4,0.2,1.4,0.5,2.3,0.5c1.6,0,2.5-0.7,2.5-2.3v-16.6h7.1v16.7c0,6-3.3,8.1-8.3,8.1
		c-1.7,0-3-0.3-3.6-0.6V365.8z"/>
	<path class="st1" d="M559,368.4h-7.4l-1.5,3.2h-7.3l12.3-24.6h0.3l12.3,24.6h-7.3L559,368.4z M553.5,363.9h3.5
		c-0.6-1.4-1.5-3.6-1.7-4.5h-0.1C555.1,360.2,554.2,362.4,553.5,363.9z"/>
	<path class="st1" d="M585.3,357.9l8.4,13.8h-7.8l-5.4-9.3l-2.5,3.1v6.2h-7.1v-24.3h7.1v10l7.4-10h8.2L585.3,357.9z"/>
</g>
<g>
	<path class="st1" d="M91.4,401.7v-17h5.9c6.1,0,9.8,3.6,9.8,8.5c0,4.9-3.7,8.5-9.8,8.5H91.4z M96.3,388.9v8.7h0.9
		c3.3,0,4.9-2.1,4.9-4.3c0-2.2-1.6-4.3-4.9-4.3H96.3z"/>
	<path class="st1" d="M110.1,384.8h11.3v4.1H115v2.3h5.5v3.9H115v2.5h6.8v4.1h-11.7V384.8z"/>
	<path class="st1" d="M129.7,384.8h10.8v4.1h-5.8v2.5h4.9v4h-4.9v6.3h-4.9V384.8z"/>
	<path class="st1" d="M143.2,384.8h4.9v10c0,1.8,0.9,2.8,2.7,2.8s2.7-1,2.7-2.8v-10h4.9v10.5c0,4-2.8,6.8-7.6,6.8
		c-4.8,0-7.6-2.7-7.6-6.8V384.8z"/>
	<path class="st1" d="M167,394.1v7.6h-4.8v-17.2h0.2l9.7,7.8v-7.6h4.8v17.2h-0.2L167,394.1z"/>
	<path class="st1" d="M189,384.4c2.2,0,3.6,0.5,4.8,1.1v4.5c-0.9-0.5-2.4-1.1-4.3-1.1c-3,0-4.6,2.1-4.6,4.3c0,2.3,1.5,4.3,4.3,4.3
		c2.1,0,3.7-0.6,4.7-1.1v4.5c-1.2,0.6-3.1,1.1-5.2,1.1c-5.1,0-8.8-3.9-8.8-8.8C180,388.4,183.7,384.4,189,384.4z"/>
	<path class="st1" d="M210,384.8v4.1h-4.3v12.8h-4.9v-12.8h-4.3v-4.1H210z"/>
	<path class="st1" d="M217.5,401.7h-4.9v-17h4.9V401.7z"/>
	<path class="st1" d="M229.5,384.4c5.3,0,9.1,4,9.1,8.8c0,4.9-3.7,8.8-9.1,8.8c-5.3,0-9-3.9-9-8.8
		C220.5,388.4,224.2,384.4,229.5,384.4z M229.5,397.6c2.5,0,4.1-2,4.1-4.3c0-2.2-1.6-4.3-4.1-4.3c-2.5,0-4.1,2.1-4.1,4.3
		C225.4,395.5,227.1,397.6,229.5,397.6z"/>
	<path class="st1" d="M246.4,394.1v7.6h-4.8v-17.2h0.2l9.7,7.8v-7.6h4.8v17.2h-0.2L246.4,394.1z"/>
	<path class="st1" d="M269.8,399.5h-5.2l-1,2.2h-5.1l8.6-17.2h0.2l8.6,17.2h-5.1L269.8,399.5z M266,396.3h2.4
		c-0.4-1-1.1-2.5-1.2-3.2h0C267.1,393.7,266.5,395.3,266,396.3z"/>
	<path class="st1" d="M278.2,401.7v-17h4.9v12.8h5.8v4.1H278.2z"/>
	<path class="st1" d="M296.6,401.7h-4.9v-17h4.9V401.7z"/>
	<path class="st1" d="M312.8,384.8v4.1h-4.3v12.8h-4.9v-12.8h-4.3v-4.1H312.8z"/>
	<path class="st1" d="M315.4,384.8h11.3v4.1h-6.4v2.3h5.5v3.9h-5.5v2.5h6.8v4.1h-11.7V384.8z"/>
	<path class="st1" d="M335.1,401.7h-4.9v-17h4.9V401.7z"/>
	<path class="st1" d="M351.3,384.8v4.1H347v12.8H342v-12.8h-4.3v-4.1H351.3z"/>
	<path class="st1" d="M369.5,384.8h5.4l-8.9,17.2h-0.2l-8.9-17.2h5.4l2.1,4.5c0.6,1.2,1.2,2.6,1.4,3.5h0c0.2-0.9,0.8-2.3,1.4-3.5
		L369.5,384.8z"/>
	<path class="st1" d="M383.1,399.5H378l-1,2.2h-5.1l8.6-17.2h0.2l8.6,17.2h-5.1L383.1,399.5z M379.3,396.3h2.4
		c-0.4-1-1.1-2.5-1.2-3.2h0C380.4,393.7,379.8,395.3,379.3,396.3z"/>
	<path class="st1" d="M396.3,394.1v7.6h-4.8v-17.2h0.2l9.7,7.8v-7.6h4.8v17.2H406L396.3,394.1z"/>
	<path class="st1" d="M415,384.8h11.3v4.1H420v2.3h5.5v3.9H420v2.5h6.8v4.1H415V384.8z"/>
	<path class="st1" d="M429.7,384.8h11.3v4.1h-6.4v2.3h5.5v3.9h-5.5v2.5h6.8v4.1h-11.7V384.8z"/>
	<path class="st1" d="M449.2,394.1v7.6h-4.8v-17.2h0.2l9.7,7.8v-7.6h4.8v17.2H459L449.2,394.1z"/>
	<path class="st1" d="M481,390.7c0,4-3,6-7.2,6h-0.9v5H468v-17h5.8C478,384.8,481,386.7,481,390.7z M472.9,388.9v3.6h1.1
		c1.1,0,2-0.4,2-1.8c0-1.3-0.9-1.8-2-1.8H472.9z"/>
	<path class="st1" d="M491.3,399.5h-5.2l-1,2.2H480l8.6-17.2h0.2l8.6,17.2h-5.1L491.3,399.5z M487.5,396.3h2.4
		c-0.4-1-1.1-2.5-1.2-3.2h0C488.5,393.7,487.9,395.3,487.5,396.3z"/>
	<path class="st1" d="M506.8,384.4c2.2,0,3.6,0.5,4.8,1.1v4.5c-0.9-0.5-2.4-1.1-4.3-1.1c-3,0-4.6,2.1-4.6,4.3c0,2.3,1.5,4.3,4.3,4.3
		c2.1,0,3.7-0.6,4.7-1.1v4.5c-1.2,0.6-3.1,1.1-5.2,1.1c-5.1,0-8.8-3.9-8.8-8.8C497.8,388.4,501.5,384.4,506.8,384.4z"/>
	<path class="st1" d="M524.9,392.1l5.9,9.6h-5.4l-3.8-6.5l-1.8,2.2v4.4h-4.9v-17h4.9v7l5.2-7h5.7L524.9,392.1z"/>
	<path class="st1" d="M541.5,401.7l-2.5-5.3h-1.4v5.3h-4.8v-17h6.4c4.2,0,7.1,2,7.1,6c0,2.4-1.1,4-3,4.9l3.3,6.1H541.5z
		 M537.6,388.9v3.6h1.8c1,0,1.9-0.4,1.9-1.8c0-1.3-0.9-1.8-1.9-1.8H537.6z"/>
	<path class="st1" d="M559.1,399.5H554l-1,2.2h-5.1l8.6-17.2h0.2l8.6,17.2h-5.1L559.1,399.5z M555.3,396.3h2.4
		c-0.4-1-1.1-2.5-1.2-3.2h0C556.4,393.7,555.7,395.3,555.3,396.3z"/>
	<path class="st1" d="M567.4,384.8h10.8v4.1h-5.8v2.5h4.9v4h-4.9v6.3h-4.9V384.8z"/>
	<path class="st1" d="M593.5,384.8v4.1h-4.3v12.8h-4.9v-12.8h-4.3v-4.1H593.5z"/>
</g>
</svg>
