<?xml version="1.0" encoding="utf-8"?>
<!-- Generator: Adobe Illustrator 28.0.0, SVG Export Plug-In . SVG Version: 6.00 Build 0)  -->
<svg version="1.1" id="Calque_1" xmlns="http://www.w3.org/2000/svg" xmlns:xlink="http://www.w3.org/1999/xlink" x="0px" y="0px"
	 viewBox="0 0 679.6 427.9" style="enable-background:new 0 0 679.6 427.9;" xml:space="preserve">
<style type="text/css">
	.st0{opacity:0.6;}
	.st1{fill:#FFFFFF;}
</style>
<path class="st0" d="M670.9,12.1l-9,2.2c-0.3-9.7-8.5-9.7-36.4-9.7c-15.3,0-24.1,9.3-28.2,15.1H77.1v408.1h525v-338L657,79l6.7-38.9
	c0,0,2.6-5,9.8-12.5C680.7,20.1,676.6,9.8,670.9,12.1z"/>
<path class="st1" d="M380.1,44.3c-4.3-3-9.5-6.3-15.4-7.7c-0.4-0.1-0.7-0.2-1.1-0.3c-6.7-2.7-14.1-4-22.5-4c-1.5,0-3,0-4.5,0.1
	c-1.1,0-2.2,0.3-3.4,0.8c-2.3,0.9-3.8,2.6-4.3,4.9c-0.2,1.1-0.6,2.1-1,3.3c-0.2,0.7-0.5,1.4-0.7,2.1c-0.3,0.8-0.5,1.8-0.6,2.8
	c-0.4,6.3-0.4,12.8,0.2,19.1c0.8,9.8,1.5,19.3,1.2,29c0,1.4-0.1,2.8-0.1,4.2c-0.1,2.5-0.2,5-0.2,7.5c0,1.6,0,3.2,0,4.8
	c0,6.3-0.1,12.8,0.1,19.2c0.2,6.6,0.6,13.3,1.1,19.8c0.2,2.6,0.3,5.2,0.5,7.7c0.1,1.5,0.2,3,0.3,4.5c0.2,2.3,0.3,4.8,0.4,7.1
	c0.1,1.7,0,3.4-0.2,5.3c-0.6,5.6-1,10.6-0.1,15.9c0.2,1.3,0.8,2.6,1.7,4.2c0.6,1,1.6,1.6,2.8,1.6c0.5,0,1-0.1,1.5-0.4
	c1.2-0.6,2.5-1.4,2.9-2.6c0.2-0.7,0.5-1.3,0.8-2c0.8-2,1.7-4,1.6-6.4c-0.1-1.1-0.1-2.2-0.2-3.2c-0.1-2.2-0.3-4.4-0.3-6.6
	c-0.1-5.9-0.1-12.2,0-18.4c0.1-5.2,0.3-10.5,0.5-15.7c0.1-3.1,0.2-6.2,0.3-9.3c0-0.6,0-1,0-1.4c0-0.3,0-0.6,0-0.8
	c0.2-0.1,0.5-0.1,0.9-0.2c0.4-0.1,0.8-0.2,1.3-0.2l1-0.2c4.4-0.9,9-1.9,13.2-4.1c0.5,1.5,0.9,3,1.4,4.4c1,3.3,2.1,6.8,3.4,10.1
	c3.6,9.5,6.7,19.3,9.8,28.8c0.5,1.7,1.1,3.4,1.6,5.2c1.7,5.4,3.7,11.2,6.6,16.6c1,1.9,2.3,3.5,3.8,4.8c0.7,0.6,1.7,1.1,2.6,1.2
	c0.2,0,0.5,0.1,0.7,0.1c1.4,0,2.7-0.6,3.6-1.6c1.1-1.2,1.6-2.8,1.5-4.6c-0.2-2.8-0.9-5.1-2.2-7.2c-0.9-1.4-1.4-2.4-1.8-3.5
	c-1.2-3.5-2.4-6.9-3.5-10.4c-1.1-3.2-2.1-6.4-3.2-9.6l-1-3c-1.6-4.7-3.3-9.5-5.1-14.2c-2.2-5.5-4.5-11-6.7-16.3
	c-0.9-2.1-1.8-4.2-2.6-6.3l0.1-0.1c0.5-0.3,0.8-0.6,1.2-0.8c4.1-2.6,7.6-5.9,10.5-9.8c2.2-3.1,4.9-6.7,7.3-10.6
	c4.8-7.6,7.6-14.8,8.6-21.8c0.8-5.6,1.1-13-2.7-19.5C388.5,51.7,384.6,47.4,380.1,44.3L380.1,44.3z M341.2,116.8c0-0.2,0-0.4,0-0.8
	c0.1-3.5,0.2-7,0.3-10.5l0.1-4.3c0-0.2,0-0.4-0.2-0.6l0.2-6.2c0.2-5.5,0.4-10.9,0.6-16.4c0.2-6.2,0-11.4-0.7-16.3
	c-0.2-1.7-0.3-3.6-0.3-5.3c0-1-0.1-1.9-0.1-2.9c-0.1-1.8-0.2-3.5-0.4-5.3l-0.2-2.5c0,0,0-0.1,0-0.2c0-0.3,0-0.6,0-0.9
	c0.2,0,0.5,0.1,0.9,0.1c1.2,0.2,2.5,0.3,3.7,0.5c2.8,0.4,5.8,0.8,8.6,1.3c6.8,1.3,13.1,4,18.9,7.9c0.7,0.5,1.4,1.2,1.9,1.8
	c0.4,0.5,0.9,1,1.3,1.4c0.7,0.8,1.3,1.5,2.1,2.3c3.4,3.2,4.6,7.3,3.9,13.4c-0.7,6-3,11.8-7.4,18.7c-1.3,2.1-2.7,4.1-4.1,6.1
	l-0.8,1.2c-2.8,4-6.2,7.3-10.1,9.6l-0.7,0.4c-0.9,0.5-1.8,1.1-2.7,1.7c-4.4,3.3-9.7,4.7-14.2,5.6
	C341.6,116.7,341.4,116.8,341.2,116.8L341.2,116.8z"/>
<path class="st1" d="M525.4,137.9c-0.2-8-0.2-16.1-0.2-23.9c0-5.2,0-10.4-0.1-15.7c0-4.6-0.3-9.3-0.5-13.8v-1.1
	c-0.1-2-0.2-3.9-0.3-5.9c-0.2-2.4-0.3-4.9-0.4-7.3c-0.3-9-1-16.4-2.3-23.2c-0.5-2.7-1.2-5.4-2-8.2c-0.7-2.2-2.4-3.6-4.5-3.6
	c-0.5,0-1,0.1-1.6,0.2c-1.8,0.5-3,1.9-3.5,4c-0.7,2.6-0.5,5.2-0.4,7.8v0.9c0.4,6.9,0.8,13.9,1.1,20.8l0.3,5.9
	c0.1,2.5,0.3,5.1,0.5,7.6c0,0.4,0,0.5,0,0.5S511.3,83,511,83c-3,0.4-6.2,1-10,1.9c-4.8,1.1-9.8,1.4-14.6,1.7H486c-0.1,0-0.1,0-0.2,0
	c0,0,0-0.1,0-0.2l-0.1-1c-0.2-2.8-0.3-5.5-0.5-8.2c-0.4-6.6-0.8-13.4-1.3-20.1c-0.3-4.1-1-8.2-1.7-12.2l-0.3-1.8
	c-0.2-1.2-0.7-2.4-1.6-3.7c-1-1.5-2.5-2.3-4.1-2.3c-1.5,0-2.9,0.7-3.9,2c-0.4,0.5-1.5,2-1.6,3.6c-0.2,2.4-0.2,5,0,8.2
	c0.3,7.6,0.7,15.8,1.2,25.2c0.2,4.3,0.5,8.7,0.8,12.5c0.1,1.8,0.3,3.7,0.5,5.6c0.2,2.8,0.5,5.8,0.7,8.7c0.1,2,0.2,4.1,0.2,6.2
	c0.1,3,0.1,6.2,0.5,9.2c0.6,6.3,1,12.7,1,19.7c0,4,0.2,8.2,0.5,12.3c0.5,6.9,1,13.3,1.6,19.5c0.6,6.1,1.2,11.6,1.9,16.9
	c0.3,2.1,1.1,4,1.8,5.5c0.7,1.6,2.7,2.6,4.2,2.6c0.5,0,1-0.1,1.3-0.3c1.4-0.8,3.3-2.1,3.4-4.7v-0.4c0-0.9,0.1-1.9,0.1-2.8
	c-0.2-5.5-0.5-11.3-0.8-17.2c-0.1-2-0.2-4-0.4-6.1c-0.1-1.7-0.2-3.4-0.3-5.1c-0.1-1.3-0.2-2.6-0.2-3.9c-0.2-3.4-0.5-6.9-0.5-10.4
	c0-8.3,0-17.8-0.9-27.2c-0.4-4.5-0.5-9.1-0.5-13.6c0-1.9,0-3.7-0.1-5.6c0-0.1,0-0.3,0-0.5c0.2,0,0.7,0,0.7,0c1.1,0,2.2-0.1,3.2-0.1
	c2.8-0.1,5.7-0.1,8.5-0.5c3.3-0.4,6.4-1.1,9.7-1.9c1-0.2,2-0.4,3-0.7c0,1.4,0.1,2.7,0.1,4.1c0.1,3.9,0.2,8,0.3,11.9
	c0.1,9,0.2,18.2,0.2,27v1.4c0.1,7.5,1,15,1.8,22.2c0.2,2,0.5,3.9,0.7,5.9c1,7.8,2,15.8,2.1,23.7c0,1.5,0.5,3,1,4.4l0.1,0.2
	c0.6,1.9,2.2,3,4.4,3.2c0.2,0,0.3,0,0.5,0c2.1,0,3.7-1.1,4.5-2.9c0.6-1.4,0.9-3.1,0.9-4.7c0.2-11.7-0.8-23.5-1.8-33.4
	C526.1,150.4,525.5,144.2,525.4,137.9L525.4,137.9z"/>
<path class="st1" d="M466.8,126.9c-0.1-4.4-0.5-9.2-1.1-15.1c-0.4-3.6-2.5-5.5-5.8-5.5c-0.4,0-0.8,0-1.1,0.1c-1,0.1-2,0.2-2.9,0.3
	c-0.9,0.1-1.8,0.2-2.8,0.3c-0.8,0.1-1.6,0.2-2.2,0.5c-2.9,0.9-4.7,3.3-4.5,5.9c0.2,2.4,2.2,4.5,5,5.2c0.5,0.1,1.1,0.2,1.5,0.2
	s0.7,0,1.1,0c0.2,0,0.4,0,0.6,0c0.3,0,0.6,0,0.8,0c0.1,0,0.2,0,0.3,0c0,0.2,0,0.4,0,0.7v0.6c0,0.7,0,1.4,0,2.2c0,0.7,0,1.3,0,2
	l0.1,2.2c0.2,5.9,0.4,11.9,0.6,17.9c0.1,2.4,0.2,5.1,0.6,7.6c0.9,6.5,1,13.5,0.3,21.3c-0.2,2.3-0.6,4.4-1.2,6.4
	c-0.6,2.2-2.4,3.5-4.5,3.5c-1,0-1.9-0.3-2.8-0.8l-0.6-0.3c-0.6-0.4-1.2-0.7-1.8-1.1c-2.1-1.5-3.8-3.5-5-5.8c-1.3-2.6-2-5.4-2.1-8.3
	c-0.1-2.9-0.5-15.1-0.5-15.1c0-0.7,0-1.3,0-2c0-1.3,0-2.7-0.1-4.1c-0.4-4.9-0.8-9.9-1.2-14.8c-0.2-2.8-0.5-5.7-0.7-8.5
	c-0.1-1.4-0.2-2.8-0.3-4.2c-0.2-2.6-0.4-5.2-0.7-7.8c-0.4-3.7-0.6-7.6-0.4-12.3c0.1-6.2,0.2-12.5,0.2-18.5c0-2.2,0-4.3,0-6.5
	c0-0.3,0-0.7-0.1-0.9c0-0.2,0-0.3-0.1-0.4c-0.1-1.4-0.2-2.8-0.3-4.1c-0.2-3.2-0.5-6.6-0.5-9.8c0-4.2,1-8,3.2-11.2
	c0.6-0.8,0.9-1.2,1.1-1.2c0.4,0,1.1,0.4,1.4,0.5c2.9,1.4,5.2,3.5,6.8,6.1c0.2,0.3,0.4,0.7,0.6,1c0.6,1,1.2,2.1,2.1,3.1
	c0.9,1.1,2.1,1.7,3.4,1.7s2.6-0.6,3.5-1.8c0.8-1,1.4-2.4,1.5-3.6c0.4-3.5-0.7-6.7-3.1-9.5c-4.1-4.7-8.6-7.7-13.8-9.1
	c-1-0.3-2-0.4-2.9-0.4c-2.7,0-5.1,1.1-7.3,3.5c-4.5,4.9-7.1,10.9-7.9,18c-0.4,3.5-0.2,7-0.1,10.4c0,1.1,0.1,2.2,0.1,3.3
	c0,1.7,0.1,3.5,0.2,5.2c0.1,1.6,0.2,3.3,0.2,4.9c0.1,2.4,0,4.8,0,7.2c0,0.9,0,1.8,0,2.7c-0.1,0.1-0.1,0.3-0.1,0.4c0,0,0,4.9,0,6.2
	c0,1.3,0,2.6,0,3.9c0,2.8-0.1,5.8,0,8.7c0.2,4.3,0.5,8.6,1,13.3c0.2,2.2,0.5,4.4,0.7,6.5c0.2,1.7,0.4,3.4,0.6,5.1l0.3,2.6
	c0.5,4.8,1,9.8,1.4,14.8c0.2,2.5,0.3,5.1,0.5,7.6c0.2,3.4,0.3,6.9,0.7,10.3c0.5,5.2,1.8,11.8,7.1,16.9c0.2,0.2,0.4,0.4,0.5,0.7
	c0.2,0.2,0.4,0.5,0.6,0.7c4.7,5.1,9.2,7.5,14.8,7.8c0.3,0,0.6,0,1,0c6.6,0,12.1-3.8,14.2-9.8c1-2.9,1.7-6.1,2.1-9.4
	c1-8.7,0.8-17.9-0.5-29.1C467.4,138.5,466.9,132.5,466.8,126.9L466.8,126.9z"/>
<path class="st1" d="M213.8,89.4c-1.5-0.8-3.1-1.3-4.7-1.3c-0.6,0-1.3-0.1-1.9-0.1c-1.7,0-3.6,0.1-5.8,0.3c-2.1,0.2-4.1,0.5-6.2,0.8
	c-0.6,0.1-1.1,0.2-1.7,0.2c0-0.2,0-0.3,0-0.5c-0.1-1.2-0.2-2.3-0.2-3.5c-0.1-2.9-0.2-5.7-0.3-8.6l-0.1-4.2l-0.2-6.1
	c-0.2-5-0.3-10-0.5-14.9c0-0.1,0-0.2,0-0.3c0.1,0,0.3,0,0.5,0c0.6,0,1.1,0.1,1.7,0.2c1.4,0.1,2.8,0.3,4.3,0.3h0.3
	c9.6-0.1,19.5-0.3,29.4-0.6c6.4-0.2,13-1.4,19.4-3.7c1.3-0.4,2.2-0.9,3.1-1.4c1.4-0.9,1.6-1.8,1.5-2.4c-0.1-0.6-0.4-1.5-1.9-2.2
	c-0.5-0.2-1-0.4-1.4-0.5c-0.4-0.1-0.9-0.3-1.3-0.5c-4.8-2.1-9.4-3.1-13.9-3.1c-0.2,0-0.4,0-0.7,0c-6.2,0.1-12.5,0.2-18.7,0.4
	c-3.1,0-6.3,0.1-9.4,0.2h-0.4c-0.5,0-1.1,0-1.7,0.1c-3,0.8-6.1,0.9-9.3,0.9c-2.4,0.1-4.9,0.1-7.4,0.5c-2.4,0.4-5.6,1.4-5.9,5.9
	l-0.2,2.7c-0.4,7.2-0.9,14.5-0.5,21.9c0.5,8.7,0.8,17.5,1,26c0.1,3.5,0.2,7.1,0.4,10.6c0,0.5,0,1,0.1,1.5c0.1,1.4,0.1,2.8,0.1,4.1
	c-0.8,13-0.6,26.2,0.5,39.4c0.1,1.1,0.1,2.2,0.2,3.3c0.1,1.1,0.1,2.1,0.2,3.2c0.2,2.2,0.4,4.4,0.5,6.5c0.3,3.7,0.6,7.6,0.9,11.3
	c0.2,2.6,0.2,5.3,0.3,7.9c0.1,1.8,0.1,3.6,0.2,5.3c0.2,3.7,1.4,6.7,3.6,9c1.1,1.1,2,1.3,2.7,1.3c0.8,0,1.9-0.3,2.8-1.8
	c0.6-1,1.4-2.5,1.6-4.1c0.4-3.8,0.9-7.8,0.9-11.7c0-6.4-0.2-12.9-0.4-19.3l-0.1-3.4c-0.1-3.2-0.3-6.5-0.5-9.7l-0.1-0.7
	c-0.1-1.4-0.2-2.8-0.3-4.2c-0.2-2.4-0.4-5-0.5-7.4c-0.1-8.3-0.1-16.8-0.1-25c0-3.2,0-6.4,0-9.7c0-0.1,0-0.3,0-0.4s0-0.1,0-0.2
	c0.1-0.1,0.1-0.2,0.2-0.2c0.1,0,0.2,0,0.4,0s0.4,0,0.6,0c0.3,0,0.5,0,0.8,0c0.1,0,0.2,0,0.3,0l2.6-0.1c3.3-0.1,6.6-0.3,9.9-0.5
	c2.3-0.2,4.3-0.9,5.9-2.1c1.8-1.4,2.8-3.3,2.6-5.2C216.9,92.1,215.7,90.4,213.8,89.4L213.8,89.4z"/>
<path class="st1" d="M174.4,39.2c-0.8-0.6-1.9-1.2-3-1.4c-2.3-0.4-4.5-0.6-6.6-0.6c-0.2,0-0.4,0-0.6,0c-1,0-2,0.1-3,0.1
	c-0.9,0.1-1.8,0.1-2.6,0.1c-2.8,0-5.6,0-8.4,0.1c-3.7,0-7.4,0-11.1,0.1c-1.6,0-3.2,0.1-4.7,0.2c-1.5,0.1-3.1,0.2-4.6,0.2h-0.7
	c-2.7,0-5.4,0.1-8.1,1.1c-0.2,0.1-0.6,0.1-0.9,0.1h-0.2c-3.8,0-5.9,1.8-6.3,5.5c-0.4,3.1-0.6,6-0.5,8.7c0,2.6,0.1,5.2,0.2,7.7
	c0.1,2.8,0.2,5.6,0.2,8.4c0,9.5-0.1,19.3-0.3,29.9c-0.1,6.2-0.3,12.2-0.5,19.2c-0.1,3.3-0.2,6.8-0.3,10.6l0.2,3.4
	c0.2,3.6,0.3,8,0.6,12.4c0.3,6.4,0.7,11.7,1.2,16.6c0.2,2,0.7,3.9,1.2,5.8c0.7,2.6,2.4,4.1,5.1,4.8c4.6,1.1,9.2,1.5,13.1,1.8
	c2.6,0.2,6,0.4,9.4,0.4s6.8-0.2,9.8-0.6c3.2-0.5,6.6-1.2,9.5-3.2c1.3-0.9,2-1.9,2.1-3s-0.4-2.2-1.6-3.3c-1.6-1.6-3.6-2.6-5.7-2.8
	c-2.9-0.3-5.6-0.6-8.3-0.6c-0.5,0-1,0-1.4,0c-1.8,0.1-3.7,0.1-5.1,0.1h-4.2c-4.2,0-7.8,0.1-11.4,0.6c-0.3,0-0.7,0.1-0.9,0.1
	c-0.1-0.2-0.2-0.6-0.2-1c-0.2-1-0.3-2-0.3-2.9c0-2.6-0.1-5.3-0.1-8c0-2.5,0-4.9-0.1-7.4c0-1.2-0.1-2.4-0.1-3.6
	c-0.1-1.9-0.2-3.9-0.1-5.8c0.1-3.1,0.3-6.3,0.5-9.4c0.1-1.4,0.2-2.9,0.3-4.3c0.2-3.6,0.4-7.3,0.6-10.9c0-0.2,0-0.4,0-0.5h0.7
	c0.5,0,1,0,1.5,0c0.7,0,1.3,0.1,2,0.1s1.3,0,1.9-0.1c2.7-0.3,5.5-0.7,8.3-1.3c2.3-0.5,4.2-1.7,5.3-3.7c1.4-2.3-0.1-3.5-0.5-3.8
	l-0.4-0.3c-2.1-1.4-4.4-2.9-7.2-3.1c-0.4,0-0.8,0-1.3,0c-1.8,0-3.7,0.2-5.4,0.3h-0.2c-0.8,0.1-1.5,0.3-2.3,0.4
	c-0.4,0.1-0.8,0.2-1.2,0.3c-0.2,0-0.4,0.1-0.6,0.1c0-0.1,0-0.3,0-0.5c0-0.4,0.1-0.8,0.1-1.2c0.1-1,0.2-2,0.2-3c0-4.2,0.1-8.7,0-14.3
	c0-1.8-0.1-3.4-0.2-4.8c-0.3-3.5-0.5-7-0.8-10.5c-0.3-4.2-0.7-8.4-1-12.6c0-0.1,0-0.5,0-0.7c0.3,0,0.6,0,1,0.1
	c3.5,0.3,7.1,0.6,10.9,0.8c1.9,0.1,3.7,0.1,5.5,0.2c0.7,0,1.4,0,2.1,0c1.8,0,3.6,0.1,5.4,0.1c3.2,0.1,6.6,0.2,9.9,0.2
	c1.1,0,2.2,0,3.3,0c4.8-0.1,8.7-1.6,11.8-4.3c1.6-1.5,1.9-2.8,1.8-3.7C176.6,41.8,176.1,40.5,174.4,39.2L174.4,39.2z"/>
<path class="st1" d="M591,41.1c0-0.1,0.1-0.1,0.1-0.2c0.2-0.2,0.2-0.4,0.2-0.7c0-1.9-0.3-3.8-3.2-4.3c-2.8-0.4-5.6-0.9-8.4-0.9
	c-4.2-0.1-8.3-0.1-12.3-0.1h-4.3c-1.7,0-3.6,0-5.4,0.2c-6,0.8-12.2,1.6-18.1,2.4l-3,0.4c-1.4,0.2-2.7,0.4-4,0.7
	c-2,0.5-3.1,1.8-3.2,3.5c0,1.8,1.1,3.2,3,3.7c1.4,0.4,3,0.7,4.5,0.8c3.7,0.3,6.8,0.5,9.7,0.5c2.5,0,4.9-0.1,7.1-0.3
	c0.4,0,0.7-0.1,1-0.1c0,0.3,0,0.7,0.1,1c0.5,11.7,0.9,23.5,1.4,35.2v1.2c0.1,3.6,0.3,7.2,0.4,10.7l0.2,4.9c0.1,2.4,0.2,4.7,0.3,7.1
	c0.2,5.1,0.5,10.4,0.5,15.5c0,14.1,0.1,31.7,1.7,48.5c0.5,4.9,1,9.9,1.6,14.8l0.4,3.4c0.1,0.7,0.2,1.6,0.6,2.4
	c1,1.8,2.4,2.8,4.2,2.9h0.1c1.8,0,3.6-1.5,4.1-3.6c0.4-1.4,0.7-2.9,0.5-4.3c-0.3-2.3-0.2-4.6-0.1-6.9c0.1-1.2,0.1-2.5,0.1-3.8
	c0-2.3-0.1-4.6-0.1-6.9c-0.1-2.9-0.1-5.9-0.1-8.9c0-6.7,0-13.8,0.2-20.8c0.4-14.2,0.2-29.3-0.8-49c-0.2-3.6-0.3-7.2-0.5-10.9
	c-0.2-4.7-0.4-9.6-0.7-14.4c-0.3-5-0.7-10-1.2-14.9l-0.3-3c0-0.1,0-0.1,0-0.2h0.8c2.3,0,4.6-0.1,7-0.2c2.3-0.2,4.8-0.3,7.3-0.7
	c2.7-0.4,5.1-1.5,7.2-3C590.4,42,590.7,41.4,591,41.1L591,41.1z"/>
<path class="st1" d="M156.5,185.6c-1.4-1-3-1.8-4.4-2c-2.4-0.4-4.8-0.5-7.2-0.5c-0.9,0-1.8,0-2.7,0c-1.2,0-2.3,0-3.5,0
	c-1.1,0-2.3,0-3.5,0c-1.3,0-2.6,0-4,0c-1.3,0-2.7,0-4,0c-1.5,0-2.8,0-4.1,0.1c-4.5,0.2-9.1,0.5-13.5,0.8c-2.7,0.2-5.4,0.4-8.1,0.5
	h-0.3c-0.5,0-0.9,0.1-1.3,0.1h0.2c0-0.2,0-0.5,0-0.8V183c0.1-8.8,0.2-17.6,0.3-25.2l0.1-7.4v-34.9c0-1.5,0-3.1,0-4.6
	c0-3.2,0-6.4,0-9.7c0.1-4.1,0.1-8.2,0.2-12.3c0-2,0.1-3.9,0.1-5.9c0-1.2,0-2.4,0-3.6c0-2.6,0-5.2,0.3-7.8c0.4-3.6,0.3-7.4-0.3-12.2
	c-0.1-0.5-0.1-1-0.1-1.4c-0.1-0.7-0.1-1.3-0.2-2l-0.2-1.3c-0.5-3.3-1-6.7-1.6-10c-0.2-1.2-0.9-2.3-1.5-3c-0.8-1-2.1-1.6-3.4-1.6
	c-1,0-1.8,0.4-2.3,1c-0.2,0.2-0.4,0.5-0.6,0.7c-1.1,1.4-2.4,2.9-2.3,5.2c0,1.2,0,2.4-0.1,3.7c-0.1,1.2-0.2,2.5-0.1,3.8
	c0.2,6.2,0.4,12.6,0.7,18.5c0.1,1.3,0.2,2.6,0.3,3.9c0.2,1.7,0.3,3.5,0.3,5.2c0.1,9,0.1,17.9,0.1,26.9c0,6.6,0,13.1,0.1,19.7
	c0,1.7,0.1,3.3,0.2,4.9c0.1,1.5,0.1,3,0.2,4.4c0,2.5,0,5.1,0,7.6c0,2.6,0,5.2,0,7.8c0.1,5.1,0.2,10.2,0.2,15.3
	c0.1,2.6,0.1,5.2,0.1,7.9c0.1,3.4,0.1,6.8,0.1,10.1c0,0.5-0.1,1.1-0.2,1.8c-0.6,2.5-0.1,4,0.6,4.9c0.6,0.9,1.8,1.9,4.3,2.1
	c5.2,0.5,10.4,0.8,14.3,1c0.2,0,0.5,0,0.8,0c0.8,0,1.6-0.1,2.4-0.1c0.7-0.1,1.4-0.1,2.1-0.1c3.2,0,6.4,0,9.6,0
	c5.3,0,10.8,0,16.2-0.1c4-0.1,8-0.4,11-0.7c1.3-0.1,2.8-0.6,4.1-1.3c1.8-1,2.9-2.5,3-4.2C159,188.5,158.2,186.9,156.5,185.6
	L156.5,185.6z"/>
<path class="st1" d="M283.3,70.4c0.9-0.4,1.4-1.1,1.5-1.9s-0.4-1.6-1.2-2.1c-0.9-0.6-1.7-1-2.5-1.1c-1.4-0.3-3.2-0.6-5-0.7
	c-1.9-0.1-3.8-0.2-5.6-0.2c-1.1,0-2.2,0-3.2-0.1c-1.6-0.1-3.3-0.1-4.9-0.2c-3.2-0.1-6.4-0.3-9.7-0.3c-0.4,0-0.9,0-1.3,0
	c-2.8,0-5.7,0.1-8.5,0.2l-3.3,0.1c-4.3,0.2-8.8,0.4-13.2,0.7c-2.8,0.2-5.7,0.7-8.4,1.1c-0.8,0.1-1.5,0.2-2.2,0.3
	c-0.8,0.1-1.7,0.4-2.4,0.9c-1.3,0.8-2,2.2-2,3.6c0,1.3,0.8,2.5,2,3.3c1.2,0.7,2.7,1.2,4.1,1.3c3.2,0.2,6.5,0.4,9.6,0.5
	c1.2,0.1,2.4,0.1,3.7,0.2c0,0,0,0,0.1,0c0.3,0,0.5-0.1,0.7-0.3h4.4c1.2,0,2.3,0,3.5,0c0.3,0,0.8,0,1,0c0,0.2,0.1,0.6,0.1,1
	c0.1,2.2,0.2,4.4,0.3,6.5c0.2,5.6,0.5,11.4,0.8,17.1c0.2,3.3,0.4,6.7,0.6,9.9c0.3,3.7,0.5,7.6,0.7,11.4c0.3,5.2,0.5,10.6,0.7,15.8
	c0.2,4.9,0.4,9.9,0.6,14.9c0.2,4.6,0.5,9.9,1.2,14.9c0.9,6.2,1.4,12.4,1.4,18.5c0,1.5,0.2,3.1,0.5,4.6c0.5,3.3,1.7,4.3,5.1,4.6
	c0.2,0,0.5,0,0.7,0c1.6,0,3.7-0.6,4.2-3.7c0.2-1,0.2-2.1,0.1-3.1c-0.1-1.1-0.1-2.2-0.2-3.3c-0.1-1.2-0.2-2.5-0.2-3.7
	c-0.1-3.2-0.2-6.4-0.3-9.6c-0.1-3.8-0.2-7.7-0.4-11.5c-0.1-3-0.3-6-0.4-9c-0.2-4.7-0.5-9.6-0.6-14.4c-0.1-5.2-0.2-10.4-0.2-15.5
	c-0.1-5-0.1-10.2-0.2-15.2c-0.1-4.2-0.4-8.4-0.7-12.5l-0.2-3.1c-0.2-3.1-0.5-6.1-0.7-9.2c-0.1-1.7-0.3-3.4-0.4-5.1
	c0-0.3-0.1-0.6-0.1-0.9c0.2,0,0.6,0,0.8,0c1.1,0,2.2,0,3.3,0c1.4,0,2.7,0,3.9,0.1c0.5,0,1.1,0,1.6,0c5.1,0,10.2-0.9,15.2-2.6
	C279.4,72.1,281.3,71.3,283.3,70.4L283.3,70.4z"/>
<path class="st1" d="M669.3,24.2c-0.4-1.5-1.6-2.4-3.2-2.4c-0.1,0-0.2,0-0.4,0c-1,0.1-2.1,0.3-3.1,0.7c-1.5,0.6-3,1.3-4.5,1.9
	c-1,0.4-2,0.8-2.9,1.2c-0.1,0-0.2,0.1-0.3,0.1c0-0.3,0-0.5,0-0.8c0-0.6,0-1.1,0.1-1.7c0-0.9,0.1-1.8,0.1-2.7c0-2.3-1.4-3.1-2.3-3.3
	c-0.4-0.1-0.7-0.1-1.1-0.1c-1.3,0-2.5,0.6-3.1,1.7c-0.3,0.6-0.5,1.2-0.7,2.1l-0.1,0.5c-0.3,2-0.6,4.1-0.8,6.2
	c-0.1,1.1-0.6,1.7-1.7,2.2c-2.2,0.9-4.3,1.8-6.4,2.7c-1,0.4-2,0.8-2.9,1.2l0.1-1.3c0.1-2.1,0.2-4.3,0.3-6.4l0.1-1.8
	c0.1-2.1,0.2-4.2,0.2-6.3c0-2.3-0.8-3.4-3-3.6c-0.3,0-0.6,0-0.9,0c-2.3,0-2.9,1.6-3.2,3c-0.2,0.9-0.3,1.7-0.4,2.4
	c-0.3,2.8-0.6,5.7-0.9,8.5c-0.2,2.4-0.5,4.8-0.8,7.3c-0.1,1.1-0.3,1.7-0.9,2c-1.9,1-4,2.1-6.4,3l0.3-5.7c0.3-4.7,0.5-9.4,0.8-14.1
	c0-0.9,0-1.9-0.2-2.9c-0.3-1.6-1.6-2.6-3.3-2.7c-0.1,0-0.2,0-0.3,0c-1.6,0-2.8,0.9-3.3,2.3c-0.4,1-0.6,2.1-0.6,3.1
	c-0.4,6.8-0.8,13.8-1.2,21.3c-0.1,1.7-0.7,2.7-1.9,3.3l-0.4,0.2c-1.2,0.6-2.5,1.2-3.7,1.8c0-0.4,0-0.8,0-1.2l0.2-18.9
	c0-0.7,0-1.4,0-2.1c-0.1-1.6-1.1-2.7-2.6-2.8c-0.1,0-0.2,0-0.3,0c-1.4,0-2.5,0.7-2.9,2c-0.3,0.9-0.6,1.9-0.6,2.8
	c-0.2,1.9-0.3,3.8-0.4,5.6c-0.1,1.2-0.2,2.5-0.2,3.7c-0.1,1.2-0.2,2.4-0.3,3.5c-0.2,2.5-0.5,5.1-0.4,7.7c0.1,3-1.1,4.7-4.2,6.1
	c-2.1,1-4,2.3-5.9,3.6l-1.1,0.7c-2.7,1.8-2.3,3.9-1.6,5.4c0.2,0.4,0.6,0.6,1,0.6c0.2,0,0.3,0,0.5-0.1c0.6-0.3,1.2-0.5,1.8-0.8
	c1.4-0.6,2.7-1.2,4-1.7c0.7-0.2,1.3-0.5,2-0.8c0.9-0.4,1.7-0.8,2.6-1c0,0.8,0,1.5,0.1,2.3c0.3,2.7,0.7,5.4,1.2,8
	c0.2,0.9,0.6,1.8,1.2,2.6c0.6,0.8,1.4,1.2,2.3,1.2c1.1,0,2.1-0.7,2.6-1.8c0.3-0.6,0.3-1.2,0.4-1.6c0.1-1.6,0.2-3.2,0.3-4.8
	c0,0,0.1-2.2,0.2-3c0.1-1.9,0.2-3.8,0.4-5.7c0.1-0.7,0.3-1.2,0.4-1.2c1.5-1.1,2.8-1.8,4.2-2.2c0,0.7,0,1.4,0,2.1
	c0,1.1-0.1,2.1-0.2,3.2c-0.1,2.2-0.3,4.5-0.2,6.8c0.1,2.3,0.6,4.6,1.1,6.8l0.3,1.3c0.2,0.8,1.2,2.3,2.3,2.3c0.1,0,0.2,0,0.2,0
	c1-0.2,2-1,2.5-1.8c0.4-0.7,0.6-1.5,0.7-2.1c0-0.2,0.1-0.3,0.1-0.5c1.2-6,1.5-12,1.5-16.5c0-1.5,0.1-2.9,0.1-4.4
	c0-1.1,0.3-1.4,0.5-1.5c1.8-0.8,3.6-1.7,5.6-2.5c0.3-0.1,0.6-0.3,0.9-0.4c0,0.4,0,0.8,0,1.2c0,1.4,0,2.8,0,4.2c0,3.5,0,7.1-0.1,10.6
	c-0.1,3,0.6,5.8,1.2,8.5c0.1,0.5,0.2,0.9,0.4,1.2c0.5,1,1.3,1.5,2.1,1.5s1.4-0.5,1.9-1.2c0.7-1.3,1.2-2.7,1.3-4v-0.3
	c0.8-6.9,1.7-14,1.8-21c0-0.6,0-1.2,0.1-1.8c0-0.3,0-0.7,0.1-1c0.1-1.3,0.6-2,1.8-2.5c1.9-0.7,3.8-1.5,5.6-2.3
	c0.9-0.4,1.9-0.8,2.8-1.2c0.1,0,0.2-0.1,0.2-0.1c-0.1,1.6-0.2,3.3-0.4,5c-0.3,3.7-0.6,7.5-0.8,11.3c-0.2,4.5-0.3,9.2-0.2,14.9
	c0,1.4,0.7,2.7,1.3,3.9c0.5,1,1.6,1.6,2.7,1.6c0.2,0,0.5,0,0.8-0.1c1.4-0.3,2.3-1.3,2.6-2.6c0.2-1.1,0.4-2.2,0.4-3.3
	c0-10.9,0.9-21.9,1.6-31.6c0.1-2,0.9-3,2.7-3.7c2.3-0.9,4.6-1.9,6.8-2.9c0.8-0.4,1.7-0.7,2.5-1.1c0.5-0.2,1.2-0.5,1.8-0.9
	C669.2,27.2,669.8,25.8,669.3,24.2L669.3,24.2z"/>
<path class="st1" d="M414.9,165.4c-0.1-1.8-0.2-3.6-0.4-5.4v-0.1c-0.1-1.2-0.2-2.5-0.4-3.7c-0.2-1.7-0.3-3.4-0.5-5.1
	c-0.1-1-0.1-2.1-0.2-3.1c0-1-0.1-1.9-0.2-2.9c-0.1-1.6-0.3-3.2-0.4-4.8c-0.3-3-0.5-6.1-0.7-9.1c-0.2-3.6-0.1-7.2-0.1-10.8
	c0-1.1,0-2.2,0-3.2c0-2.2,0-4.6,0.1-7c0.3-5,0.6-10.1,0.9-15.1l0.4-5.9c0.1-6.1-0.4-12.3-0.9-18.3c-0.2-2.6-0.4-5.2-0.6-7.8
	c-0.1-2.2-0.4-4.3-0.7-6.4l-0.2-1.8c-0.5-3.5-1-7.1-1.6-10.7c-0.2-1.4-0.7-2.9-1.5-4.7s-2.4-2.8-4.5-2.9h-0.3
	c-1.8,0-3.3,0.9-4.1,2.5c-0.9,1.9-1.9,3.9-1.7,6.2c0,0.7,0.1,1.4,0.1,2.1c0.1,1.5,0.1,2.9,0.2,4.4c0.1,1.9,0.3,3.8,0.4,5.7
	c0.1,1.3,0.2,2.6,0.3,3.9c0.2,2.6,0.4,5.2,0.6,7.8c0.3,4.7,0.7,9.3,1.1,13.9c0.6,7.1,1.1,14.7,0.8,22.2c0,0.9-0.1,1.8-0.2,2.6
	c-0.1,1.4-0.2,2.8-0.2,4.2c0.1,5.9,0.2,11.9,0.3,17.8l0.1,5.4c0,0.6,0.1,1.2,0.1,1.7c0.3,2.5,0.6,5,1,7.6c0.7,5.5,1.4,11.3,2,16.9
	c0.7,7.3,1.1,14.8,1.5,22.1v0.7c0.2,2.9,1.1,5.4,2.1,7.8c0.5,1.4,1.6,2.2,3,2.2h0.1c1,0,2.2-0.4,3-2.1l0.1-0.1
	c0.1-0.2,0.2-0.4,0.3-0.6c1.2-3,1.8-5.7,1.7-8.3C415.5,177.7,415.3,172.1,414.9,165.4L414.9,165.4z"/>
<path class="st1" d="M316.7,106.7c0-0.3-0.1-0.6-0.4-0.8s-0.6-0.3-0.9-0.3H315c-0.2,0-0.5,0-0.9,0.2c-0.7,0.3-1.3,0.6-2,0.9
	c-1.1,0.6-2.2,1.1-3.4,1.5c-2.6,0.9-4.6,1.4-6.5,1.4c-1.5,0-2.8-0.3-4.1-0.8c-1.6-0.7-3.2-1.4-5.1-2.4c-2.6-1.3-5.2-2-7.8-2
	c-0.3,0-0.7,0-1,0c-4.1,0.3-8.4,1.5-13.3,3.9c-0.7,0.4-1.4,0.9-1.8,1.6s-0.6,1.8-0.1,2.6c0.4,0.7,1.4,1.2,2.3,1.2l0,0
	c0.6,0,1.1-0.2,1.5-0.4c0.2-0.1,0.3-0.2,0.5-0.2l1.7-0.5c1.9-0.6,3.8-1.2,5.7-1.8c1.4-0.4,2.8-0.6,4.2-0.6c2.3,0,4.6,0.7,6.7,1.9
	c0.8,0.5,1.7,1,2.8,1.6c2.5,1.3,5,1.9,7.2,1.9c0.1,0,0.2,0,0.4,0c4.5,0,8.4-1.5,12.3-4.7c0.9-0.7,1.5-1.6,2.1-2.3
	c0.4-0.5,0.3-1.1,0.3-1.5C316.7,106.9,316.7,106.8,316.7,106.7L316.7,106.7z"/>
<path class="st1" d="M313.7,137.7l-0.4-0.2c-0.2-0.1-0.4-0.2-0.6-0.2s-0.4,0-0.5,0.1c-0.7,0.4-1.5,0.7-2.2,1.1
	c-1.5,0.8-3.1,1.6-4.7,2.4s-3.3,1.2-5,1.2c-1.5,0-2.9-0.3-4.4-0.9c-1.8-0.7-3.7-1.3-5.9-1.8c-2.1-0.5-4.3-0.7-6.3-0.7
	c-4.4,0-8.6,1.1-12.6,3.2c-0.9,0.5-1.7,1.1-2.3,1.8c-0.6,0.6-0.8,2.1-0.2,2.9c0.4,0.5,1.3,1.1,2.2,1.1c0.1,0,0.3,0,0.5-0.1
	c0.8-0.2,1.5-0.5,2.2-0.9c0.3-0.1,0.6-0.3,0.9-0.4c2.9-1.2,5.9-1.9,8.9-1.9c2.2,0,4.4,0.3,6.6,1c1.2,0.4,2.4,0.8,3.6,1.2
	c0.7,0.2,1.4,0.5,2,0.7c1.8,0.6,3.4,0.9,5,0.9c1.4,0,2.7-0.2,4-0.7c3.5-1.3,6.5-3.5,9-6.6c0.3-0.4,0.5-0.9,0.7-1.3
	c0.1-0.1,0.1-0.3,0.2-0.4C314.4,138.6,314.2,138,313.7,137.7L313.7,137.7z"/>
<path class="st1" d="M287.5,136.7c0.2,0,0.4,0,0.5-0.1c1.9-0.4,2-2.2,2-2.9c0-0.3,0-0.6,0-0.9c0-0.2,0-0.5,0-0.7
	c0-0.7,0.1-1.5,0.1-2.2c0.7,1,1.4,1.9,2.1,2.8c0.8,1.1,1.7,2,2.6,2.8c0.6,0.6,1.5,0.6,1.8,0.6c0.2,0,0.4,0,0.6-0.1
	c1.2-0.3,1.3-2,1.3-2.2c0.1-3,0.2-6.2,0.3-9.4c0-1.2-0.1-2.3-0.3-3.4v-0.1c-0.1-0.5-0.2-1.2-0.6-1.9c-0.4-0.7-1.1-1.1-1.9-1.1
	s-1.6,0.5-2,1.4c-0.3,0.7-0.4,1.4-0.5,2c-0.1,0.9-0.3,1.9-0.4,2.9c-0.9-1.2-1.8-2.4-2.7-3.6c-0.1-0.1-0.2-0.3-0.3-0.4
	c-0.5-0.7-1.3-1.8-2.6-1.8c-0.3,0-0.6,0.1-0.9,0.2c-1.8,0.7-1.9,2.7-2,4c0,0.7-0.1,1.5-0.1,2.2c-0.1,1.6-0.2,3.2-0.2,4.8
	c0,1.4,0.2,3,0.5,4.6C285.2,135.8,286.2,136.7,287.5,136.7L287.5,136.7z"/>
<path class="st1" d="M280.1,135.5c-0.3-0.9-0.5-1.9-0.8-2.8c-0.7-2.6-1.5-5.3-2.4-7.9c-0.8-2.1-2-3.9-3.2-5.7l-0.1-0.2
	c-0.5-0.8-1.4-1.3-2.2-1.3c-1.1,0-2.1,0.8-2.5,2.1c-0.1,0.3-0.1,0.6-0.1,0.8l-1.6,12v2.2l0,0c0.1,0.8,0.2,1.7,0.5,2.6
	c0.3,0.9,1,1.5,1.9,1.5c0.7,0,1.3-0.3,1.8-0.9c0.3-0.5,0.6-1,0.8-1.8c0.3-1.2,0.7-2.6,0.9-3.9c0-0.1,0-0.1,0-0.1c0.1,0,0.2,0,0.3,0
	h0.4c0.2,0,0.2,0,0.2,0.1c0.4,0.9,0.8,2,1.4,3c0.5,0.9,1.2,1.6,1.8,2.2c0.2,0.2,0.5,0.4,1.1,0.4c0.3,0,0.7-0.1,1-0.2
	C280,137.2,280.3,136.1,280.1,135.5L280.1,135.5z M272.1,128.1V124l1.6,4.1H272.1z"/>
<path class="st1" d="M311.9,118.1c-1.9-0.8-3.2-1.2-4.3-1.2c-3.5,0-3.7,4-3.9,6.2c-0.1,2.3,0.4,4.6,1,6.9c0.1,0.5,0.3,1.1,0.4,1.6
	c0.5,2.5,1.7,2.7,4,2.7h0.1c0.1,0,0.2,0,0.2,0s0.1,0,0.2,0c0.4-0.1,1-0.1,1.7-0.4c3.4-1.6,5.2-4.3,5.3-7.7
	C316.7,122.3,315,119.5,311.9,118.1L311.9,118.1z M310.2,128.3l-0.3,0.4l-0.8-6.1C311,124.1,311.5,126.5,310.2,128.3z"/>
<path class="st1" d="M95.6,240.2l-1.2-1.1v13h-4.7v-23.4h0.1l11,11.1l11-11.1h0.1v23.4h-4.7v-13l-1.2,1.1c-1.7,1.9-3.4,3.7-5.2,5.5
	C99.1,243.9,97.4,242,95.6,240.2L95.6,240.2z"/>
<path class="st1" d="M119.7,252.1v-23h4.9v23H119.7z"/>
<path class="st1" d="M151.5,252.4l-12.6-12.1l-1.5-1.3v13.1h-4.8v-23.4h0.2l12.6,12.1l1.5,1.3V229h4.9v23.4H151.5z"/>
<path class="st1" d="M159.5,252.1v-23h7.4c7.8,0,12.8,4.8,12.8,11.5s-4.9,11.5-12.7,11.5H159.5z M164.5,233.2V248h2.4
	c4.9,0,7.8-3.2,7.8-7.4s-2.9-7.4-7.9-7.4L164.5,233.2L164.5,233.2z"/>
<path class="st1" d="M184.9,238.6h10.3v3.7h-10.3V238.6z"/>
<path class="st1" d="M218.8,245.4c0,4.4-3.6,6.7-8.8,6.7h-8.1v-23h7.5c4.9,0,8.6,2.1,8.6,6.5c0,2.2-1.3,3.8-2.9,4.5
	C217,240.7,218.8,242.7,218.8,245.4L218.8,245.4z M209.5,238.6c0.7,0,1.3,0,1.9-0.2c0.9-0.4,1.5-1.2,1.5-2.5c0-1.9-1.3-2.9-3.3-2.9
	h-3.1v5.7h3L209.5,238.6L209.5,238.6z M206.6,248.1h3.6c1.9,0,3.5-1.1,3.5-3.1s-1.4-3.1-3.2-3.1h-4L206.6,248.1L206.6,248.1z"/>
<path class="st1" d="M225.3,252.1v-23h4.9V248h8.9v4.1H225.3z"/>
<path class="st1" d="M255.3,228.6c6.9,0,12.1,5.3,12.1,12s-5.1,12-12.1,12s-12.1-5.2-12.1-12S248.4,228.6,255.3,228.6L255.3,228.6z
	 M255.3,248c4.2,0,7.1-3.3,7.1-7.5s-2.9-7.5-7.1-7.5s-7.1,3.4-7.1,7.5S251.2,248,255.3,248L255.3,248z"/>
<path class="st1" d="M275.9,229.1l3.1,7.8c0.8,1.9,1.4,3.7,1.9,5.2c0.4-0.8,1.1-2.6,1.7-4l1.3-2.9l2.7-5.9h0.2
	c2,4.4,4.4,9.6,5.6,12.9c0.8-2.1,3.7-9.5,5.1-13.1h5.5l-10.3,23.4h-0.2l-4.5-10.3c-0.4-0.9-0.8-1.9-1.2-2.8
	c-0.4,0.9-0.8,1.9-1.1,2.8l-4.5,10.3H281l-10.3-23.4H275.9L275.9,229.1z"/>
<path class="st1" d="M308.2,252.1v-23h4.9v23H308.2z"/>
<path class="st1" d="M340,252.4l-12.6-12.1l-1.5-1.3v13.1h-4.8v-23.4h0.2l12.6,12.1l1.5,1.3V229h4.9v23.4H340L340,252.4z"/>
<path class="st1" d="M358.9,252.5c-7.3,0-12.4-5.2-12.4-12s5.1-12,12.3-12c3.4,0,5.9,1,7.2,1.6v4.5c-1.5-0.7-3.8-1.6-6.9-1.6
	c-4.8,0-7.6,3.4-7.6,7.5s2.9,7.5,7.4,7.5c1.1,0,2.3-0.2,3.1-0.4v-6.1h4.7v9.3C364.7,251.8,361.7,252.5,358.9,252.5L358.9,252.5z"/>
<path class="st1" d="M382.2,252.1v-23h4.9v23H382.2z"/>
<path class="st1" d="M413.9,252.4l-12.6-12.1l-1.5-1.3v13.1H395v-23.4h0.2l12.6,12.1l1.5,1.3V229h4.9v23.4H413.9L413.9,252.4z"/>
<path class="st1" d="M426.9,233.2v5.5h7.7v4.1h-7.7v9.3H422v-23h14v4.1L426.9,233.2L426.9,233.2z"/>
<path class="st1" d="M442.2,252.1v-23h4.9V248h8.9v4.1H442.2L442.2,252.1z"/>
<path class="st1" d="M470.5,228.7h0.2l11.2,23.4h-5.1l-1.9-4.1h-8.6l-1.8,4.1h-5.1L470.5,228.7L470.5,228.7z M473.4,244.6
	c-1.1-2.4-2.1-4.8-2.8-6.9c-0.7,1.6-1.9,4.7-2.9,6.9H473.4z"/>
<path class="st1" d="M494.6,233.2v18.9h-4.9v-18.9h-6.4V229h17.8v4.1L494.6,233.2L494.6,233.2z"/>
<path class="st1" d="M513.6,228.7h0.2l11.2,23.4h-5.2l-1.9-4.1h-8.6l-1.8,4.1h-5.1L513.6,228.7z M516.6,244.6
	c-1.1-2.4-2.1-4.8-2.8-6.9c-0.7,1.6-1.9,4.7-2.9,6.9H516.6z"/>
<path class="st1" d="M547.1,245.4c0,4.4-3.6,6.7-8.8,6.7h-8.1v-23h7.5c4.9,0,8.6,2.1,8.6,6.5c0,2.2-1.3,3.8-2.9,4.5
	C545.4,240.7,547.2,242.7,547.1,245.4L547.1,245.4z M537.9,238.6c0.7,0,1.3,0,1.9-0.2c0.9-0.4,1.5-1.2,1.5-2.5
	c0-1.9-1.3-2.9-3.3-2.9h-3.1v5.7h3L537.9,238.6L537.9,238.6z M535,248.1h3.7c2,0,3.5-1.1,3.5-3.1s-1.4-3.1-3.2-3.1h-4V248.1
	L535,248.1z"/>
<path class="st1" d="M553.7,252.1v-23h4.9V248h8.9v4.1H553.7z"/>
<path class="st1" d="M573.4,252.1v-23h14.8v4.1h-9.9v5.2h8.4v4h-8.4v5.6h10.4v4.1L573.4,252.1L573.4,252.1z"/>
<path class="st1" d="M107.2,278.4c0,4.4-3.6,6.7-8.8,6.7h-8.1v-23h7.5c4.9,0,8.6,2.1,8.6,6.5c0,2.2-1.3,3.8-2.9,4.5
	C105.4,273.7,107.2,275.7,107.2,278.4L107.2,278.4z M97.9,271.6c0.7,0,1.3,0,1.9-0.2c0.9-0.4,1.5-1.2,1.5-2.5c0-1.9-1.3-2.9-3.3-2.9
	h-3.1v5.7h3V271.6z M95,281.1h3.7c1.9,0,3.5-1.1,3.5-3.1s-1.4-3.1-3.2-3.1h-4V281.1L95,281.1z"/>
<path class="st1" d="M124.7,261.6c6.9,0,12.1,5.3,12.1,12c0,6.7-5.1,12-12.1,12s-12.1-5.2-12.1-12S117.7,261.6,124.7,261.6z
	 M124.7,281c4.2,0,7.1-3.3,7.1-7.5s-2.9-7.5-7.1-7.5s-7.1,3.4-7.1,7.5S120.5,281,124.7,281z"/>
<path class="st1" d="M151,261.7h0.2l11.2,23.4h-5.1l-1.9-4.1h-8.6l-1.8,4.1h-5.1L151,261.7L151,261.7z M154,277.6
	c-1.1-2.4-2.1-4.8-2.8-6.9c-0.7,1.6-1.9,4.7-2.9,6.9H154z"/>
<path class="st1" d="M175.5,266.2v18.9h-4.9v-18.9h-6.4V262H182v4.1L175.5,266.2L175.5,266.2z"/>
<path class="st1" d="M187,284.2v-4.7c1.6,0.8,3.7,1.5,5.8,1.7c0.7,0,1.4,0,2.1-0.1c1.8-0.3,2.8-0.9,2.8-2c0-1.5-1.4-2.3-4.5-3.5
	c-4-1.5-6.4-3.2-6.4-7.2c0-4,3.4-6.7,8.4-6.7c2.3,0,4.6,0.5,6,1.1v4.5c-1.3-0.8-3.5-1.4-5.6-1.4c-2.4,0-3.9,0.9-3.9,2.4
	c0,1.3,1.2,2.3,4.4,3.5c4,1.6,6.5,3.3,6.5,7.1c0,4.2-3.1,6.7-8.6,6.7C191.2,285.5,188.6,284.9,187,284.2L187,284.2z"/>
<path class="st1" d="M234.8,278.4c0,4.4-3.6,6.7-8.8,6.7h-8.1v-23h7.5c4.9,0,8.6,2.1,8.6,6.5c0,2.2-1.3,3.8-2.9,4.5
	C233,273.7,234.8,275.7,234.8,278.4L234.8,278.4z M225.5,271.6c0.7,0,1.3,0,1.9-0.2c0.9-0.4,1.5-1.2,1.5-2.5c0-1.9-1.3-2.9-3.3-2.9
	h-3.1v5.7h3L225.5,271.6L225.5,271.6z M222.6,281.1h3.6c1.9,0,3.5-1.1,3.5-3.1s-1.4-3.1-3.2-3.1h-4L222.6,281.1L222.6,281.1z"/>
<path class="st1" d="M244,262.1l5.3,9.4l5.3-9.4h5.6l-8.4,14.1v8.9h-4.9v-8.9l-8.4-14.1H244L244,262.1z"/>
<path class="st1" d="M279.9,273.2l-1.2-1.1v13H274v-23.4h0.1l11,11.1l11-11.1h0.1v23.4h-4.7v-13l-1.2,1.1c-1.7,1.9-3.4,3.7-5.1,5.5
	C283.3,276.9,281.6,275,279.9,273.2L279.9,273.2z"/>
<path class="st1" d="M312.9,261.7h0.2l11.2,23.4h-5.2l-1.9-4.1h-8.6l-1.8,4.1h-5.1L312.9,261.7L312.9,261.7z M315.8,277.6
	c-1.1-2.4-2.1-4.8-2.8-6.9c-0.7,1.6-1.9,4.7-2.9,6.9H315.8z"/>
<path class="st1" d="M349.4,262.1l-8,11.4l8.1,11.6H344l-5.2-7.8l-5.2,7.8h-5.5l8.1-11.6l-8-11.4h5.5l5.1,7.7l5.1-7.6L349.4,262.1
	L349.4,262.1z"/>
<path class="st1" d="M356,285.1v-23h4.9v23H356z"/>
<path class="st1" d="M375,273.2l-1.2-1.1v13h-4.7v-23.4h0.1l11,11.1l11-11.1h0.1v23.4h-4.7v-13l-1.2,1.1c-1.7,1.9-3.4,3.7-5.1,5.5
	C378.5,276.9,376.8,275,375,273.2L375,273.2z"/>
<path class="st1" d="M399.5,285.1v-23h14.8v4.1h-9.9v5.2h8.4v4h-8.4v5.6h10.4v4.1L399.5,285.1L399.5,285.1z"/>
<path class="st1" d="M438.5,262.1c5.3,0,8.9,2.7,8.9,7.6c0,3.4-1.9,5.6-4.4,6.6l4.8,8.9h-5.2l-4.1-8.1h-3.3v8.1h-4.8v-23
	L438.5,262.1L438.5,262.1z M435.3,266.2v6.9h3.5c2.2,0,3.7-1.1,3.7-3.4s-1.6-3.5-3.8-3.5H435.3L435.3,266.2z"/>
<path class="st1" d="M454.6,285.1v-23h4.9v23H454.6z"/>
<path class="st1" d="M485.2,267.7c-1.4-0.7-3.5-1.6-6.4-1.6c-4.7,0-7.6,3.4-7.6,7.5s2.9,7.5,7.5,7.5c3,0,5.2-0.9,6.7-1.6v4.6
	c-1.2,0.6-3.8,1.5-7,1.5c-6.9,0-12-5.2-12-12s5.1-12,12.2-12c3.2,0,5.5,1,6.7,1.6v4.5L485.2,267.7L485.2,267.7z"/>
<path class="st1" d="M506.5,285.1v-9.6H497v9.6h-4.9v-23h4.9v9.3h9.5V262h4.9v23h-4.9V285.1z"/>
<path class="st1" d="M528.1,261.7h0.2l11.2,23.4h-5.2l-1.9-4.1h-8.6l-1.8,4.1h-5.1L528.1,261.7L528.1,261.7z M531,277.6
	c-1.1-2.4-2.1-4.8-2.8-6.9c-0.7,1.6-1.9,4.7-2.8,6.9H531z"/>
<path class="st1" d="M553.2,262.1c5.3,0,8.9,2.7,8.9,7.6c0,3.4-1.9,5.6-4.4,6.6l4.8,8.9h-5.2l-4.1-8.1h-3.3v8.1h-4.8v-23
	L553.2,262.1L553.2,262.1z M549.9,266.2v6.9h3.5c2.2,0,3.7-1.1,3.7-3.4s-1.6-3.5-3.8-3.5H549.9L549.9,266.2z"/>
<path class="st1" d="M569.2,285.1v-23h7.4c7.8,0,12.8,4.8,12.8,11.5c0,6.7-4.9,11.5-12.7,11.5H569.2L569.2,285.1z M574.1,266.2V281
	h2.4c4.9,0,7.8-3.2,7.8-7.4s-2.9-7.4-7.9-7.4H574.1L574.1,266.2z"/>
<rect x="97.3" y="315.5" class="st1" width="487.5" height="3.4"/>
<path class="st1" d="M106.9,342.2h0.2l13.7,28.6h-6.3l-2.3-5h-10.5l-2.1,5h-6.3L106.9,342.2z M110.5,361.5c-1.3-3-2.6-5.9-3.4-8.4
	c-0.8,1.9-2.4,5.7-3.5,8.4H110.5z"/>
<path class="st1" d="M124.7,369.7v-5.8c1.9,1,4.5,1.8,7.1,2c0.9,0,1.7,0,2.5-0.2c2.1-0.3,3.4-1.1,3.4-2.5c0-1.8-1.6-2.9-5.5-4.3
	c-4.9-1.8-7.9-3.9-7.9-8.8c0-5,4.2-8.2,10.2-8.2c2.9,0,5.6,0.6,7.4,1.4v5.5c-1.6-1-4.3-1.7-6.9-1.7c-2.9,0-4.8,1.1-4.8,3
	c0,1.6,1.5,2.8,5.3,4.2c4.9,1.9,8,4,8,8.7c0,5.1-3.8,8.2-10.5,8.2C129.8,371.3,126.8,370.6,124.7,369.7z"/>
<path class="st1" d="M158,369.7v-5.8c1.9,1,4.5,1.8,7.1,2c0.9,0,1.7,0,2.5-0.2c2.1-0.3,3.4-1.1,3.4-2.5c0-1.8-1.6-2.9-5.5-4.3
	c-4.9-1.8-7.9-3.9-7.9-8.8c0-5,4.2-8.2,10.2-8.2c2.9,0,5.6,0.6,7.4,1.4v5.5c-1.6-1-4.3-1.7-6.9-1.7c-2.9,0-4.8,1.1-4.8,3
	c0,1.6,1.5,2.8,5.3,4.2c4.9,1.9,8,4,8,8.7c0,5.1-3.8,8.2-10.5,8.2C163.1,371.3,160,370.6,158,369.7z"/>
<path class="st1" d="M190.5,356.2l-1.5-1.3v15.9h-5.7v-28.6h0.1l13.4,13.5l13.4-13.5h0.1v28.6h-5.7v-15.9l-1.5,1.3
	c-2,2.3-4.2,4.5-6.3,6.8C194.7,360.7,192.5,358.4,190.5,356.2z"/>
<path class="st1" d="M231.7,342.1c8.5,0,14.7,6.5,14.7,14.6c0,8.2-6.2,14.6-14.7,14.6s-14.7-6.4-14.7-14.6
	C216.9,348.5,223.1,342.1,231.7,342.1z M231.7,365.8c5.1,0,8.7-4.1,8.7-9.1s-3.6-9.1-8.7-9.1s-8.7,4.1-8.7,9.1
	S226.6,365.8,231.7,365.8z"/>
<path class="st1" d="M267,342.1c8.5,0,14.7,6.5,14.7,14.6c0,8.2-6.2,14.6-14.7,14.6s-14.7-6.4-14.7-14.6S258.5,342.1,267,342.1z
	 M267,365.8c5.1,0,8.7-4.1,8.7-9.1s-3.6-9.1-8.7-9.1s-8.7,4.1-8.7,9.1S261.9,365.8,267,365.8z"/>
<path class="st1" d="M299.7,347.6v23.1h-6v-23.1h-7.9v-5h21.8v5H299.7z"/>
<path class="st1" d="M331,370.7v-11.8h-11.7v11.8h-6v-28.1h6V354H331v-11.4h6v28.1H331z"/>
<path class="st1" d="M365.1,342.2h0.2l13.7,28.6h-6.3l-2.3-5h-10.5l-2.1,5h-6.3L365.1,342.2z M368.6,361.5c-1.3-3-2.6-5.9-3.4-8.4
	c-0.8,1.9-2.4,5.7-3.5,8.4H368.6z"/>
<path class="st1" d="M382.9,369.7v-5.8c1.9,1,4.5,1.8,7.1,2c0.9,0,1.7,0,2.5-0.2c2.1-0.3,3.4-1.1,3.4-2.5c0-1.8-1.6-2.9-5.5-4.3
	c-4.9-1.8-7.9-3.9-7.9-8.8c0-5,4.2-8.2,10.2-8.2c2.9,0,5.6,0.6,7.4,1.4v5.5c-1.6-1-4.3-1.7-6.9-1.7c-2.9,0-4.8,1.1-4.8,3
	c0,1.6,1.5,2.8,5.3,4.2c4.9,1.9,8,4,8,8.7c0,5.1-3.8,8.2-10.5,8.2C388,371.3,385,370.6,382.9,369.7z"/>
<path class="st1" d="M427.8,342.2h0.2l13.7,28.6h-6.3l-2.3-5h-10.5l-2.1,4.9h-6.4L427.8,342.2z M431.4,361.5c-1.3-3-2.6-5.9-3.4-8.4
	c-0.8,1.9-2.4,5.7-3.5,8.4H431.4z"/>
<g>
	<path class="st1" d="M105,382.6h0.2l13.4,28h-6.2l-2.2-4.9H100l-2.1,4.9h-6.2L105,382.6z M108.5,401.6c-1.3-2.9-2.5-5.8-3.3-8.2
		c-0.8,1.9-2.3,5.6-3.4,8.2H108.5z"/>
	<path class="st1" d="M122.3,409.6v-5.7c1.9,1,4.4,1.8,6.9,2c0.9,0,1.7,0,2.4-0.2c2.1-0.3,3.3-1.1,3.3-2.4c0-1.8-1.6-2.8-5.4-4.2
		c-4.8-1.8-7.7-3.8-7.7-8.6c0-4.9,4.1-8,10-8c2.8,0,5.5,0.6,7.2,1.4v5.4c-1.6-1-4.2-1.7-6.7-1.7c-2.8,0-4.7,1.1-4.7,2.9
		c0,1.6,1.5,2.7,5.2,4.1c4.8,1.9,7.8,3.9,7.8,8.5c0,5-3.7,8-10.3,8C127.3,411.1,124.3,410.4,122.3,409.6z"/>
	<path class="st1" d="M155.7,410.6v-27.5h5.9v22.6h10.6v4.9H155.7z"/>
	<path class="st1" d="M178,410.6v-27.5h5.9v27.5H178z"/>
	<path class="st1" d="M205,411.1c-8.7,0-14.8-6.2-14.8-14.3c0-8,6.2-14.3,14.7-14.3c4.1,0,7.1,1.1,8.6,1.9v5.4
		c-1.8-0.8-4.6-1.9-8.3-1.9c-5.7,0-9.1,4-9.1,8.9c0,5,3.4,9,8.9,9c1.3,0,2.8-0.2,3.7-0.5V398h5.6v11
		C211.9,410.3,208.4,411.1,205,411.1z"/>
	<path class="st1" d="M238.5,410.6v-11.5h-11.4v11.5h-5.9v-27.5h5.9v11.1h11.4v-11.1h5.9v27.5H238.5z"/>
	<path class="st1" d="M263.4,388v22.6h-5.9V388h-7.7v-4.9h21.3v4.9H263.4z"/>
	<path class="st1" d="M295.7,382.6h0.2l13.4,28h-6.2l-2.2-4.9h-10.3l-2.1,4.9h-6.2L295.7,382.6z M299.2,401.6
		c-1.3-2.9-2.5-5.8-3.3-8.2c-0.8,1.9-2.3,5.6-3.4,8.2H299.2z"/>
	<path class="st1" d="M313,409.6v-5.7c1.9,1,4.4,1.8,6.9,2c0.9,0,1.7,0,2.4-0.2c2.1-0.3,3.3-1.1,3.3-2.4c0-1.8-1.6-2.8-5.4-4.2
		c-4.8-1.8-7.7-3.8-7.7-8.6c0-4.9,4.1-8,10-8c2.8,0,5.5,0.6,7.2,1.4v5.4c-1.6-1-4.2-1.7-6.7-1.7c-2.8,0-4.7,1.1-4.7,2.9
		c0,1.6,1.5,2.7,5.2,4.1c4.8,1.9,7.8,3.9,7.8,8.5c0,5-3.7,8-10.3,8C318,411.1,314.9,410.4,313,409.6z"/>
	<path class="st1" d="M356.6,382.6h0.2l13.4,28H364l-2.2-4.9h-10.3l-2.1,4.9h-6.2L356.6,382.6z M360.1,401.6
		c-1.3-2.9-2.5-5.8-3.3-8.2c-0.8,1.9-2.3,5.6-3.4,8.2H360.1z"/>
	<path class="st1" d="M389.9,401.2v9.4H384v-27.5h9c6.4,0,10.6,3.1,10.6,9.1c0,5.9-4.2,9.1-10.6,9.1h-3.1V401.2z M389.9,388v8.2h3.4
		c2.6,0,4.3-1.3,4.3-4.1c0-2.8-1.8-4.1-4.5-4.1H389.9z"/>
	<path class="st1" d="M416.8,382.6h0.2l13.4,28h-6.2l-2.2-4.9h-10.3l-2.1,4.9h-6.2L416.8,382.6z M420.3,401.6
		c-1.3-2.9-2.5-5.8-3.3-8.2c-0.8,1.9-2.3,5.6-3.4,8.2H420.3z"/>
	<path class="st1" d="M455.1,389.8c-1.6-0.8-4.2-1.9-7.6-1.9c-5.6,0-9.1,4-9.1,8.9s3.5,8.9,8.9,8.9c3.6,0,6.3-1,8-1.9v5.5
		c-1.4,0.8-4.6,1.8-8.4,1.8c-8.3,0-14.4-6.2-14.4-14.3c0-8,6.1-14.3,14.6-14.3c3.9,0,6.6,1.1,8,1.9V389.8z"/>
	<path class="st1" d="M467.4,396.1l10.7-13h7l-9.8,11.5l9.9,16h-6.6l-7.3-12.2l-3.9,4.5v7.8h-5.9v-27.5h5.9L467.4,396.1L467.4,396.1
		z"/>
	<path class="st1" d="M499.9,383.1c6.4,0,10.6,3.2,10.6,9.1c0,4-2.3,6.7-5.2,7.8l5.8,10.6h-6.2L500,401h-4v9.6h-5.8v-27.5H499.9z
		 M496,388v8.2h4.2c2.6,0,4.4-1.3,4.4-4.1c0-2.8-1.9-4.1-4.6-4.1H496z"/>
	<path class="st1" d="M527.5,382.6h0.2l13.4,28h-6.2l-2.2-4.9h-10.3l-2.1,4.9h-6.2L527.5,382.6z M530.9,401.6
		c-1.3-2.9-2.5-5.8-3.3-8.2c-0.8,1.9-2.3,5.6-3.4,8.2H530.9z"/>
	<path class="st1" d="M551.9,388v6.6h9.2v4.9h-9.2v11.2H546v-27.5h16.8v4.9h-10.9L551.9,388L551.9,388z"/>
	<path class="st1" d="M579.9,388v22.6H574V388h-7.7v-4.9h21.3v4.9H579.9z"/>
</g>
<g>
	<path class="st1" d="M461.8,355.3l11.2-13.6h7.3l-10.2,12l10.3,16.7h-6.9l-7.6-12.8l-4.1,4.7v8.1h-6.1v-28.7h6.1L461.8,355.3
		L461.8,355.3z"/>
	<path class="st1" d="M495.6,341.3h0.2l14,29.2h-6.4l-2.3-5.1h-10.7l-2.2,5.1h-6.4L495.6,341.3z M499.2,361.1c-1.3-3-2.6-6-3.5-8.5
		c-0.8,2-2.4,5.8-3.5,8.5H499.2z"/>
	<path class="st1" d="M513.4,341.7l6.6,11.8l6.6-11.8h6.9l-10.4,17.6v11.1H517v-11.1l-10.4-17.6L513.4,341.7L513.4,341.7z"/>
	<path class="st1" d="M544.2,341.3h0.2l14,29.2H552l-2.3-5.1H539l-2.2,5.1h-6.4L544.2,341.3z M547.8,361.1c-1.3-3-2.6-6-3.5-8.5
		c-0.8,2-2.4,5.8-3.5,8.5H547.8z"/>
	<path class="st1" d="M569,355.3l11.2-13.6h7.3l-10.2,12l10.3,16.7h-6.9l-7.6-12.8l-4.1,4.7v8.1h-6.1v-28.7h6.1V355.3z"/>
</g>
</svg>
