<?xml version="1.0" encoding="utf-8"?>
<!-- Generator: Adobe Illustrator 28.0.0, SVG Export Plug-In . SVG Version: 6.00 Build 0)  -->
<svg version="1.1" id="Calque_1" xmlns="http://www.w3.org/2000/svg" xmlns:xlink="http://www.w3.org/1999/xlink" x="0px" y="0px"
	 viewBox="0 0 584.9 186.7" style="enable-background:new 0 0 584.9 186.7;" xml:space="preserve">
<style type="text/css">
	.st0{fill:#E2F619;}
</style>
<path class="st0" d="M293.8,31.3c-4.3-3-9.5-6.3-15.4-7.7c-0.4-0.1-0.7-0.2-1.1-0.3c-6.7-2.7-14.1-4-22.5-4c-1.5,0-3,0-4.5,0.1
	c-1.1,0-2.2,0.3-3.4,0.8c-2.3,0.9-3.8,2.6-4.3,4.9c-0.2,1.1-0.6,2.1-1.1,3.3c-0.2,0.7-0.5,1.4-0.7,2.1c-0.3,0.8-0.5,1.8-0.6,2.8
	c-0.4,6.3-0.4,12.8,0.2,19.1c0.8,9.8,1.5,19.3,1.2,29c0,1.4-0.1,2.8-0.1,4.2c-0.1,2.5-0.2,5-0.2,7.5c0,1.6,0,3.2,0,4.8
	c0,6.3-0.1,12.8,0.1,19.2c0.2,6.6,0.6,13.3,1.1,19.8c0.2,2.6,0.3,5.2,0.5,7.7c0.1,1.5,0.2,3,0.3,4.5c0.2,2.3,0.3,4.8,0.4,7.1
	c0.1,1.7,0,3.4-0.2,5.3c-0.6,5.6-1,10.6-0.1,15.9c0.2,1.3,0.8,2.6,1.7,4.2c0.6,1,1.6,1.6,2.8,1.6c0.5,0,1-0.1,1.5-0.4
	c1.2-0.6,2.5-1.4,2.9-2.6c0.2-0.7,0.5-1.3,0.8-2c0.8-2,1.7-4,1.6-6.4c-0.1-1.1-0.1-2.2-0.2-3.2c-0.1-2.2-0.3-4.4-0.3-6.6
	c-0.1-5.9-0.1-12.2,0-18.4c0.1-5.2,0.3-10.5,0.5-15.7c0.1-3.1,0.2-6.2,0.3-9.3c0-0.6,0-1,0-1.4c0-0.3,0-0.6,0-0.8
	c0.2-0.1,0.6-0.1,0.9-0.2c0.4-0.1,0.8-0.2,1.3-0.2l1-0.2c4.4-0.9,9-1.9,13.2-4.1c0.5,1.5,0.9,3,1.4,4.4c1,3.3,2.1,6.8,3.4,10.1
	c3.6,9.5,6.7,19.3,9.8,28.8c0.5,1.7,1.1,3.4,1.6,5.2c1.7,5.4,3.7,11.2,6.6,16.6c1,1.9,2.3,3.5,3.8,4.8c0.7,0.6,1.7,1.1,2.6,1.2
	c0.2,0,0.5,0.1,0.7,0.1c1.4,0,2.7-0.6,3.6-1.6c1.1-1.2,1.6-2.8,1.5-4.6c-0.2-2.8-0.9-5.1-2.2-7.2c-0.9-1.4-1.4-2.4-1.8-3.5
	c-1.2-3.5-2.4-6.9-3.5-10.4c-1.1-3.2-2.1-6.4-3.2-9.6l-1-3c-1.6-4.7-3.3-9.5-5.1-14.2c-2.2-5.5-4.5-11-6.7-16.3
	c-0.9-2.1-1.8-4.2-2.6-6.3c0,0,0.1-0.1,0.1-0.1c0.5-0.3,0.8-0.6,1.2-0.8c4.1-2.6,7.6-5.9,10.5-9.8c2.2-3.1,4.9-6.7,7.3-10.6
	c4.8-7.6,7.6-14.8,8.6-21.8c0.8-5.6,1.1-13-2.7-19.5C302.3,38.7,298.4,34.4,293.8,31.3L293.8,31.3z M254.9,103.8c0-0.2,0-0.4,0-0.8
	c0.1-3.5,0.2-7,0.3-10.5l0.1-4.3c0-0.2-0.1-0.4-0.2-0.6l0.2-6.2c0.2-5.5,0.4-10.9,0.6-16.4c0.2-6.2,0-11.4-0.7-16.3
	c-0.2-1.7-0.3-3.6-0.3-5.3c0-1-0.1-1.9-0.1-2.9c-0.1-1.8-0.2-3.5-0.4-5.3l-0.2-2.5c0,0,0-0.1,0-0.2c0-0.3,0-0.6,0-0.9
	c0.2,0,0.5,0.1,0.9,0.1c1.2,0.2,2.5,0.3,3.7,0.5c2.8,0.4,5.8,0.8,8.6,1.3c6.8,1.3,13.1,4,18.9,7.9c0.7,0.5,1.4,1.2,1.9,1.8
	c0.4,0.5,0.9,1,1.3,1.4c0.7,0.8,1.3,1.5,2.1,2.3c3.4,3.2,4.6,7.3,3.9,13.4c-0.7,6-3,11.8-7.4,18.7c-1.3,2.1-2.7,4.1-4.1,6.1
	l-0.8,1.2c-2.8,4-6.2,7.3-10.1,9.6l-0.7,0.4c-0.9,0.5-1.8,1.1-2.7,1.7c-4.4,3.3-9.7,4.7-14.2,5.6
	C255.4,103.7,255.1,103.8,254.9,103.8L254.9,103.8z"/>
<path class="st0" d="M439.1,124.9c-0.2-8-0.2-16.1-0.2-23.9c0-5.2,0-10.4-0.1-15.7c0-4.6-0.3-9.3-0.5-13.8l0-1.1
	c-0.1-2-0.2-3.9-0.4-5.9c-0.2-2.4-0.3-4.9-0.4-7.3c-0.3-9-1-16.4-2.3-23.2c-0.5-2.7-1.2-5.4-2-8.2c-0.7-2.2-2.4-3.6-4.5-3.6
	c-0.5,0-1,0.1-1.6,0.2c-1.8,0.5-3,1.9-3.5,4c-0.7,2.6-0.5,5.2-0.4,7.8l0,0.9c0.4,6.9,0.8,13.9,1.1,20.8l0.3,5.9
	c0.1,2.5,0.3,5.1,0.5,7.6c0,0.4,0,0.5,0,0.5c0,0-0.2,0.1-0.5,0.1c-3,0.4-6.2,1-10,1.9c-4.8,1.1-9.8,1.4-14.6,1.7l-0.4,0
	c-0.1,0-0.1,0-0.2,0c0,0,0-0.1,0-0.2l-0.1-1c-0.2-2.8-0.3-5.5-0.5-8.2c-0.4-6.6-0.8-13.4-1.3-20.1c-0.3-4.1-1-8.2-1.7-12.2l-0.3-1.8
	c-0.2-1.2-0.7-2.4-1.6-3.7c-1-1.5-2.5-2.3-4.1-2.3c-1.5,0-2.9,0.7-3.9,2c-0.4,0.5-1.5,2-1.6,3.6c-0.2,2.4-0.2,5,0,8.2
	c0.3,7.6,0.7,15.8,1.2,25.2c0.2,4.3,0.5,8.7,0.8,12.5c0.1,1.8,0.3,3.7,0.5,5.6c0.2,2.8,0.5,5.8,0.7,8.7c0.1,2,0.2,4.1,0.2,6.2
	c0.1,3,0.1,6.2,0.5,9.2c0.6,6.3,1,12.7,1,19.7c0,4.1,0.2,8.2,0.5,12.3c0.5,6.9,1,13.3,1.6,19.5c0.6,6.1,1.2,11.6,1.9,16.9
	c0.3,2.1,1.1,4,1.8,5.5c0.7,1.6,2.7,2.6,4.2,2.6c0.5,0,1-0.1,1.3-0.3c1.4-0.8,3.3-2.1,3.4-4.7l0-0.4c0-0.9,0.1-1.9,0.1-2.8
	c-0.2-5.5-0.5-11.3-0.8-17.2c-0.1-2-0.2-4-0.4-6.1c-0.1-1.7-0.2-3.4-0.3-5.1c-0.1-1.3-0.2-2.6-0.2-3.9c-0.2-3.4-0.5-6.9-0.5-10.4
	c0-8.3,0-17.8-0.9-27.2c-0.4-4.5-0.5-9.1-0.5-13.6c0-1.9,0-3.7-0.1-5.6c0-0.1,0-0.3,0-0.5c0.2,0,0.7,0,0.7,0c1.1,0,2.2-0.1,3.2-0.1
	c2.8-0.1,5.7-0.1,8.5-0.5c3.3-0.4,6.4-1.1,9.7-1.9c1-0.2,2-0.4,3-0.7c0,1.4,0.1,2.7,0.1,4.1c0.1,3.9,0.2,8,0.3,11.9
	c0.1,9,0.2,18.2,0.2,27v1.4c0.1,7.5,1,15,1.8,22.2c0.2,2,0.5,3.9,0.7,5.9c1,7.8,2,15.8,2.1,23.7c0,1.5,0.5,3,1,4.4l0.1,0.2
	c0.6,1.9,2.2,3,4.4,3.2c0.1,0,0.3,0,0.5,0c2.1,0,3.7-1.1,4.5-2.9c0.6-1.4,0.9-3.1,0.9-4.7c0.2-11.7-0.8-23.5-1.8-33.4
	C439.8,137.4,439.3,131.2,439.1,124.9L439.1,124.9z"/>
<path class="st0" d="M380.6,113.9c-0.1-4.4-0.5-9.2-1.1-15.1c-0.4-3.6-2.5-5.5-5.8-5.5c-0.4,0-0.8,0-1.1,0.1c-1,0.1-2,0.2-2.9,0.3
	c-0.9,0.1-1.8,0.2-2.8,0.3c-0.8,0.1-1.6,0.2-2.2,0.5c-2.9,0.9-4.7,3.3-4.5,5.9c0.2,2.4,2.2,4.5,5,5.2c0.5,0.1,1.1,0.2,1.5,0.2
	c0.4,0,0.7,0,1.1,0c0.2,0,0.4,0,0.6,0c0.3,0,0.6,0,0.8,0c0.1,0,0.2,0,0.3,0c0,0.2,0,0.4,0,0.7l0,0.6c0,0.7,0,1.4,0,2.2
	c0,0.7,0,1.3,0,2l0.1,2.2c0.2,5.9,0.4,11.9,0.6,17.9c0.1,2.4,0.2,5.1,0.6,7.6c0.9,6.5,1,13.5,0.3,21.3c-0.2,2.3-0.6,4.4-1.2,6.4
	c-0.6,2.2-2.4,3.5-4.5,3.5c-1,0-1.9-0.3-2.8-0.8l-0.6-0.3c-0.6-0.4-1.2-0.7-1.8-1.1c-2.1-1.5-3.8-3.5-5-5.8c-1.3-2.6-2-5.4-2.1-8.3
	c-0.1-2.9-0.5-15.1-0.5-15.1c0-0.7,0-1.3,0-2c0-1.3,0-2.7-0.1-4.1c-0.4-4.9-0.8-9.9-1.2-14.8c-0.2-2.8-0.5-5.7-0.7-8.5
	c-0.1-1.4-0.2-2.8-0.3-4.2c-0.2-2.6-0.4-5.2-0.7-7.8c-0.4-3.7-0.6-7.6-0.4-12.3c0.1-6.2,0.2-12.5,0.2-18.5c0-2.2,0-4.3,0-6.5
	c0-0.3,0-0.7-0.1-0.9c0-0.2,0-0.3-0.1-0.4c-0.1-1.4-0.2-2.8-0.3-4.1c-0.2-3.2-0.5-6.6-0.5-9.8c0-4.2,1-8,3.2-11.2
	c0.6-0.8,0.9-1.2,1.1-1.2c0.4,0,1.1,0.4,1.4,0.5c2.9,1.4,5.2,3.5,6.8,6.1c0.2,0.3,0.4,0.7,0.6,1c0.6,1,1.2,2.1,2.1,3.1
	c0.9,1.1,2.1,1.7,3.4,1.7s2.6-0.6,3.5-1.8c0.8-1,1.4-2.4,1.5-3.6c0.4-3.5-0.7-6.7-3.1-9.5c-4.1-4.7-8.6-7.7-13.8-9.1
	c-1-0.3-2-0.4-2.9-0.4c-2.7,0-5.1,1.1-7.3,3.5c-4.5,4.9-7.1,10.9-7.9,18c-0.4,3.5-0.2,7-0.1,10.4c0,1.1,0.1,2.2,0.1,3.3
	c0,1.7,0.1,3.5,0.2,5.2c0.1,1.6,0.2,3.3,0.2,4.9c0.1,2.4,0,4.8,0,7.2c0,0.9,0,1.8,0,2.7c-0.1,0.1-0.1,0.3-0.1,0.4c0,0,0,4.9,0,6.2
	c0,1.3,0,2.6,0,3.9c0,2.8-0.1,5.8,0,8.7c0.2,4.3,0.5,8.6,1,13.3c0.2,2.2,0.5,4.4,0.7,6.5c0.2,1.7,0.4,3.4,0.6,5.1l0.3,2.6
	c0.5,4.8,1,9.8,1.4,14.8c0.2,2.5,0.3,5.1,0.5,7.6c0.2,3.4,0.3,6.9,0.7,10.3c0.5,5.2,1.8,11.8,7.1,16.9c0.2,0.2,0.4,0.4,0.5,0.7
	c0.2,0.2,0.4,0.5,0.6,0.7c4.7,5.1,9.2,7.5,14.8,7.8c0.3,0,0.6,0,1,0c6.6,0,12.1-3.8,14.2-9.8c1-2.9,1.7-6.1,2.1-9.4
	c1-8.7,0.8-17.9-0.5-29.1C381.2,125.5,380.7,119.5,380.6,113.9L380.6,113.9z"/>
<path class="st0" d="M127.6,76.4c-1.5-0.8-3.1-1.3-4.7-1.3c-0.6,0-1.3-0.1-1.9-0.1c-1.7,0-3.6,0.1-5.8,0.3c-2.1,0.2-4.1,0.5-6.2,0.8
	c-0.6,0.1-1.1,0.2-1.7,0.2c0-0.2,0-0.3,0-0.5c-0.1-1.2-0.2-2.3-0.2-3.5c-0.1-2.9-0.2-5.7-0.3-8.6l-0.1-4.2l-0.2-6.1
	c-0.2-5-0.3-10-0.5-14.9c0-0.1,0-0.2,0-0.3c0.1,0,0.3,0,0.5,0c0.6,0,1.2,0.1,1.7,0.2c1.4,0.1,2.8,0.3,4.3,0.3h0.3
	c9.6-0.1,19.5-0.3,29.4-0.6c6.4-0.2,13-1.4,19.4-3.7c1.3-0.4,2.2-0.9,3.1-1.4c1.4-0.9,1.6-1.8,1.5-2.4c-0.1-0.6-0.4-1.5-1.9-2.2
	c-0.5-0.2-1-0.4-1.4-0.5c-0.4-0.1-0.9-0.3-1.3-0.5c-4.8-2.1-9.4-3.1-13.9-3.1c-0.2,0-0.4,0-0.7,0c-6.2,0.1-12.5,0.2-18.7,0.4
	c-3.1,0-6.3,0.1-9.4,0.2h-0.4c-0.5,0-1.1,0-1.7,0.1c-3,0.8-6.1,0.9-9.3,0.9c-2.4,0.1-4.9,0.1-7.4,0.5c-2.4,0.4-5.6,1.4-5.9,5.9
	L94,35.1c-0.4,7.2-0.9,14.5-0.5,21.9c0.5,8.7,0.8,17.5,1,26c0.1,3.5,0.2,7.1,0.3,10.6c0,0.5,0,1,0.1,1.5c0.1,1.4,0.1,2.8,0.1,4.1
	c-0.8,13-0.6,26.2,0.5,39.4c0.1,1.1,0.2,2.2,0.2,3.3c0.1,1.1,0.1,2.1,0.2,3.2c0.2,2.2,0.4,4.4,0.5,6.5c0.3,3.7,0.7,7.6,0.9,11.3
	c0.2,2.6,0.2,5.3,0.3,7.9c0.1,1.8,0.1,3.6,0.2,5.3c0.2,3.7,1.4,6.7,3.6,9c1.1,1.1,2,1.3,2.7,1.3c0.8,0,1.9-0.3,2.8-1.8
	c0.6-1,1.4-2.5,1.6-4.1c0.4-3.8,0.9-7.8,0.9-11.7c0-6.4-0.2-12.9-0.4-19.3l-0.1-3.4c-0.1-3.2-0.3-6.5-0.5-9.7l-0.1-0.7
	c-0.1-1.4-0.2-2.8-0.3-4.2c-0.2-2.4-0.4-5-0.5-7.5c-0.1-8.3-0.1-16.8-0.1-25c0-3.2,0-6.4,0-9.7c0-0.1,0-0.3,0-0.4c0-0.1,0-0.1,0-0.2
	c0.1-0.1,0.2-0.2,0.2-0.2c0.1,0,0.2,0,0.4,0c0.2,0,0.4,0,0.7,0c0.3,0,0.5,0,0.8,0c0.1,0,0.2,0,0.3,0l2.6-0.1
	c3.3-0.1,6.6-0.3,9.9-0.5c2.3-0.2,4.3-0.9,5.9-2.1c1.8-1.4,2.8-3.3,2.6-5.2C130.7,79.1,129.5,77.4,127.6,76.4L127.6,76.4z"/>
<path class="st0" d="M88.2,26.2c-0.8-0.6-1.9-1.2-3-1.4c-2.3-0.4-4.5-0.6-6.6-0.6c-0.2,0-0.4,0-0.6,0c-1,0-2,0.1-3,0.1
	c-0.9,0.1-1.8,0.1-2.6,0.1c-2.8,0-5.6,0-8.4,0.1c-3.7,0-7.4,0-11.1,0.1c-1.6,0-3.2,0.1-4.7,0.2c-1.5,0.1-3.1,0.2-4.6,0.2h-0.7
	c-2.7,0-5.4,0.1-8.1,1.1c-0.2,0.1-0.6,0.1-0.9,0.1h-0.2c-3.8,0-5.9,1.8-6.3,5.5c-0.4,3.1-0.5,6-0.5,8.7c0,2.6,0.1,5.2,0.2,7.7
	c0.1,2.8,0.2,5.6,0.2,8.4c0,9.5-0.1,19.3-0.3,29.9c-0.1,6.2-0.3,12.2-0.5,19.2c-0.1,3.3-0.2,6.8-0.3,10.6l0.1,3.4
	c0.1,3.6,0.3,8,0.6,12.4c0.4,6.4,0.7,11.7,1.1,16.6c0.2,2,0.7,3.9,1.2,5.8c0.7,2.6,2.4,4.1,5.1,4.8c4.6,1.1,9.2,1.5,13,1.8
	c2.6,0.2,6,0.4,9.4,0.4s6.8-0.2,9.8-0.6c3.2-0.5,6.6-1.2,9.5-3.2c1.3-0.9,2-1.9,2.1-3s-0.4-2.2-1.6-3.3c-1.7-1.6-3.6-2.6-5.7-2.8
	c-2.9-0.3-5.6-0.6-8.3-0.6c-0.5,0-1,0-1.5,0c-1.8,0.1-3.7,0.1-5.1,0.1h-4.2c-4.2,0-7.8,0.1-11.4,0.6c-0.3,0-0.7,0.1-0.9,0.1
	c-0.1-0.2-0.2-0.6-0.2-1c-0.2-1-0.3-2-0.3-2.9c0-2.6-0.1-5.3-0.1-8c0-2.5,0-4.9-0.1-7.4c0-1.2-0.1-2.4-0.1-3.6
	c-0.1-1.9-0.2-3.9-0.1-5.8c0.1-3.1,0.3-6.3,0.5-9.4c0.1-1.4,0.2-2.9,0.3-4.3c0.2-3.6,0.4-7.3,0.6-10.9c0-0.2,0-0.4,0-0.5
	c0,0,0.7,0,0.7,0c0.5,0,1,0,1.5,0c0.7,0,1.3,0.1,2,0.1c0.7,0,1.3,0,1.9-0.1c2.8-0.3,5.5-0.7,8.3-1.3c2.3-0.5,4.2-1.7,5.3-3.7
	c1.4-2.3,0-3.5-0.5-3.8l-0.4-0.3c-2.2-1.4-4.4-2.9-7.2-3.1c-0.4,0-0.8,0-1.3,0c-1.8,0-3.7,0.2-5.5,0.3h-0.2
	c-0.8,0.1-1.5,0.3-2.3,0.4c-0.4,0.1-0.8,0.2-1.2,0.3c-0.2,0-0.4,0.1-0.6,0.1c0-0.1,0-0.3,0-0.5c0-0.4,0.1-0.8,0.1-1.2
	c0.1-1,0.2-2,0.2-3c0-4.2,0-8.7,0-14.3c0-1.8,0-3.4-0.2-4.8c-0.3-3.5-0.5-7-0.8-10.5c-0.3-4.2-0.7-8.4-1-12.6c0-0.1,0-0.5,0-0.7
	c0.3,0,0.6,0,1,0.1c3.5,0.3,7.1,0.6,10.9,0.8c1.8,0.1,3.7,0.1,5.5,0.2c0.7,0,1.4,0,2,0c1.8,0,3.6,0.1,5.4,0.1
	c3.2,0.1,6.6,0.2,9.9,0.2c1.1,0,2.2,0,3.3,0c4.8-0.1,8.7-1.6,11.8-4.3c1.6-1.5,1.9-2.8,1.8-3.7C90.3,28.8,89.9,27.5,88.2,26.2
	L88.2,26.2z"/>
<path class="st0" d="M504.8,28.1c0-0.1,0.1-0.1,0.1-0.2c0.1-0.2,0.2-0.4,0.2-0.7c0-1.9-0.3-3.8-3.2-4.3c-2.9-0.4-5.6-0.9-8.4-0.9
	c-4.2-0.1-8.3-0.1-12.3-0.1h-4.4c-1.7,0-3.6,0-5.4,0.2c-6,0.8-12.2,1.6-18.1,2.4l-3,0.4c-1.4,0.2-2.7,0.4-4,0.7
	c-2,0.5-3.1,1.8-3.2,3.5c0,1.8,1.1,3.2,3,3.7c1.4,0.4,3,0.7,4.5,0.8c3.7,0.3,6.8,0.5,9.7,0.5c2.5,0,4.9-0.1,7.1-0.3
	c0.4,0,0.7-0.1,1-0.1c0,0.3,0,0.7,0.1,1c0.5,11.7,0.9,23.5,1.4,35.2l0,1.2c0.1,3.6,0.3,7.2,0.4,10.7l0.2,4.9
	c0.1,2.4,0.2,4.7,0.3,7.1c0.2,5.1,0.5,10.4,0.5,15.5c0,14.1,0.1,31.7,1.7,48.5c0.5,4.9,1,9.9,1.6,14.8l0.4,3.4
	c0.1,0.7,0.2,1.6,0.6,2.4c1,1.8,2.4,2.8,4.2,2.9c0,0,0.1,0,0.1,0c1.9,0,3.6-1.5,4.1-3.6c0.4-1.4,0.7-2.9,0.5-4.3
	c-0.3-2.3-0.2-4.6-0.1-6.9c0.1-1.2,0.1-2.5,0.1-3.8c0-2.3-0.1-4.6-0.1-6.9c-0.1-2.9-0.1-5.9-0.1-8.9c0-6.7,0-13.8,0.2-20.8
	c0.4-14.2,0.2-29.3-0.8-49c-0.2-3.6-0.3-7.2-0.5-10.9c-0.2-4.7-0.4-9.6-0.6-14.4c-0.3-5-0.7-10-1.2-14.9l-0.3-3c0-0.1,0-0.1,0-0.2
	c0,0,0.8,0,0.8,0c2.3,0,4.6-0.1,7-0.2c2.4-0.2,4.9-0.3,7.4-0.7c2.7-0.4,5.1-1.5,7.2-3C504.1,29,504.5,28.4,504.8,28.1L504.8,28.1z"
	/>
<path class="st0" d="M70.3,172.6c-1.4-1-3-1.8-4.4-2c-2.4-0.4-4.8-0.5-7.2-0.5c-0.9,0-1.8,0-2.7,0c-1.2,0-2.3,0-3.5,0
	c-1.2,0-2.3,0-3.5,0c-1.3,0-2.6,0-4,0c-1.3,0-2.7,0-4,0c-1.5,0-2.8,0-4.1,0.1c-4.5,0.2-9.1,0.5-13.5,0.8c-2.7,0.2-5.4,0.4-8.1,0.5
	l-0.3,0c-0.5,0-0.9,0.1-1.3,0.1h-0.1c0-0.2,0-0.5,0-0.8l0-0.8c0.1-8.8,0.2-17.6,0.3-25.2l0.1-7.4v-34.9c0-1.5,0-3.1,0-4.6
	c0-3.2,0-6.4,0-9.7c0.1-4.1,0.1-8.2,0.2-12.3c0-2,0.1-3.9,0.1-5.9c0-1.2,0-2.4,0-3.6c0-2.6,0-5.2,0.3-7.8c0.4-3.6,0.3-7.4-0.3-12.2
	c-0.1-0.5-0.1-1-0.1-1.4c-0.1-0.7-0.1-1.3-0.2-2l-0.2-1.3c-0.5-3.3-1-6.7-1.6-10c-0.2-1.2-0.9-2.3-1.5-3c-0.8-1-2.1-1.6-3.4-1.6
	c-1,0-1.8,0.4-2.3,1c-0.2,0.2-0.4,0.5-0.6,0.7c-1.1,1.4-2.4,2.9-2.3,5.2c0,1.2,0,2.4-0.1,3.7c-0.1,1.2-0.2,2.5-0.1,3.8
	c0.2,6.2,0.4,12.6,0.7,18.5C3,61.4,3.1,62.7,3.2,64c0.2,1.7,0.3,3.5,0.3,5.2c0.1,9,0.1,17.9,0.1,26.9c0,6.6,0,13.1,0.1,19.7
	c0,1.7,0.1,3.3,0.2,4.9c0.1,1.5,0.1,3,0.2,4.4c0,2.5,0,5.1,0,7.6c0,2.6,0,5.2,0,7.8c0.1,5.1,0.2,10.2,0.2,15.3
	c0.1,2.6,0.1,5.2,0.1,7.9c0.1,3.4,0.1,6.8,0.1,10.1c0,0.5-0.1,1.1-0.2,1.8c-0.6,2.5-0.1,4,0.6,4.9c0.6,0.9,1.8,1.9,4.3,2.1
	c5.2,0.5,10.4,0.8,14.3,1c0.2,0,0.5,0,0.8,0c0.8,0,1.6-0.1,2.4-0.1c0.7-0.1,1.4-0.1,2.1-0.1c3.2,0,6.4,0,9.6,0
	c5.3,0,10.8,0,16.2-0.1c4-0.1,8-0.4,11-0.7c1.3-0.1,2.8-0.6,4.1-1.3c1.8-1,2.9-2.5,3-4.2C72.8,175.5,71.9,173.9,70.3,172.6
	L70.3,172.6z"/>
<path class="st0" d="M197.1,57.4c0.9-0.4,1.4-1.1,1.5-1.9c0.1-0.8-0.4-1.6-1.2-2.1c-0.9-0.6-1.7-1-2.5-1.1c-1.4-0.3-3.2-0.6-5-0.7
	c-1.9-0.1-3.8-0.2-5.6-0.2c-1.1,0-2.2,0-3.2-0.1c-1.6-0.1-3.3-0.1-4.9-0.2c-3.2-0.1-6.4-0.3-9.7-0.3c-0.4,0-0.9,0-1.3,0
	c-2.8,0-5.7,0.1-8.5,0.2l-3.3,0.1c-4.3,0.2-8.8,0.4-13.2,0.7c-2.8,0.2-5.7,0.7-8.4,1.1c-0.8,0.1-1.5,0.2-2.2,0.3
	c-0.8,0.1-1.7,0.4-2.4,0.9c-1.3,0.8-2,2.2-2,3.6c0,1.3,0.8,2.5,2,3.3c1.2,0.7,2.7,1.2,4.2,1.3c3.2,0.2,6.5,0.4,9.6,0.5
	c1.2,0.1,2.4,0.1,3.7,0.2c0,0,0,0,0.1,0c0.3,0,0.5-0.1,0.7-0.3h4.4c1.2,0,2.3,0,3.5,0c0.3,0,0.8,0,1,0c0,0.2,0.1,0.6,0.1,1
	c0.1,2.2,0.2,4.4,0.3,6.5c0.2,5.6,0.5,11.4,0.8,17.1c0.2,3.3,0.4,6.7,0.6,9.9c0.3,3.7,0.5,7.6,0.7,11.4c0.3,5.2,0.5,10.6,0.7,15.8
	c0.2,4.9,0.4,10,0.6,14.9c0.2,4.6,0.5,9.9,1.2,14.9c0.9,6.2,1.4,12.4,1.4,18.5c0,1.5,0.2,3.1,0.5,4.6c0.5,3.3,1.7,4.3,5.1,4.6
	c0.2,0,0.5,0,0.7,0c1.6,0,3.7-0.6,4.2-3.7c0.2-1,0.2-2.1,0.1-3.1c-0.1-1.1-0.1-2.2-0.2-3.3c-0.1-1.2-0.2-2.5-0.2-3.7
	c-0.1-3.2-0.2-6.4-0.3-9.6c-0.1-3.8-0.2-7.7-0.4-11.5c-0.1-3-0.3-6-0.4-9c-0.2-4.7-0.5-9.6-0.6-14.4c-0.1-5.2-0.2-10.4-0.2-15.5
	c-0.1-5-0.1-10.2-0.2-15.2c-0.1-4.2-0.4-8.4-0.7-12.5l-0.2-3.1c-0.2-3.1-0.5-6.1-0.7-9.2c-0.1-1.7-0.3-3.4-0.4-5.1
	c0-0.3-0.1-0.6-0.1-0.9c0.2,0,0.6,0,0.8,0c1.1,0,2.2,0,3.3,0c1.4,0,2.7,0,3.9,0.1c0.5,0,1.1,0,1.6,0c5.1,0,10.2-0.9,15.2-2.6
	C193.1,59.1,195.1,58.3,197.1,57.4L197.1,57.4z"/>
<path class="st0" d="M583.1,11.2c-0.4-1.5-1.6-2.4-3.2-2.4c-0.1,0-0.2,0-0.4,0c-1,0.1-2.1,0.3-3.1,0.7c-1.5,0.6-3,1.3-4.5,1.9
	c-1,0.4-2,0.8-2.9,1.2c-0.1,0-0.2,0.1-0.3,0.1c0-0.3,0-0.5,0-0.8c0-0.6,0-1.1,0.1-1.7c0-0.9,0.1-1.8,0.1-2.7c0-2.3-1.4-3.1-2.3-3.3
	c-0.4-0.1-0.7-0.1-1.1-0.1c-1.3,0-2.5,0.6-3.1,1.7c-0.3,0.6-0.5,1.2-0.7,2.1l-0.1,0.5c-0.3,2-0.6,4.1-0.8,6.2
	c-0.1,1.1-0.6,1.7-1.7,2.2c-2.2,0.9-4.3,1.8-6.4,2.7c-1,0.4-2,0.8-2.9,1.2l0.1-1.3c0.1-2.1,0.2-4.3,0.3-6.4l0.1-1.8
	c0.1-2.1,0.2-4.2,0.2-6.3c0-2.3-0.8-3.4-3-3.6c-0.3,0-0.6,0-0.9,0c-2.3,0-2.9,1.6-3.2,3c-0.2,0.9-0.3,1.7-0.4,2.4
	c-0.3,2.8-0.6,5.7-0.9,8.5c-0.2,2.4-0.5,4.8-0.8,7.3c-0.1,1.1-0.3,1.7-0.9,2c-1.9,1-4,2.1-6.4,3l0.3-5.7c0.3-4.7,0.5-9.4,0.8-14.1
	c0-0.9,0-1.9-0.2-2.9c-0.3-1.6-1.6-2.6-3.3-2.7c-0.1,0-0.2,0-0.3,0c-1.6,0-2.8,0.9-3.3,2.3c-0.4,1-0.6,2.1-0.6,3.1
	c-0.4,6.8-0.8,13.8-1.2,21.3c-0.1,1.7-0.7,2.7-1.9,3.3l-0.4,0.2c-1.2,0.6-2.5,1.2-3.7,1.8c0-0.4,0-0.8,0-1.2l0.2-18.9
	c0-0.7,0-1.4,0-2.1c-0.1-1.6-1.1-2.7-2.6-2.8c-0.1,0-0.2,0-0.3,0c-1.4,0-2.5,0.7-2.9,2c-0.3,0.9-0.6,1.9-0.6,2.8
	c-0.2,1.9-0.3,3.8-0.4,5.6c-0.1,1.2-0.2,2.5-0.2,3.7c-0.1,1.2-0.2,2.4-0.3,3.5c-0.2,2.5-0.5,5.1-0.4,7.7c0.1,3-1.1,4.7-4.2,6.1
	c-2.1,1-4,2.3-5.9,3.6l-1.1,0.7c-2.6,1.8-2.3,3.9-1.6,5.4c0.2,0.4,0.6,0.6,1,0.6c0.1,0,0.3,0,0.5-0.1c0.6-0.3,1.2-0.5,1.8-0.8
	c1.4-0.6,2.7-1.2,4-1.7c0.7-0.2,1.3-0.5,2-0.8c0.9-0.4,1.7-0.8,2.6-1c0,0.8,0,1.5,0.1,2.3c0.3,2.7,0.7,5.4,1.2,8
	c0.2,0.9,0.6,1.8,1.2,2.6c0.6,0.8,1.4,1.2,2.3,1.2c1.1,0,2.1-0.7,2.6-1.8c0.3-0.6,0.3-1.2,0.4-1.6c0.1-1.6,0.2-3.2,0.3-4.8
	c0,0,0.1-2.2,0.2-3c0.1-1.9,0.2-3.8,0.4-5.7c0.1-0.7,0.3-1.2,0.4-1.2c1.5-1.1,2.8-1.8,4.2-2.2c0,0.7,0,1.4,0,2.1
	c0,1.1-0.1,2.1-0.2,3.2c-0.1,2.2-0.3,4.5-0.2,6.8c0.1,2.3,0.6,4.6,1.1,6.8l0.3,1.3c0.2,0.8,1.2,2.3,2.3,2.3c0.1,0,0.2,0,0.2,0
	c1-0.2,2-1,2.5-1.8c0.4-0.7,0.6-1.5,0.7-2.1c0-0.2,0.1-0.3,0.1-0.5c1.2-6,1.5-12,1.5-16.5c0-1.5,0.1-2.9,0.1-4.4
	c0-1.1,0.3-1.4,0.5-1.5c1.8-0.8,3.6-1.7,5.6-2.5c0.3-0.1,0.6-0.3,0.9-0.4c0,0.4,0,0.8,0,1.2c0,1.4,0,2.8,0,4.2c0,3.5,0,7.1-0.1,10.6
	c-0.1,3,0.6,5.8,1.2,8.5c0.1,0.5,0.2,0.9,0.4,1.2c0.5,1,1.3,1.5,2.1,1.5c0.8,0,1.4-0.5,1.9-1.2c0.7-1.3,1.2-2.7,1.3-4l0-0.3
	c0.8-6.9,1.7-14,1.8-21c0-0.6,0-1.2,0.1-1.8c0-0.3,0-0.7,0.1-1c0.1-1.3,0.6-2,1.8-2.5c1.9-0.7,3.8-1.5,5.6-2.3
	c0.9-0.4,1.9-0.8,2.8-1.2c0.1,0,0.2-0.1,0.2-0.1c-0.1,1.6-0.2,3.3-0.4,5c-0.3,3.7-0.6,7.5-0.8,11.3c-0.2,4.5-0.3,9.2-0.2,14.9
	c0,1.4,0.7,2.7,1.3,3.9c0.5,1,1.6,1.6,2.7,1.6c0.2,0,0.5,0,0.8-0.1c1.4-0.3,2.3-1.3,2.6-2.6c0.2-1.1,0.4-2.2,0.4-3.3
	c0-10.9,0.9-21.9,1.6-31.6c0.1-2,0.9-3,2.7-3.7c2.3-0.9,4.6-1.9,6.8-2.9c0.8-0.4,1.7-0.7,2.5-1.1c0.5-0.2,1.2-0.5,1.8-0.9
	C583,14.2,583.6,12.8,583.1,11.2L583.1,11.2z"/>
<path class="st0" d="M328.7,152.3c-0.1-1.8-0.2-3.6-0.4-5.4v-0.1c-0.1-1.2-0.2-2.5-0.4-3.7c-0.2-1.7-0.3-3.4-0.5-5.1
	c-0.1-1-0.1-2.1-0.2-3.1c0-1-0.1-1.9-0.2-2.9c-0.1-1.6-0.3-3.2-0.4-4.8c-0.3-3-0.5-6.1-0.7-9.1c-0.2-3.6-0.1-7.2-0.1-10.8
	c0-1.1,0-2.2,0-3.2c0-2.2,0-4.6,0.1-7c0.3-5,0.6-10.1,0.9-15.1l0.4-5.9c0.1-6.1-0.4-12.3-0.9-18.3c-0.2-2.6-0.4-5.2-0.6-7.8
	c-0.1-2.2-0.4-4.3-0.7-6.4l-0.2-1.8c-0.5-3.5-1-7.1-1.6-10.7c-0.2-1.4-0.7-2.9-1.5-4.7c-0.8-1.8-2.4-2.8-4.5-2.9h-0.2
	c-1.8,0-3.3,0.9-4.1,2.5c-0.9,1.9-1.9,3.9-1.7,6.2c0,0.7,0.1,1.4,0.1,2.1c0.1,1.5,0.1,2.9,0.2,4.4c0.1,1.9,0.3,3.8,0.4,5.7
	c0.1,1.3,0.2,2.6,0.3,3.9c0.2,2.6,0.4,5.2,0.6,7.8c0.3,4.7,0.7,9.3,1.1,13.9c0.6,7.1,1.1,14.7,0.8,22.2c0,0.9-0.1,1.8-0.2,2.6
	c-0.1,1.4-0.2,2.8-0.2,4.2c0.1,5.9,0.2,11.9,0.3,17.8l0.1,5.4c0,0.6,0.1,1.2,0.1,1.7c0.3,2.5,0.6,5.1,1,7.6c0.7,5.5,1.4,11.3,2,16.9
	c0.7,7.3,1.1,14.8,1.5,22.1l0,0.7c0.2,2.9,1.1,5.4,2.1,7.8c0.5,1.4,1.6,2.2,3,2.2c0,0,0.1,0,0.1,0c1,0,2.2-0.4,3-2.1l0.1-0.1
	c0.1-0.2,0.2-0.4,0.3-0.6c1.2-3,1.8-5.7,1.7-8.3C329.3,164.7,329,159.1,328.7,152.3L328.7,152.3z"/>
<path class="st0" d="M230.5,93.7c0-0.3-0.1-0.6-0.4-0.8s-0.6-0.3-0.9-0.3c0,0-0.4,0-0.4,0c-0.2,0-0.6,0-0.9,0.2
	c-0.7,0.3-1.3,0.6-2,0.9c-1.1,0.6-2.2,1.1-3.4,1.5c-2.6,0.9-4.6,1.4-6.5,1.4c-1.5,0-2.8-0.3-4.1-0.8c-1.6-0.7-3.2-1.4-5.1-2.4
	c-2.6-1.3-5.2-2-7.8-2c-0.3,0-0.7,0-1,0c-4.1,0.3-8.4,1.5-13.3,3.9c-0.7,0.4-1.4,0.9-1.8,1.6s-0.6,1.8-0.1,2.6
	c0.4,0.7,1.4,1.2,2.3,1.2l0,0c0.6,0,1.1-0.2,1.5-0.4c0.2-0.1,0.3-0.2,0.5-0.2l1.7-0.5c1.9-0.6,3.8-1.2,5.7-1.8
	c1.4-0.4,2.8-0.6,4.2-0.6c2.3,0,4.6,0.7,6.7,1.9c0.8,0.5,1.7,1,2.8,1.6c2.5,1.3,5,1.9,7.2,1.9c0.1,0,0.2,0,0.4,0
	c4.5,0,8.4-1.5,12.3-4.7c0.9-0.7,1.5-1.6,2.1-2.3c0.4-0.5,0.3-1.1,0.3-1.5C230.5,93.9,230.5,93.8,230.5,93.7L230.5,93.7z"/>
<path class="st0" d="M227.5,124.7l-0.4-0.2c-0.2-0.1-0.4-0.2-0.6-0.2c-0.2,0-0.4,0-0.5,0.1c-0.7,0.4-1.5,0.7-2.2,1.1
	c-1.5,0.8-3.1,1.6-4.7,2.4c-1.6,0.8-3.3,1.2-5,1.2c-1.4,0-2.9-0.3-4.4-0.9c-1.8-0.7-3.7-1.3-5.9-1.8c-2.1-0.5-4.3-0.7-6.3-0.7
	c-4.4,0-8.6,1.1-12.6,3.2c-0.9,0.5-1.7,1.1-2.3,1.8c-0.6,0.6-0.8,2.1-0.2,2.9c0.4,0.5,1.3,1.1,2.2,1.1c0.1,0,0.3,0,0.4-0.1
	c0.8-0.2,1.5-0.5,2.2-0.9c0.3-0.1,0.6-0.3,0.9-0.4c2.9-1.2,5.9-1.9,8.9-1.9c2.2,0,4.4,0.3,6.6,1c1.2,0.4,2.4,0.8,3.6,1.2
	c0.7,0.2,1.4,0.5,2,0.7c1.8,0.6,3.4,0.9,5,0.9c1.4,0,2.7-0.2,4-0.7c3.5-1.3,6.5-3.5,9-6.6c0.3-0.4,0.5-0.9,0.7-1.3
	c0.1-0.1,0.1-0.3,0.2-0.4C228.2,125.6,228,125,227.5,124.7L227.5,124.7z"/>
<path class="st0" d="M201.3,123.7c0.2,0,0.4,0,0.5-0.1c1.9-0.4,2-2.2,2.1-2.9c0-0.3,0-0.6,0-0.9c0-0.2,0-0.5,0-0.7
	c0-0.7,0.1-1.5,0.1-2.2c0.7,1,1.4,1.9,2.1,2.8c0.8,1.1,1.7,2,2.6,2.8c0.6,0.6,1.5,0.6,1.8,0.6c0.2,0,0.4,0,0.6-0.1
	c1.2-0.3,1.3-2,1.3-2.2c0.1-3,0.2-6.2,0.3-9.4c0-1.2-0.1-2.3-0.3-3.4l0-0.1c-0.1-0.5-0.2-1.2-0.6-1.9c-0.4-0.7-1.1-1.1-1.9-1.1
	c-0.8,0-1.6,0.5-2,1.4c-0.3,0.7-0.4,1.4-0.5,2c-0.1,0.9-0.3,1.9-0.4,2.9c-0.9-1.2-1.8-2.4-2.7-3.6c-0.1-0.1-0.2-0.3-0.3-0.4
	c-0.5-0.7-1.3-1.8-2.6-1.8c-0.3,0-0.6,0.1-0.9,0.2c-1.8,0.7-1.9,2.7-2,4c0,0.7-0.1,1.5-0.1,2.2c-0.1,1.6-0.2,3.2-0.2,4.8
	c0,1.4,0.2,3,0.6,4.6C199,122.8,200,123.7,201.3,123.7L201.3,123.7z"/>
<path class="st0" d="M193.9,122.5c-0.3-0.9-0.5-1.9-0.8-2.8c-0.7-2.6-1.5-5.3-2.4-7.9c-0.8-2.1-2-3.9-3.2-5.7l-0.1-0.2
	c-0.6-0.8-1.4-1.3-2.2-1.3c-1.1,0-2.1,0.8-2.5,2.1c-0.1,0.3-0.1,0.6-0.1,0.8l-1.6,12v2.2c0,0,0,0,0,0c0.1,0.8,0.2,1.7,0.5,2.6
	s1,1.5,1.9,1.5c0.7,0,1.3-0.3,1.8-0.9c0.3-0.5,0.6-1,0.8-1.8c0.3-1.2,0.7-2.6,0.9-3.9c0-0.1,0-0.1,0-0.1c0.1,0,0.2,0,0.3,0h0.4
	c0.2,0,0.2,0,0.2,0.1c0.4,0.9,0.8,2,1.4,3c0.5,0.9,1.2,1.6,1.8,2.2c0.2,0.2,0.5,0.4,1.1,0.4c0.3,0,0.7-0.1,1-0.2
	C193.8,124.2,194.1,123.1,193.9,122.5L193.9,122.5z M185.9,115.1V111l1.6,4.1H185.9z"/>
<path class="st0" d="M225.6,105.1c-1.9-0.8-3.2-1.2-4.3-1.2c-3.5,0-3.7,4-3.9,6.2c-0.1,2.3,0.4,4.6,0.9,6.9c0.1,0.5,0.3,1.1,0.4,1.6
	c0.5,2.5,1.7,2.7,4,2.7h0.1c0.1,0,0.2,0,0.2,0c0.1,0,0.1,0,0.2,0c0.4-0.1,1.1-0.1,1.7-0.4c3.4-1.6,5.2-4.3,5.3-7.7
	C230.4,109.3,228.7,106.4,225.6,105.1L225.6,105.1z M224,115.3l-0.3,0.4l-0.8-6.1C224.8,111.1,225.3,113.5,224,115.3z"/>
</svg>
