<?xml version="1.0" encoding="utf-8"?>
<!-- Generator: Adobe Illustrator 28.0.0, SVG Export Plug-In . SVG Version: 6.00 Build 0)  -->
<svg version="1.1" id="Calque_1" xmlns="http://www.w3.org/2000/svg" xmlns:xlink="http://www.w3.org/1999/xlink" x="0px" y="0px"
	 viewBox="0 0 679.6 427.9" style="enable-background:new 0 0 679.6 427.9;" xml:space="preserve">
<style type="text/css">
	.st0{opacity:0.6;}
	.st1{fill:#FFFFFF;}
</style>
<path class="st0" d="M670.9,12.1l-9,2.2c-0.3-9.7-8.5-9.7-36.4-9.7c-15.3,0-24.1,9.3-28.2,15.1H77.1v408.1h525v-338L657,79l6.7-38.9
	c0,0,2.6-5,9.8-12.5C680.7,20.1,676.6,9.8,670.9,12.1z"/>
<path class="st1" d="M379.7,45c-4.3-3-9.5-6.3-15.4-7.7c-0.4-0.1-0.7-0.2-1.1-0.3c-6.7-2.7-14.1-4-22.5-4c-1.5,0-3,0-4.5,0.1
	c-1.1,0-2.2,0.3-3.4,0.8c-2.3,0.9-3.8,2.6-4.3,4.9c-0.2,1.1-0.6,2.2-1,3.3c-0.2,0.7-0.5,1.4-0.7,2.1c-0.3,0.8-0.5,1.8-0.6,2.8
	c-0.4,6.3-0.4,12.8,0.2,19.1c0.8,9.8,1.5,19.3,1.2,29c0,1.4-0.1,2.8-0.1,4.2c-0.1,2.5-0.2,5-0.2,7.5c0,1.6,0,3.2,0,4.8
	c0,6.3-0.1,12.8,0.1,19.2c0.2,6.6,0.6,13.3,1.1,19.8c0.2,2.6,0.3,5.2,0.5,7.7c0.1,1.5,0.2,3,0.3,4.5c0.2,2.3,0.3,4.8,0.4,7.1
	c0.1,1.7,0,3.4-0.2,5.3c-0.6,5.6-1,10.6-0.1,15.9c0.2,1.3,0.8,2.6,1.7,4.2c0.6,1,1.6,1.6,2.8,1.6c0.5,0,1-0.1,1.5-0.4
	c1.2-0.6,2.5-1.4,2.9-2.6c0.2-0.7,0.5-1.3,0.8-2c0.8-2,1.7-4,1.6-6.4c-0.1-1.1-0.1-2.2-0.2-3.2c-0.1-2.2-0.3-4.4-0.3-6.6
	c-0.1-5.9-0.1-12.2,0-18.4c0.1-5.2,0.3-10.5,0.5-15.7c0.1-3.1,0.2-6.2,0.3-9.3c0-0.6,0-1,0-1.4c0-0.3,0-0.6,0-0.8
	c0.2-0.1,0.5-0.1,0.9-0.2c0.4-0.1,0.8-0.1,1.3-0.2l1-0.2c4.4-0.9,9-1.9,13.2-4.1c0.5,1.5,0.9,3,1.4,4.5c1,3.3,2.1,6.8,3.4,10.1
	c3.6,9.5,6.7,19.3,9.8,28.8c0.5,1.7,1.1,3.4,1.6,5.2c1.7,5.4,3.7,11.2,6.6,16.6c1,1.9,2.3,3.5,3.8,4.8c0.7,0.6,1.7,1.1,2.6,1.2
	c0.2,0,0.5,0.1,0.7,0.1c1.4,0,2.7-0.6,3.6-1.6c1.1-1.2,1.6-2.8,1.5-4.6c-0.2-2.8-0.9-5.1-2.2-7.2c-0.9-1.4-1.4-2.4-1.8-3.5
	c-1.2-3.5-2.4-6.9-3.5-10.4c-1.1-3.2-2.1-6.4-3.2-9.6l-1-3c-1.6-4.7-3.3-9.5-5.1-14.2c-2.2-5.5-4.5-11-6.7-16.3
	c-0.9-2.1-1.8-4.2-2.6-6.3c0,0,0.1-0.1,0.1-0.1c0.5-0.3,0.8-0.6,1.2-0.8c4.1-2.6,7.6-5.9,10.5-9.8c2.2-3.1,4.9-6.7,7.3-10.6
	c4.8-7.6,7.6-14.8,8.6-21.8c0.8-5.6,1.1-12.9-2.7-19.5C388.1,52.4,384.2,48.2,379.7,45L379.7,45z M340.8,117.5c0-0.2,0-0.4,0-0.8
	c0.1-3.5,0.2-7,0.3-10.5l0.1-4.3c0-0.2,0-0.4-0.2-0.6l0.2-6.2c0.2-5.5,0.4-10.9,0.6-16.4c0.2-6.2,0-11.4-0.7-16.3
	c-0.2-1.7-0.3-3.6-0.3-5.3c0-1-0.1-1.9-0.1-2.9c-0.1-1.8-0.2-3.5-0.4-5.3l-0.2-2.5c0,0,0-0.1,0-0.2c0-0.3,0-0.6,0-0.9
	c0.2,0,0.5,0.1,0.9,0.1c1.2,0.2,2.5,0.3,3.7,0.5c2.8,0.4,5.8,0.8,8.6,1.3c6.8,1.3,13.1,4,18.9,7.9c0.7,0.5,1.4,1.2,1.9,1.8
	c0.4,0.5,0.9,1,1.3,1.4c0.7,0.8,1.3,1.5,2.1,2.3c3.4,3.2,4.6,7.3,3.9,13.4c-0.7,6-3,11.8-7.4,18.7c-1.3,2.1-2.7,4.1-4.1,6.1
	l-0.8,1.2c-2.8,4-6.2,7.3-10.1,9.6l-0.7,0.4c-0.9,0.5-1.8,1.1-2.7,1.7c-4.4,3.3-9.7,4.7-14.2,5.6C341.2,117.4,341,117.5,340.8,117.5
	L340.8,117.5z"/>
<path class="st1" d="M525,138.6c-0.2-8-0.2-16.1-0.2-23.9c0-5.2,0-10.4-0.1-15.7c0-4.6-0.3-9.3-0.5-13.8l0-1.1
	c-0.1-2-0.2-3.9-0.3-5.9c-0.2-2.4-0.3-4.9-0.4-7.3c-0.3-9-1-16.4-2.3-23.2c-0.5-2.7-1.2-5.4-2-8.2c-0.7-2.2-2.4-3.6-4.5-3.6
	c-0.5,0-1,0.1-1.6,0.2c-1.8,0.5-3,1.9-3.5,4c-0.7,2.6-0.5,5.2-0.4,7.8l0,0.9c0.4,6.9,0.8,13.9,1.1,20.8l0.3,5.9
	c0.1,2.5,0.3,5.1,0.5,7.6c0,0.4,0,0.5,0,0.5c0,0-0.2,0.1-0.5,0.1c-3,0.4-6.2,1-10,1.9c-4.8,1.1-9.8,1.4-14.6,1.7l-0.4,0
	c-0.1,0-0.1,0-0.2,0c0,0,0-0.1,0-0.2l-0.1-1c-0.2-2.8-0.3-5.5-0.5-8.2c-0.4-6.6-0.8-13.4-1.3-20.1c-0.3-4.1-1-8.2-1.7-12.2l-0.3-1.8
	c-0.2-1.2-0.7-2.4-1.6-3.7c-1-1.5-2.5-2.3-4.1-2.3c-1.5,0-2.9,0.7-3.9,2c-0.4,0.5-1.5,2-1.6,3.6c-0.2,2.4-0.2,5,0,8.2
	c0.3,7.6,0.7,15.8,1.2,25.2c0.2,4.3,0.5,8.7,0.8,12.5c0.1,1.8,0.3,3.7,0.5,5.6c0.2,2.8,0.5,5.8,0.7,8.7c0.1,2,0.2,4.1,0.2,6.2
	c0.1,3,0.1,6.2,0.5,9.2c0.6,6.3,1,12.7,1,19.7c0,4.1,0.2,8.2,0.5,12.3c0.5,6.9,1,13.3,1.6,19.5c0.6,6.1,1.2,11.6,1.9,16.9
	c0.3,2.1,1.1,4,1.8,5.5c0.7,1.6,2.7,2.6,4.2,2.6c0.5,0,1-0.1,1.3-0.3c1.4-0.8,3.3-2.1,3.4-4.7l0-0.4c0-0.9,0.1-1.9,0.1-2.8
	c-0.2-5.5-0.5-11.3-0.8-17.2c-0.1-2-0.2-4-0.4-6.1c-0.1-1.7-0.2-3.4-0.3-5.1c-0.1-1.3-0.2-2.6-0.2-3.9c-0.2-3.4-0.5-6.9-0.5-10.4
	c0-8.3,0-17.8-0.9-27.2c-0.4-4.5-0.5-9.1-0.5-13.6c0-1.9,0-3.7-0.1-5.6c0-0.1,0-0.3,0-0.5c0.2,0,0.7,0,0.7,0c1.1,0,2.2-0.1,3.2-0.1
	c2.8-0.1,5.7-0.1,8.5-0.5c3.3-0.4,6.4-1.1,9.7-1.9c1-0.2,2-0.4,3-0.7c0,1.4,0.1,2.7,0.1,4.1c0.1,3.9,0.2,8,0.3,11.9
	c0.1,9,0.2,18.2,0.2,27v1.4c0.1,7.5,1,15,1.8,22.2c0.2,2,0.5,3.9,0.7,5.9c1,7.8,2,15.8,2.1,23.7c0,1.5,0.5,3,1,4.4l0.1,0.2
	c0.6,1.9,2.2,3,4.4,3.2c0.2,0,0.3,0,0.5,0c2.1,0,3.7-1.1,4.5-2.9c0.6-1.4,0.9-3.1,0.9-4.7c0.2-11.7-0.8-23.5-1.8-33.4
	C525.7,151.1,525.1,144.9,525,138.6L525,138.6z"/>
<path class="st1" d="M466.5,127.6c-0.1-4.4-0.5-9.2-1.1-15.1c-0.4-3.6-2.5-5.5-5.8-5.5c-0.4,0-0.8,0-1.1,0.1c-1,0.1-2,0.2-2.9,0.3
	c-0.9,0.1-1.8,0.2-2.8,0.3c-0.8,0.1-1.6,0.2-2.2,0.5c-2.9,0.9-4.7,3.3-4.5,5.9c0.2,2.4,2.2,4.5,5,5.2c0.5,0.1,1.1,0.2,1.5,0.2
	c0.4,0,0.7,0,1.1,0c0.2,0,0.4,0,0.6,0c0.3,0,0.6,0,0.8,0c0.1,0,0.2,0,0.3,0c0,0.2,0,0.4,0,0.7l0,0.6c0,0.7,0,1.4,0,2.2
	c0,0.7,0,1.3,0,2l0.1,2.2c0.2,5.9,0.4,11.9,0.6,17.9c0.1,2.4,0.2,5.1,0.6,7.6c0.9,6.5,1,13.5,0.3,21.3c-0.2,2.3-0.6,4.4-1.2,6.4
	c-0.6,2.2-2.4,3.5-4.5,3.5c-1,0-1.9-0.3-2.8-0.8l-0.6-0.3c-0.6-0.4-1.2-0.7-1.8-1.1c-2.1-1.5-3.8-3.5-5-5.8c-1.3-2.6-2-5.4-2.1-8.3
	c-0.1-2.9-0.5-15.1-0.5-15.1c0-0.7,0-1.3,0-2c0-1.3,0-2.7-0.1-4.1c-0.4-4.9-0.8-9.9-1.2-14.8c-0.2-2.9-0.5-5.7-0.7-8.5
	c-0.1-1.4-0.2-2.8-0.3-4.2c-0.2-2.6-0.4-5.2-0.7-7.8c-0.4-3.7-0.6-7.6-0.4-12.3c0.1-6.2,0.2-12.5,0.2-18.5c0-2.2,0-4.3,0-6.5
	c0-0.3,0-0.7-0.1-0.9c0-0.2,0-0.3-0.1-0.4c-0.1-1.4-0.2-2.8-0.3-4.1c-0.2-3.2-0.5-6.6-0.5-9.8c0-4.2,1-8,3.2-11.2
	c0.6-0.8,0.9-1.2,1.1-1.2c0.4,0,1.1,0.4,1.4,0.5c2.9,1.4,5.2,3.5,6.8,6.1c0.2,0.3,0.4,0.7,0.6,1c0.6,1,1.2,2.1,2.1,3.1
	c0.9,1.1,2.1,1.7,3.4,1.7s2.6-0.6,3.5-1.8c0.8-1,1.4-2.4,1.5-3.6c0.4-3.5-0.7-6.7-3.1-9.5c-4.1-4.7-8.6-7.7-13.8-9.1
	c-1-0.3-2-0.4-2.9-0.4c-2.7,0-5.1,1.1-7.3,3.5c-4.5,4.8-7.1,10.9-7.9,18c-0.4,3.5-0.2,7-0.1,10.4c0,1.1,0.1,2.2,0.1,3.3
	c0,1.7,0.1,3.5,0.2,5.2c0.1,1.6,0.2,3.3,0.2,4.9c0.1,2.4,0,4.8,0,7.2c0,0.9,0,1.8,0,2.7c-0.1,0.1-0.1,0.3-0.1,0.4c0,0,0,4.9,0,6.2
	c0,1.3,0,2.6,0,3.9c0,2.8-0.1,5.8,0,8.7c0.2,4.3,0.5,8.6,1,13.3c0.2,2.2,0.5,4.4,0.7,6.5c0.2,1.7,0.4,3.4,0.6,5.1l0.3,2.6
	c0.5,4.8,1,9.8,1.4,14.8c0.2,2.5,0.3,5.1,0.5,7.6c0.2,3.4,0.3,6.9,0.7,10.3c0.5,5.2,1.8,11.8,7.1,16.9c0.2,0.2,0.4,0.4,0.5,0.7
	c0.2,0.2,0.4,0.5,0.6,0.7c4.7,5.1,9.2,7.5,14.8,7.8c0.3,0,0.6,0,1,0c6.6,0,12.1-3.8,14.2-9.8c1-2.9,1.7-6.1,2.1-9.4
	c1-8.7,0.8-17.9-0.5-29.1C467,139.3,466.5,133.2,466.5,127.6L466.5,127.6z"/>
<path class="st1" d="M213.4,90.2c-1.5-0.8-3.1-1.3-4.7-1.3c-0.6,0-1.3-0.1-1.9-0.1c-1.7,0-3.6,0.1-5.8,0.3c-2.1,0.2-4.1,0.5-6.2,0.8
	c-0.6,0.1-1.1,0.2-1.7,0.2c0-0.2,0-0.3,0-0.5c-0.1-1.2-0.2-2.3-0.2-3.5c-0.1-2.9-0.2-5.7-0.3-8.6l-0.1-4.2l-0.2-6.1
	c-0.2-5-0.3-10-0.5-14.9c0-0.1,0-0.2,0-0.3c0.1,0,0.3,0,0.5,0c0.6,0,1.1,0.1,1.7,0.2c1.4,0.1,2.8,0.3,4.3,0.3h0.3
	c9.6-0.1,19.5-0.3,29.4-0.6c6.4-0.2,13-1.4,19.4-3.7c1.3-0.4,2.2-0.9,3.1-1.4c1.4-0.9,1.6-1.8,1.5-2.4c-0.1-0.6-0.4-1.5-1.9-2.2
	c-0.5-0.2-1-0.4-1.4-0.5c-0.4-0.1-0.9-0.3-1.3-0.5c-4.8-2.1-9.4-3.1-13.9-3.1c-0.2,0-0.4,0-0.7,0c-6.2,0.1-12.5,0.2-18.7,0.3
	c-3.1,0-6.3,0.1-9.4,0.2h-0.4c-0.5,0-1.1,0-1.7,0.1c-3,0.8-6.1,0.9-9.3,0.9c-2.4,0.1-4.9,0.1-7.4,0.5c-2.4,0.4-5.6,1.4-5.9,5.9
	l-0.2,2.7c-0.4,7.2-0.9,14.5-0.5,21.9c0.5,8.7,0.8,17.5,1,26c0.1,3.5,0.2,7.1,0.4,10.6c0,0.5,0,1,0.1,1.5c0.1,1.4,0.1,2.8,0.1,4.1
	c-0.8,13-0.6,26.2,0.5,39.4c0.1,1.1,0.1,2.2,0.2,3.3c0.1,1.1,0.1,2.1,0.2,3.2c0.2,2.2,0.4,4.4,0.5,6.5c0.3,3.7,0.6,7.6,0.9,11.3
	c0.2,2.6,0.2,5.3,0.3,7.9c0.1,1.8,0.1,3.6,0.2,5.3c0.2,3.7,1.4,6.7,3.6,9c1.1,1.1,2,1.3,2.7,1.3c0.8,0,1.9-0.3,2.8-1.8
	c0.6-1,1.4-2.5,1.6-4.1c0.4-3.8,0.9-7.8,0.9-11.7c0-6.4-0.2-12.9-0.4-19.3l-0.1-3.4c-0.1-3.2-0.3-6.5-0.5-9.7l-0.1-0.7
	c-0.1-1.4-0.2-2.8-0.3-4.2c-0.2-2.4-0.4-5-0.5-7.4c-0.1-8.3-0.1-16.8-0.1-25c0-3.2,0-6.4,0-9.7c0-0.1,0-0.3,0-0.4c0-0.1,0-0.1,0-0.2
	c0.1-0.1,0.1-0.2,0.2-0.2c0.1,0,0.2,0,0.4,0c0.2,0,0.4,0,0.6,0c0.3,0,0.5,0,0.8,0c0.1,0,0.2,0,0.3,0l2.6-0.1
	c3.3-0.1,6.6-0.3,9.9-0.5c2.3-0.2,4.3-0.9,5.9-2.1c1.8-1.4,2.8-3.3,2.6-5.2C216.5,92.8,215.4,91.2,213.4,90.2L213.4,90.2z"/>
<path class="st1" d="M174,39.9c-0.8-0.6-1.9-1.2-3-1.4c-2.3-0.4-4.5-0.6-6.6-0.6c-0.2,0-0.4,0-0.6,0c-1,0-2,0.1-3,0.1
	c-0.9,0.1-1.8,0.1-2.6,0.1c-2.8,0-5.6,0-8.4,0.1c-3.7,0-7.4,0-11.1,0.1c-1.6,0-3.2,0.1-4.7,0.2c-1.5,0.1-3.1,0.2-4.6,0.2h-0.7
	c-2.7,0-5.4,0.1-8.1,1.1c-0.2,0.1-0.6,0.1-0.9,0.1h-0.2c-3.8,0-5.9,1.8-6.3,5.5c-0.4,3.1-0.6,6-0.5,8.7c0,2.6,0.1,5.2,0.2,7.7
	c0.1,2.8,0.2,5.6,0.2,8.4c0,9.5-0.1,19.3-0.3,29.9c-0.1,6.2-0.3,12.2-0.5,19.2c-0.1,3.3-0.2,6.8-0.3,10.6l0.2,3.4
	c0.2,3.6,0.3,8,0.6,12.4c0.3,6.4,0.7,11.7,1.2,16.6c0.2,2,0.7,3.9,1.2,5.8c0.7,2.6,2.4,4.1,5.1,4.8c4.6,1.1,9.2,1.5,13.1,1.8
	c2.6,0.2,6,0.4,9.4,0.4s6.8-0.2,9.8-0.6c3.2-0.5,6.6-1.2,9.5-3.2c1.3-0.9,2-1.9,2.1-3c0.1-1.1-0.4-2.2-1.6-3.3
	c-1.6-1.6-3.6-2.6-5.7-2.8c-2.9-0.3-5.6-0.6-8.3-0.6c-0.5,0-1,0-1.4,0c-1.8,0.1-3.7,0.1-5.1,0.1h-4.2c-4.2,0-7.8,0.1-11.4,0.6
	c-0.3,0-0.7,0.1-0.9,0.1c-0.1-0.2-0.2-0.6-0.2-1c-0.2-1-0.3-2-0.3-2.9c0-2.6-0.1-5.3-0.1-8c0-2.5,0-4.9-0.1-7.4
	c0-1.2-0.1-2.4-0.1-3.6c-0.1-1.9-0.2-3.9-0.1-5.8c0.1-3.1,0.3-6.3,0.5-9.4c0.1-1.4,0.2-2.9,0.3-4.3c0.2-3.6,0.4-7.3,0.6-10.9
	c0-0.2,0-0.4,0-0.5c0,0,0.7,0,0.7,0c0.5,0,1,0,1.5,0c0.7,0,1.3,0.1,2,0.1c0.7,0,1.3,0,1.9-0.1c2.7-0.3,5.5-0.7,8.3-1.3
	c2.3-0.5,4.2-1.7,5.3-3.7c1.4-2.3-0.1-3.5-0.5-3.8l-0.4-0.3c-2.1-1.4-4.4-2.9-7.2-3.1c-0.4,0-0.8,0-1.3,0c-1.8,0-3.7,0.2-5.4,0.3
	h-0.2c-0.8,0.1-1.5,0.3-2.3,0.4c-0.4,0.1-0.8,0.2-1.2,0.3c-0.2,0-0.4,0.1-0.6,0.1c0-0.1,0-0.3,0-0.5c0-0.4,0.1-0.8,0.1-1.2
	c0.1-1,0.2-2,0.2-3c0-4.2,0.1-8.7,0-14.3c0-1.8-0.1-3.4-0.2-4.8c-0.3-3.5-0.5-7-0.8-10.5c-0.3-4.2-0.7-8.4-1-12.6c0-0.1,0-0.5,0-0.7
	c0.3,0,0.6,0,1,0.1c3.5,0.3,7.1,0.6,10.9,0.8c1.9,0.1,3.7,0.1,5.5,0.2c0.7,0,1.4,0,2.1,0c1.8,0,3.6,0.1,5.4,0.1
	c3.2,0.1,6.6,0.2,9.9,0.2c1.1,0,2.2,0,3.3,0c4.8-0.1,8.7-1.6,11.8-4.3c1.6-1.5,1.9-2.8,1.8-3.7C176.2,42.5,175.8,41.2,174,39.9
	L174,39.9z"/>
<path class="st1" d="M590.6,41.8c0-0.1,0.1-0.1,0.1-0.2c0.2-0.2,0.2-0.4,0.2-0.7c0-1.9-0.3-3.8-3.2-4.3c-2.8-0.4-5.6-0.9-8.4-0.9
	c-4.2-0.1-8.3-0.1-12.3-0.1h-4.4c-1.7,0-3.6,0-5.4,0.2c-6,0.8-12.2,1.6-18.1,2.4l-3,0.4c-1.4,0.2-2.7,0.4-4,0.7
	c-2,0.5-3.1,1.8-3.2,3.5c0,1.8,1.1,3.2,3,3.7c1.4,0.4,3,0.7,4.5,0.8c3.7,0.3,6.8,0.5,9.7,0.5c2.5,0,4.9-0.1,7.1-0.3
	c0.4,0,0.7-0.1,1-0.1c0,0.3,0,0.7,0.1,1c0.5,11.7,0.9,23.5,1.4,35.2l0,1.2c0.1,3.6,0.3,7.2,0.4,10.7l0.2,4.9
	c0.1,2.4,0.2,4.7,0.3,7.1c0.2,5.1,0.5,10.4,0.5,15.5c0,14.1,0.1,31.7,1.7,48.5c0.5,4.9,1,9.9,1.6,14.8l0.4,3.4
	c0.1,0.7,0.2,1.6,0.6,2.4c1,1.8,2.4,2.8,4.2,2.9c0,0,0.1,0,0.1,0c1.8,0,3.6-1.5,4.1-3.6c0.4-1.4,0.7-2.9,0.5-4.3
	c-0.3-2.3-0.2-4.6-0.1-6.9c0.1-1.2,0.1-2.5,0.1-3.8c0-2.3-0.1-4.6-0.1-6.9c-0.1-2.9-0.1-5.9-0.1-8.9c0-6.7,0-13.8,0.2-20.8
	c0.4-14.2,0.2-29.3-0.8-49c-0.2-3.6-0.3-7.2-0.5-10.9c-0.2-4.7-0.4-9.6-0.7-14.4c-0.3-5-0.7-10-1.2-14.9l-0.3-3c0-0.1,0-0.1,0-0.2
	c0,0,0.8,0,0.8,0c2.3,0,4.6-0.1,7-0.2c2.3-0.2,4.8-0.3,7.3-0.7c2.7-0.4,5.1-1.5,7.2-3C590,42.7,590.4,42.1,590.6,41.8L590.6,41.8z"
	/>
<path class="st1" d="M156.2,186.4c-1.4-1-3-1.8-4.4-2c-2.4-0.4-4.8-0.5-7.2-0.5c-0.9,0-1.8,0-2.7,0c-1.2,0-2.3,0-3.5,0
	c-1.1,0-2.3,0-3.5,0c-1.3,0-2.6,0-4,0c-1.3,0-2.7,0-4,0c-1.5,0-2.8,0-4.1,0.1c-4.5,0.2-9.1,0.5-13.5,0.8c-2.7,0.2-5.4,0.4-8.1,0.5
	l-0.3,0c-0.5,0-0.9,0.1-1.3,0.1h-0.1c0-0.2,0-0.5,0-0.8l0-0.8c0.1-8.8,0.2-17.6,0.3-25.2l0.1-7.4v-34.9c0-1.5,0-3.1,0-4.6
	c0-3.2,0-6.4,0-9.7c0.1-4.1,0.1-8.2,0.2-12.3c0-2,0.1-3.9,0.1-5.9c0-1.2,0-2.4,0-3.6c0-2.6,0-5.2,0.3-7.8c0.4-3.6,0.3-7.4-0.3-12.2
	c-0.1-0.5-0.1-1-0.1-1.4c-0.1-0.7-0.1-1.3-0.2-2l-0.2-1.3c-0.5-3.3-1-6.7-1.6-10c-0.2-1.2-0.9-2.3-1.5-3c-0.8-1-2.1-1.6-3.4-1.6
	c-1,0-1.8,0.4-2.3,1c-0.2,0.2-0.4,0.5-0.6,0.7c-1.1,1.4-2.4,2.9-2.3,5.2c0,1.2,0,2.4-0.1,3.7c-0.1,1.2-0.2,2.5-0.1,3.8
	c0.2,6.2,0.4,12.6,0.7,18.5c0.1,1.3,0.2,2.6,0.3,3.9c0.2,1.7,0.3,3.5,0.3,5.2c0.1,9,0.1,17.9,0.1,26.9c0,6.6,0,13.1,0.1,19.7
	c0,1.6,0.1,3.3,0.2,4.9c0.1,1.5,0.1,3,0.2,4.4c0,2.5,0,5.1,0,7.6c0,2.6,0,5.2,0,7.8c0.1,5.1,0.2,10.2,0.2,15.3
	c0.1,2.6,0.1,5.2,0.1,7.9c0.1,3.4,0.1,6.8,0.1,10.1c0,0.5-0.1,1.1-0.2,1.8c-0.6,2.5-0.1,4,0.6,4.9c0.6,0.9,1.8,1.9,4.3,2.1
	c5.2,0.5,10.4,0.8,14.3,1c0.2,0,0.5,0,0.8,0c0.8,0,1.6-0.1,2.4-0.1c0.7-0.1,1.4-0.1,2.1-0.1c3.2,0,6.4,0,9.6,0
	c5.3,0,10.8,0,16.2-0.1c4-0.1,8-0.4,11-0.7c1.3-0.1,2.8-0.6,4.1-1.3c1.8-1,2.9-2.5,3-4.2C158.6,189.2,157.8,187.6,156.2,186.4
	L156.2,186.4z"/>
<path class="st1" d="M282.9,71.1c0.9-0.4,1.4-1.1,1.5-1.9c0.1-0.8-0.4-1.6-1.2-2.1c-0.9-0.6-1.7-1-2.5-1.1c-1.4-0.3-3.2-0.6-5-0.7
	c-1.9-0.1-3.8-0.2-5.6-0.2c-1.1,0-2.2-0.1-3.2-0.1c-1.6-0.1-3.3-0.1-4.9-0.2c-3.2-0.1-6.4-0.3-9.7-0.3c-0.4,0-0.9,0-1.3,0
	c-2.8,0-5.7,0.1-8.5,0.2l-3.3,0.1c-4.3,0.2-8.8,0.4-13.2,0.7c-2.8,0.2-5.7,0.7-8.4,1.1c-0.8,0.1-1.5,0.2-2.2,0.3
	c-0.8,0.1-1.7,0.4-2.4,0.9c-1.3,0.8-2,2.2-2,3.6c0,1.3,0.8,2.5,2,3.3c1.2,0.7,2.7,1.2,4.1,1.3c3.2,0.2,6.5,0.4,9.6,0.6
	c1.2,0.1,2.4,0.1,3.7,0.2c0,0,0,0,0.1,0c0.3,0,0.5-0.1,0.7-0.3h4.4c1.2,0,2.3,0,3.5,0c0.3,0,0.8,0,1,0c0,0.2,0.1,0.6,0.1,1
	c0.1,2.2,0.2,4.4,0.3,6.5c0.2,5.6,0.5,11.4,0.8,17.1c0.2,3.3,0.4,6.7,0.6,9.9c0.3,3.7,0.5,7.6,0.7,11.4c0.3,5.2,0.5,10.6,0.7,15.8
	c0.2,4.9,0.4,9.9,0.6,14.9c0.2,4.6,0.5,9.9,1.2,14.9c0.9,6.2,1.4,12.4,1.4,18.5c0,1.5,0.2,3.1,0.5,4.6c0.5,3.3,1.7,4.3,5.1,4.6
	c0.2,0,0.5,0,0.7,0c1.6,0,3.7-0.6,4.2-3.7c0.2-1,0.2-2.1,0.1-3.1c0-1.1-0.1-2.2-0.2-3.3c-0.1-1.2-0.2-2.5-0.2-3.7
	c-0.1-3.2-0.2-6.4-0.3-9.6c-0.1-3.8-0.3-7.7-0.4-11.5c-0.1-3-0.3-6-0.4-9c-0.2-4.7-0.5-9.6-0.6-14.4c-0.1-5.1-0.2-10.4-0.2-15.5
	c-0.1-5-0.1-10.2-0.2-15.2c-0.1-4.2-0.4-8.4-0.7-12.5l-0.2-3.1c-0.2-3.1-0.5-6.1-0.7-9.2c-0.1-1.7-0.3-3.4-0.4-5.1
	c0-0.3-0.1-0.6-0.1-0.9c0.2,0,0.6,0,0.8,0c1.1,0,2.2,0,3.3,0c1.4,0,2.7,0,3.9,0.1c0.5,0,1.1,0,1.6,0c5.1,0,10.2-0.9,15.2-2.6
	C279,72.8,281,72,282.9,71.1L282.9,71.1z"/>
<path class="st1" d="M668.9,24.9c-0.4-1.5-1.6-2.4-3.2-2.4c-0.1,0-0.2,0-0.4,0c-1,0.1-2.1,0.3-3.1,0.7c-1.5,0.6-3,1.3-4.5,1.9
	c-1,0.4-2,0.8-2.9,1.2c-0.1,0-0.2,0.1-0.3,0.1c0-0.3,0-0.5,0-0.8c0-0.6,0-1.1,0.1-1.7c0-0.9,0.1-1.8,0.1-2.7c0-2.4-1.4-3.1-2.3-3.3
	c-0.4-0.1-0.7-0.1-1.1-0.1c-1.3,0-2.5,0.6-3.1,1.7c-0.3,0.6-0.5,1.2-0.7,2.1l-0.1,0.5c-0.3,2-0.6,4.1-0.8,6.2
	c-0.1,1.1-0.6,1.7-1.7,2.2c-2.2,0.9-4.3,1.8-6.4,2.7c-1,0.4-2,0.8-2.9,1.2l0.1-1.3c0.1-2.1,0.2-4.3,0.3-6.4l0.1-1.8
	c0.1-2.1,0.2-4.2,0.2-6.3c0-2.4-0.8-3.4-3-3.6c-0.3,0-0.6-0.1-0.9-0.1c-2.3,0-2.9,1.6-3.2,3c-0.2,0.9-0.3,1.7-0.4,2.4
	c-0.3,2.8-0.6,5.7-0.9,8.5c-0.2,2.4-0.5,4.8-0.8,7.3c-0.1,1.1-0.3,1.7-0.9,2c-1.9,1-4,2.1-6.4,3l0.3-5.7c0.3-4.7,0.5-9.4,0.8-14.1
	c0-0.9,0-1.9-0.2-2.9c-0.3-1.6-1.6-2.6-3.3-2.7c-0.1,0-0.2,0-0.3,0c-1.6,0-2.8,0.9-3.3,2.3c-0.4,1-0.6,2.1-0.6,3.1
	c-0.4,6.8-0.8,13.7-1.2,21.3c-0.1,1.7-0.7,2.7-1.9,3.3l-0.4,0.2c-1.2,0.6-2.5,1.2-3.7,1.8c0-0.4,0-0.8,0-1.2l0.2-18.9
	c0-0.7,0-1.4,0-2.1c-0.1-1.6-1.1-2.7-2.6-2.8c-0.1,0-0.2,0-0.3,0c-1.4,0-2.5,0.7-2.9,2c-0.3,0.9-0.6,1.9-0.6,2.8
	c-0.2,1.9-0.3,3.8-0.4,5.6c-0.1,1.2-0.2,2.5-0.2,3.7c-0.1,1.2-0.2,2.4-0.3,3.5c-0.2,2.5-0.5,5.1-0.4,7.7c0.1,3-1.1,4.7-4.2,6.1
	c-2.1,1-4,2.3-5.9,3.6l-1.1,0.7c-2.7,1.8-2.3,3.9-1.6,5.4c0.2,0.4,0.6,0.6,1,0.6c0.2,0,0.3,0,0.5-0.1c0.6-0.3,1.2-0.5,1.8-0.8
	c1.4-0.6,2.7-1.2,4-1.7c0.7-0.2,1.3-0.5,2-0.8c0.9-0.4,1.7-0.8,2.6-1c0,0.8,0,1.5,0.1,2.3c0.3,2.7,0.7,5.4,1.2,8
	c0.2,0.9,0.6,1.8,1.2,2.6c0.6,0.8,1.4,1.2,2.3,1.2c1.1,0,2.1-0.7,2.6-1.8c0.3-0.6,0.3-1.2,0.4-1.6c0.1-1.6,0.2-3.2,0.3-4.8
	c0,0,0.1-2.2,0.2-3c0.1-1.9,0.2-3.8,0.4-5.7c0.1-0.7,0.3-1.2,0.4-1.2c1.5-1.1,2.8-1.8,4.2-2.2c0,0.7,0,1.4,0,2.1
	c0,1.1-0.1,2.1-0.2,3.2c-0.1,2.2-0.3,4.5-0.2,6.8c0.1,2.3,0.6,4.6,1.1,6.8l0.3,1.3c0.2,0.8,1.2,2.3,2.3,2.3c0.1,0,0.2,0,0.2,0
	c1-0.2,2-1,2.5-1.8c0.4-0.7,0.6-1.4,0.7-2.1c0-0.2,0.1-0.3,0.1-0.5c1.2-6,1.5-12,1.5-16.5c0-1.5,0.1-2.9,0.1-4.4
	c0-1.1,0.3-1.4,0.5-1.5c1.8-0.8,3.6-1.7,5.6-2.5c0.3-0.1,0.6-0.3,0.9-0.4c0,0.4,0,0.8,0,1.2c0,1.4,0,2.8,0,4.2c0,3.5,0,7.1-0.1,10.6
	c-0.1,3,0.6,5.8,1.2,8.5c0.1,0.5,0.2,0.9,0.4,1.2c0.5,1,1.3,1.5,2.1,1.5c0.8,0,1.4-0.5,1.9-1.2c0.7-1.3,1.2-2.7,1.3-4l0-0.3
	c0.8-6.9,1.7-14,1.8-21c0-0.6,0-1.2,0.1-1.8c0-0.3,0-0.7,0.1-1c0.1-1.3,0.6-2,1.8-2.5c1.9-0.7,3.8-1.5,5.6-2.3
	c0.9-0.4,1.9-0.8,2.8-1.2c0.1,0,0.2-0.1,0.2-0.1c-0.1,1.6-0.2,3.3-0.4,5c-0.3,3.7-0.6,7.5-0.8,11.3c-0.2,4.5-0.3,9.2-0.2,14.9
	c0,1.4,0.7,2.7,1.3,3.9c0.5,1,1.6,1.6,2.7,1.6c0.2,0,0.5,0,0.8-0.1c1.4-0.3,2.3-1.3,2.6-2.6c0.2-1.1,0.4-2.2,0.4-3.3
	c0-10.9,0.9-21.9,1.6-31.6c0.1-2,0.9-3,2.7-3.7c2.3-0.9,4.6-1.9,6.8-2.9c0.8-0.4,1.7-0.7,2.5-1.1c0.5-0.2,1.2-0.5,1.8-0.9
	C668.8,27.9,669.4,26.5,668.9,24.9L668.9,24.9z"/>
<path class="st1" d="M414.6,166.1c-0.1-1.8-0.2-3.6-0.4-5.4v-0.1c-0.1-1.2-0.2-2.5-0.4-3.7c-0.2-1.7-0.3-3.4-0.5-5.1
	c-0.1-1-0.1-2.1-0.2-3.1c0-1-0.1-1.9-0.2-2.9c-0.1-1.6-0.3-3.2-0.4-4.8c-0.3-3-0.5-6.1-0.7-9.1c-0.2-3.6-0.1-7.2-0.1-10.8
	c0-1.1,0-2.2,0-3.2c0-2.2,0-4.6,0.1-7c0.3-5,0.6-10.1,0.9-15.1l0.4-5.9c0.1-6.1-0.4-12.3-0.9-18.3c-0.2-2.6-0.4-5.2-0.6-7.8
	c-0.1-2.2-0.4-4.3-0.7-6.4l-0.2-1.8c-0.5-3.5-1-7.1-1.6-10.7c-0.2-1.4-0.7-2.9-1.5-4.7c-0.8-1.8-2.4-2.8-4.5-2.9h-0.2
	c-1.8,0-3.3,0.9-4.1,2.5c-0.9,1.9-1.9,3.9-1.7,6.2c0,0.7,0.1,1.4,0.1,2.1c0.1,1.5,0.1,2.9,0.2,4.4c0.1,1.9,0.3,3.8,0.4,5.7
	c0.1,1.3,0.2,2.6,0.3,3.9c0.2,2.6,0.4,5.2,0.6,7.8c0.3,4.7,0.7,9.3,1.1,13.9c0.6,7.1,1.1,14.7,0.8,22.2c0,0.9-0.1,1.8-0.2,2.6
	c-0.1,1.4-0.2,2.8-0.2,4.2c0.1,5.9,0.2,11.9,0.3,17.8l0.1,5.4c0,0.6,0.1,1.2,0.1,1.7c0.3,2.5,0.6,5.1,1,7.6c0.7,5.5,1.4,11.3,2,16.9
	c0.7,7.3,1.1,14.8,1.5,22.1l0,0.7c0.2,2.9,1.1,5.4,2.1,7.8c0.5,1.4,1.6,2.2,3,2.2c0,0,0.1,0,0.1,0c1,0,2.2-0.4,3-2.1l0.1-0.1
	c0.1-0.2,0.2-0.4,0.3-0.6c1.2-3,1.8-5.7,1.7-8.3C415.1,178.5,414.9,172.8,414.6,166.1L414.6,166.1z"/>
<path class="st1" d="M316.3,107.4c0-0.3-0.1-0.6-0.4-0.8s-0.6-0.3-0.9-0.3c0,0-0.4,0-0.4,0c-0.2,0-0.5,0-0.9,0.2
	c-0.7,0.3-1.3,0.6-2,0.9c-1.1,0.6-2.2,1.1-3.4,1.5c-2.6,0.9-4.6,1.4-6.5,1.4c-1.5,0-2.8-0.3-4.1-0.8c-1.6-0.7-3.2-1.4-5.1-2.4
	c-2.6-1.3-5.2-2-7.8-2c-0.3,0-0.7,0-1,0c-4.1,0.3-8.4,1.5-13.3,3.9c-0.7,0.4-1.4,0.9-1.8,1.6s-0.6,1.8-0.1,2.6
	c0.4,0.7,1.4,1.2,2.3,1.2l0,0c0.6,0,1.1-0.2,1.5-0.4c0.2-0.1,0.3-0.2,0.5-0.2l1.7-0.5c1.9-0.6,3.8-1.2,5.7-1.8
	c1.4-0.4,2.8-0.6,4.2-0.6c2.3,0,4.6,0.7,6.7,1.9c0.8,0.5,1.7,1,2.8,1.6c2.5,1.3,5,1.9,7.2,1.9c0.1,0,0.2,0,0.4,0
	c4.5,0,8.4-1.5,12.3-4.7c0.9-0.7,1.5-1.6,2.1-2.3c0.4-0.5,0.3-1.1,0.3-1.5C316.4,107.6,316.3,107.5,316.3,107.4L316.3,107.4z"/>
<path class="st1" d="M313.4,138.4l-0.4-0.2c-0.2-0.1-0.4-0.2-0.6-0.2c-0.2,0-0.4,0-0.5,0.1c-0.7,0.4-1.5,0.7-2.2,1.1
	c-1.5,0.8-3.1,1.6-4.7,2.4c-1.6,0.8-3.3,1.2-5,1.2c-1.5,0-2.9-0.3-4.4-0.9c-1.8-0.7-3.7-1.3-5.9-1.8c-2.1-0.5-4.3-0.7-6.3-0.7
	c-4.4,0-8.6,1.1-12.6,3.2c-0.9,0.5-1.7,1.1-2.3,1.8c-0.6,0.6-0.8,2.1-0.2,2.9c0.4,0.5,1.3,1.1,2.2,1.1c0.1,0,0.3,0,0.5-0.1
	c0.8-0.2,1.5-0.5,2.2-0.9c0.3-0.1,0.6-0.3,0.9-0.4c2.9-1.2,5.9-1.9,8.9-1.9c2.2,0,4.4,0.3,6.6,1c1.2,0.4,2.4,0.8,3.6,1.2
	c0.7,0.2,1.4,0.5,2,0.7c1.8,0.6,3.4,0.9,5,0.9c1.4,0,2.7-0.2,4-0.7c3.5-1.3,6.5-3.5,9-6.6c0.3-0.4,0.5-0.9,0.7-1.3
	c0.1-0.1,0.1-0.3,0.2-0.4C314,139.3,313.8,138.7,313.4,138.4L313.4,138.4z"/>
<path class="st1" d="M287.1,137.4c0.2,0,0.4,0,0.5-0.1c1.9-0.4,2-2.2,2-2.9c0-0.3,0-0.6,0-0.9c0-0.2,0-0.5,0-0.7
	c0-0.7,0.1-1.5,0.1-2.2c0.7,1,1.4,1.9,2.1,2.8c0.8,1.1,1.7,2,2.6,2.8c0.6,0.6,1.5,0.6,1.8,0.6c0.2,0,0.4,0,0.6-0.1
	c1.2-0.3,1.3-2,1.3-2.2c0.1-3,0.2-6.2,0.3-9.4c0-1.2-0.1-2.3-0.3-3.4l0-0.1c-0.1-0.5-0.2-1.2-0.6-1.9c-0.4-0.7-1.1-1.1-1.9-1.1
	c-0.8,0-1.6,0.5-2,1.4c-0.3,0.7-0.4,1.4-0.5,2c-0.1,0.9-0.3,1.9-0.4,2.9c-0.9-1.2-1.8-2.4-2.7-3.6c-0.1-0.1-0.2-0.3-0.3-0.4
	c-0.5-0.7-1.3-1.8-2.6-1.8c-0.3,0-0.6,0.1-0.9,0.2c-1.8,0.7-1.9,2.7-2,4c0,0.7-0.1,1.5-0.1,2.2c-0.1,1.6-0.2,3.2-0.2,4.8
	c0,1.4,0.2,3,0.5,4.6C284.9,136.5,285.8,137.4,287.1,137.4L287.1,137.4z"/>
<path class="st1" d="M279.7,136.2c-0.3-0.9-0.5-1.9-0.8-2.8c-0.7-2.6-1.5-5.3-2.4-8c-0.8-2.1-2-3.9-3.2-5.7l-0.1-0.2
	c-0.5-0.8-1.4-1.3-2.2-1.3c-1.1,0-2.1,0.8-2.5,2.1c-0.1,0.3-0.1,0.6-0.1,0.8l-1.6,12v2.2c0,0,0,0,0,0c0.1,0.8,0.2,1.7,0.5,2.6
	s1,1.5,1.9,1.5c0.7,0,1.3-0.3,1.8-0.9c0.3-0.5,0.6-1,0.8-1.8c0.3-1.2,0.7-2.6,0.9-3.9c0-0.1,0-0.1,0-0.1c0.1,0,0.2,0,0.3,0h0.4
	c0.2,0,0.2,0,0.2,0.1c0.4,0.9,0.8,2,1.4,3c0.5,0.9,1.2,1.6,1.8,2.2c0.2,0.2,0.5,0.4,1.1,0.4c0.3,0,0.7-0.1,1-0.2
	C279.7,137.9,279.9,136.8,279.7,136.2L279.7,136.2z M271.8,128.8v-4.1l1.6,4.1H271.8z"/>
<path class="st1" d="M311.5,118.8c-1.9-0.8-3.2-1.2-4.3-1.2c-3.5,0-3.7,4-3.9,6.2c-0.1,2.3,0.4,4.6,1,6.9c0.1,0.5,0.3,1.1,0.4,1.6
	c0.5,2.5,1.7,2.7,4,2.7h0.1c0.1,0,0.2,0,0.2,0c0,0,0.1,0,0.2,0c0.4-0.1,1-0.1,1.7-0.4c3.4-1.6,5.2-4.3,5.3-7.7
	C316.3,123,314.6,120.2,311.5,118.8L311.5,118.8z M309.8,129.1l-0.3,0.4l-0.8-6.1C310.7,124.8,311.1,127.2,309.8,129.1z"/>
<path class="st1" d="M95.3,240.9l-1.2-1.1v13h-4.7v-23.4h0.1l11,11.1l11-11.1h0.1v23.4h-4.7v-13l-1.2,1.1c-1.7,1.9-3.4,3.7-5.2,5.5
	C98.7,244.6,97,242.8,95.3,240.9L95.3,240.9z"/>
<path class="st1" d="M119.3,252.8v-23h4.9v23H119.3z"/>
<path class="st1" d="M151.1,253.2L138.5,241l-1.5-1.3v13.1h-4.8v-23.4h0.2l12.6,12.1l1.5,1.3v-13.1h4.9v23.4H151.1z"/>
<path class="st1" d="M159.2,252.8v-23h7.4c7.8,0,12.8,4.8,12.8,11.5s-4.9,11.5-12.7,11.5H159.2z M164.1,233.9v14.8h2.4
	c4.9,0,7.8-3.2,7.8-7.4s-2.9-7.4-7.9-7.4H164.1z"/>
<path class="st1" d="M184.5,239.3h10.3v3.7h-10.3V239.3z"/>
<path class="st1" d="M218.4,246.1c0,4.4-3.6,6.7-8.8,6.7h-8.1v-23h7.5c4.9,0,8.6,2.1,8.6,6.5c0,2.2-1.3,3.8-2.9,4.5
	C216.6,241.4,218.4,243.5,218.4,246.1L218.4,246.1z M209.1,239.4c0.7,0,1.3,0,1.9-0.2c0.9-0.4,1.5-1.2,1.5-2.5
	c0-1.9-1.3-2.9-3.3-2.9h-3.1v5.7H209.1L209.1,239.4z M206.2,248.9h3.6c1.9,0,3.5-1.1,3.5-3.1s-1.4-3.1-3.2-3.1h-4V248.9L206.2,248.9
	z"/>
<path class="st1" d="M225,252.8v-23h4.9v18.9h8.9v4.1H225z"/>
<path class="st1" d="M255,229.3c6.9,0,12.1,5.3,12.1,12s-5.1,12-12.1,12s-12.1-5.2-12.1-12S248,229.3,255,229.3L255,229.3z
	 M255,248.7c4.2,0,7.1-3.3,7.1-7.5s-2.9-7.5-7.1-7.5s-7.1,3.4-7.1,7.5S250.8,248.7,255,248.7L255,248.7z"/>
<path class="st1" d="M275.5,229.8l3.1,7.8c0.8,1.9,1.4,3.7,1.9,5.2c0.4-0.8,1.1-2.6,1.7-4l1.3-2.9l2.7-5.9h0.2
	c2,4.4,4.4,9.6,5.6,12.9c0.8-2.1,3.7-9.5,5.1-13.1h5.5l-10.3,23.4h-0.2l-4.5-10.3c-0.4-0.9-0.8-1.9-1.2-2.8
	c-0.4,0.9-0.8,1.9-1.1,2.8l-4.5,10.3h-0.2L270,229.8L275.5,229.8L275.5,229.8z"/>
<path class="st1" d="M307.8,252.8v-23h4.9v23H307.8z"/>
<path class="st1" d="M339.6,253.2L327,241l-1.5-1.3v13.1h-4.8v-23.4h0.2l12.6,12.1l1.5,1.3v-13.1h4.9v23.4H339.6L339.6,253.2z"/>
<path class="st1" d="M358.5,253.3c-7.3,0-12.4-5.2-12.4-12s5.1-12,12.3-12c3.4,0,5.9,1,7.2,1.6v4.5c-1.5-0.7-3.8-1.6-6.9-1.6
	c-4.8,0-7.6,3.4-7.6,7.5s2.9,7.5,7.4,7.5c1.1,0,2.3-0.2,3.1-0.4v-6.1h4.7v9.3C364.3,252.6,361.4,253.3,358.5,253.3L358.5,253.3z"/>
<path class="st1" d="M381.8,252.8v-23h4.9v23H381.8z"/>
<path class="st1" d="M413.6,253.2L400.9,241l-1.5-1.3v13.1h-4.8v-23.4h0.2l12.6,12.1l1.5,1.3v-13.1h4.9v23.4H413.6L413.6,253.2z"/>
<path class="st1" d="M426.5,233.9v5.5h7.7v4.1h-7.7v9.3h-4.9v-23h14v4.1L426.5,233.9L426.5,233.9z"/>
<path class="st1" d="M441.9,252.8v-23h4.9v18.9h8.9v4.1H441.9L441.9,252.8z"/>
<path class="st1" d="M470.1,229.4h0.2l11.2,23.4h-5.1l-1.9-4.1h-8.6l-1.8,4.1H459L470.1,229.4L470.1,229.4z M473,245.3
	c-1.1-2.4-2.1-4.8-2.8-6.9c-0.7,1.6-1.9,4.7-2.9,6.9H473z"/>
<path class="st1" d="M494.3,233.9v18.9h-4.9v-18.9h-6.4v-4.1h17.8v4.1H494.3L494.3,233.9z"/>
<path class="st1" d="M513.3,229.4h0.2l11.2,23.4h-5.2l-1.9-4.1H509l-1.8,4.1h-5.1L513.3,229.4z M516.2,245.3
	c-1.1-2.4-2.1-4.8-2.8-6.9c-0.7,1.6-1.9,4.7-2.9,6.9H516.2z"/>
<path class="st1" d="M546.8,246.1c0,4.4-3.6,6.7-8.8,6.7h-8.1v-23h7.5c4.9,0,8.6,2.1,8.6,6.5c0,2.2-1.3,3.8-2.9,4.5
	C545,241.4,546.8,243.5,546.8,246.1L546.8,246.1z M537.5,239.4c0.7,0,1.3,0,1.9-0.2c0.9-0.4,1.5-1.2,1.5-2.5c0-1.9-1.3-2.9-3.3-2.9
	h-3.1v5.7H537.5L537.5,239.4z M534.6,248.9h3.7c2,0,3.5-1.1,3.5-3.1s-1.4-3.1-3.2-3.1h-4L534.6,248.9L534.6,248.9z"/>
<path class="st1" d="M553.3,252.8v-23h4.9v18.9h8.9v4.1H553.3z"/>
<path class="st1" d="M573.1,252.8v-23h14.8v4.1H578v5.2h8.4v4H578v5.6h10.4v4.1L573.1,252.8L573.1,252.8z"/>
<path class="st1" d="M106.8,279.1c0,4.4-3.6,6.7-8.8,6.7h-8.1v-23h7.5c4.9,0,8.6,2.1,8.6,6.5c0,2.2-1.3,3.8-2.9,4.5
	C105,274.4,106.8,276.5,106.8,279.1L106.8,279.1z M97.5,272.4c0.7,0,1.3,0,1.9-0.2c0.9-0.4,1.5-1.2,1.5-2.5c0-1.9-1.3-2.9-3.3-2.9
	h-3.1v5.7H97.5L97.5,272.4z M94.6,281.9h3.7c1.9,0,3.5-1.1,3.5-3.1s-1.4-3.1-3.2-3.1h-4V281.9L94.6,281.9z"/>
<path class="st1" d="M124.3,262.3c6.9,0,12.1,5.3,12.1,12s-5.1,12-12.1,12c-7,0-12.1-5.2-12.1-12S117.3,262.3,124.3,262.3z
	 M124.3,281.7c4.2,0,7.1-3.3,7.1-7.5s-2.9-7.5-7.1-7.5c-4.2,0-7.1,3.4-7.1,7.5S120.1,281.7,124.3,281.7z"/>
<path class="st1" d="M150.7,262.4h0.2l11.2,23.4h-5.1l-1.9-4.1h-8.6l-1.8,4.1h-5.1L150.7,262.4L150.7,262.4z M153.6,278.3
	c-1.1-2.4-2.1-4.8-2.8-6.9c-0.7,1.6-1.9,4.7-2.9,6.9H153.6z"/>
<path class="st1" d="M175.1,266.9v18.9h-4.9v-18.9h-6.4v-4.1h17.8v4.1H175.1z"/>
<path class="st1" d="M186.6,284.9v-4.7c1.6,0.8,3.7,1.5,5.8,1.7c0.7,0,1.4,0,2.1-0.1c1.8-0.3,2.8-0.9,2.8-2c0-1.5-1.4-2.3-4.5-3.5
	c-4-1.5-6.4-3.2-6.4-7.2c0-4,3.4-6.7,8.4-6.7c2.3,0,4.6,0.5,6,1.1v4.5c-1.3-0.8-3.5-1.4-5.6-1.4c-2.4,0-3.9,0.9-3.9,2.4
	c0,1.3,1.2,2.3,4.4,3.5c4,1.6,6.5,3.3,6.5,7.1c0,4.2-3.1,6.7-8.6,6.7C190.8,286.2,188.3,285.6,186.6,284.9L186.6,284.9z"/>
<path class="st1" d="M234.4,279.1c0,4.4-3.6,6.7-8.8,6.7h-8.1v-23h7.5c4.9,0,8.6,2.1,8.6,6.5c0,2.2-1.3,3.8-2.9,4.5
	C232.7,274.4,234.4,276.5,234.4,279.1L234.4,279.1z M225.2,272.4c0.7,0,1.3,0,1.9-0.2c0.9-0.4,1.5-1.2,1.5-2.5
	c0-1.9-1.3-2.9-3.3-2.9h-3.1v5.7H225.2L225.2,272.4z M222.2,281.9h3.6c1.9,0,3.5-1.1,3.5-3.1s-1.4-3.1-3.2-3.1h-4V281.9L222.2,281.9
	z"/>
<path class="st1" d="M243.6,262.8l5.3,9.4l5.3-9.4h5.6l-8.4,14.1v8.9h-4.9v-8.9l-8.4-14.1L243.6,262.8L243.6,262.8z"/>
<path class="st1" d="M279.5,273.9l-1.2-1.1v13h-4.7v-23.4h0.1l11,11.1l11-11.1h0.1v23.4h-4.7v-13l-1.2,1.1c-1.7,1.9-3.4,3.7-5.1,5.5
	C283,277.6,281.3,275.8,279.5,273.9L279.5,273.9z"/>
<path class="st1" d="M312.5,262.4h0.2l11.2,23.4h-5.1l-1.9-4.1h-8.6l-1.8,4.1h-5.1L312.5,262.4L312.5,262.4z M315.4,278.3
	c-1.1-2.4-2.1-4.8-2.8-6.9c-0.7,1.6-1.9,4.7-2.9,6.9H315.4z"/>
<path class="st1" d="M349,262.8l-8,11.4l8.1,11.6h-5.5l-5.2-7.8l-5.2,7.8h-5.5l8.1-11.6l-8-11.4h5.5l5.1,7.6l5.1-7.6H349L349,262.8z
	"/>
<path class="st1" d="M355.6,285.8v-23h4.9v23H355.6z"/>
<path class="st1" d="M374.7,273.9l-1.2-1.1v13h-4.7v-23.4h0.1l11,11.1l11-11.1h0.1v23.4h-4.7v-13l-1.2,1.1c-1.7,1.9-3.4,3.7-5.1,5.5
	C378.1,277.6,376.4,275.8,374.7,273.9L374.7,273.9z"/>
<path class="st1" d="M399.1,285.8v-23h14.8v4.1H404v5.2h8.4v4H404v5.6h10.4v4.1L399.1,285.8L399.1,285.8z"/>
<path class="st1" d="M438.1,262.8c5.3,0,8.9,2.7,8.9,7.6c0,3.4-1.9,5.6-4.4,6.6l4.8,8.9h-5.2l-4.1-8.1h-3.3v8.1h-4.8v-23
	L438.1,262.8L438.1,262.8z M434.9,266.9v6.9h3.5c2.2,0,3.7-1.1,3.7-3.4s-1.6-3.5-3.8-3.5L434.9,266.9L434.9,266.9z"/>
<path class="st1" d="M454.2,285.8v-23h4.9v23H454.2z"/>
<path class="st1" d="M484.8,268.4c-1.4-0.7-3.5-1.6-6.4-1.6c-4.7,0-7.6,3.4-7.6,7.5s2.9,7.5,7.5,7.5c3,0,5.2-0.9,6.7-1.6v4.6
	c-1.2,0.6-3.8,1.5-7,1.5c-6.9,0-12-5.2-12-12s5.1-12,12.2-12c3.2,0,5.5,1,6.7,1.6V268.4L484.8,268.4z"/>
<path class="st1" d="M506.1,285.8v-9.6h-9.5v9.6h-4.9v-23h4.9v9.3h9.5v-9.3h4.9v23H506.1z"/>
<path class="st1" d="M527.7,262.4h0.2l11.2,23.4H534l-1.9-4.1h-8.6l-1.8,4.1h-5.2L527.7,262.4L527.7,262.4z M530.7,278.3
	c-1.1-2.4-2.1-4.8-2.8-6.9c-0.7,1.6-1.9,4.7-2.8,6.9H530.7z"/>
<path class="st1" d="M552.8,262.8c5.3,0,8.9,2.7,8.9,7.6c0,3.4-1.9,5.6-4.4,6.6l4.8,8.9h-5.2l-4.1-8.1h-3.3v8.1h-4.8v-23
	L552.8,262.8L552.8,262.8z M549.5,266.9v6.9h3.5c2.2,0,3.7-1.1,3.7-3.4s-1.6-3.5-3.8-3.5L549.5,266.9L549.5,266.9z"/>
<path class="st1" d="M568.8,285.8v-23h7.4c7.8,0,12.8,4.8,12.8,11.5s-4.9,11.5-12.7,11.5L568.8,285.8L568.8,285.8z M573.8,266.9
	v14.8h2.4c4.9,0,7.8-3.2,7.8-7.4s-2.9-7.4-7.9-7.4H573.8L573.8,266.9z"/>
<path class="st1" d="M93.1,378.3v-33.8h7.2v27.8h13v6.1C113.3,378.3,93.1,378.3,93.1,378.3z"/>
<path class="st1" d="M119.7,378.3v-33.8h21.8v6.1H127v7.7h12.3v5.8H127v8.2h15.2v6.1L119.7,378.3L119.7,378.3z"/>
<path class="st1" d="M166.7,366.7v11.6h-7.2v-33.8h11c7.8,0,13,3.9,13,11.1s-5.2,11.1-13,11.1L166.7,366.7L166.7,366.7z
	 M166.7,350.5v10.1h4.1c3.1,0,5.3-1.6,5.3-5s-2.3-5.1-5.5-5.1L166.7,350.5L166.7,350.5z"/>
<path class="st1" d="M189.9,378.3v-33.8h7.2v27.8h13v6.1H189.9L189.9,378.3z"/>
<path class="st1" d="M229,343.9h0.3l16.4,34.4h-7.6l-2.7-6h-12.6l-2.6,6h-7.6L229,343.9L229,343.9z M233.3,367.2
	c-1.6-3.5-3.1-7.1-4.1-10.1c-1,2.4-2.8,6.9-4.2,10.1H233.3L233.3,367.2z"/>
<path class="st1" d="M251.1,378.3v-33.8h7.2v33.8H251.1z"/>
<path class="st1" d="M266,377v-7c2.4,1.2,5.5,2.3,8.5,2.4c1.1,0,2.1,0,3-0.2c2.6-0.4,4.1-1.4,4.1-3c0-2.3-2-3.4-6.7-5.1
	c-5.9-2.2-9.4-4.6-9.4-10.5s5-9.9,12.3-9.9c3.4,0,6.7,0.8,8.8,1.7v6.7c-2-1.2-5.2-2.1-8.3-2.1c-3.5,0-5.7,1.4-5.7,3.5
	c0,2,1.8,3.3,6.4,5.1c5.9,2.3,9.6,4.8,9.6,10.5c0,6.1-4.6,9.8-12.6,9.8C272.2,378.9,268.4,378.1,266,377L266,377z"/>
<path class="st1" d="M295.4,378.3v-33.8h7.2v33.8H295.4z"/>
<path class="st1" d="M323.8,344.4c7.9,0,13.1,3.9,13.1,11.1c0,4.9-2.8,8.2-6.4,9.6l7.1,13.1h-7.7l-6-11.8H319v11.8h-7.1v-33.8
	L323.8,344.4L323.8,344.4z M319,350.5v10.1h5.2c3.2,0,5.4-1.6,5.4-5s-2.3-5.1-5.6-5.1L319,350.5L319,350.5z"/>
<path class="st1" d="M354.7,378.3v-33.8h10.8c11.5,0,18.8,7,18.8,16.9s-7.2,16.9-18.7,16.9L354.7,378.3L354.7,378.3z M361.9,350.5
	v21.7h3.6c7.2,0,11.5-4.7,11.5-10.9s-4.3-10.9-11.6-10.9L361.9,350.5L361.9,350.5z"/>
<path class="st1" d="M419.2,366c0,7.9-5.2,13-14.1,13s-14.1-5.1-14.1-13v-21.5h7.2v20.8c0,4.4,2.5,7,6.9,7s6.9-2.6,6.9-7v-20.8h7.2
	V366z"/>
<path class="st1" d="M445.4,360.4l13.2-16h8.5l-12,14.1l12.2,19.7h-8.1l-9-15l-4.8,5.5v9.5h-7.2v-33.8h7.2V360.4z"/>
<path class="st1" d="M485.2,343.9h0.3l16.5,34.4h-7.6l-2.7-6H479l-2.6,6h-7.6L485.2,343.9L485.2,343.9z M489.5,367.2
	c-1.5-3.5-3-7.1-4.1-10.1c-1,2.4-2.8,6.9-4.2,10.1H489.5z"/>
<path class="st1" d="M506.2,344.4l7.8,13.9l7.8-13.9h8.2l-12.3,20.7v13.1h-7.2v-13.1l-12.3-20.7H506.2L506.2,344.4z"/>
<path class="st1" d="M542.5,343.9h0.3l16.5,34.4h-7.6l-2.7-6h-12.6l-2.6,6h-7.6L542.5,343.9L542.5,343.9z M546.8,367.2
	c-1.5-3.5-3-7.1-4.1-10.1c-1,2.4-2.8,6.9-4.2,10.1H546.8z"/>
<path class="st1" d="M571.8,360.4l13.2-16h8.5l-12,14.1l12.2,19.7h-8.1l-9-15l-4.8,5.5v9.5h-7.2v-33.8h7.2L571.8,360.4L571.8,360.4z
	"/>
<path class="st1" d="M91.5,419.3v-19.4h4.2v16h7.5v3.5L91.5,419.3L91.5,419.3z"/>
<path class="st1" d="M113.5,399.5h0.2l9.4,19.7h-4.3l-1.6-3.4h-7.3l-1.5,3.4H104L113.5,399.5L113.5,399.5z M115.9,412.9
	c-0.9-2-1.8-4.1-2.3-5.8c-0.6,1.4-1.6,3.9-2.4,5.8H115.9z"/>
<path class="st1" d="M135.1,403.3v4.6h6.5v3.4h-6.5v7.9H131v-19.4h11.9v3.5L135.1,403.3L135.1,403.3z"/>
<path class="st1" d="M155.2,399.5c5.9,0,10.2,4.5,10.2,10.1s-4.3,10.1-10.2,10.1s-10.2-4.4-10.2-10.1S149.3,399.5,155.2,399.5z
	 M155.2,415.8c3.5,0,6-2.8,6-6.3s-2.5-6.3-6-6.3s-6,2.8-6,6.3S151.7,415.8,155.2,415.8z"/>
<path class="st1" d="M184.9,419.6l-10.7-10.2l-1.3-1.1v11h-4.1v-19.7h0.2l10.6,10.2l1.2,1.1v-11h4.1v19.7H184.9L184.9,419.6z"/>
<path class="st1" d="M204.6,404.6c-1.2-0.6-3-1.4-5.4-1.4c-3.9,0-6.4,2.8-6.4,6.3s2.5,6.3,6.3,6.3c2.5,0,4.4-0.7,5.6-1.4v3.9
	c-1,0.5-3.2,1.3-5.9,1.3c-5.9,0-10.1-4.4-10.1-10.1s4.3-10.1,10.3-10.1c2.7,0,4.7,0.8,5.7,1.4V404.6L204.6,404.6z"/>
<path class="st1" d="M215.9,403.3v16h-4.2v-16h-5.4v-3.5h15v3.5H215.9z"/>
<path class="st1" d="M224.3,419.3v-19.4h4.2v19.4H224.3z"/>
<path class="st1" d="M242.2,399.5c5.9,0,10.2,4.5,10.2,10.1s-4.3,10.1-10.2,10.1s-10.2-4.4-10.2-10.1S236.3,399.5,242.2,399.5
	L242.2,399.5z M242.2,415.8c3.5,0,6-2.8,6-6.3s-2.5-6.3-6-6.3s-6,2.8-6,6.3S238.7,415.8,242.2,415.8z"/>
<path class="st1" d="M272,419.6l-10.7-10.2l-1.3-1.1v11H256v-19.7h0.2l10.6,10.2l1.2,1.1v-11h4.1v19.7H272L272,419.6z"/>
<path class="st1" d="M292.9,419.6l-10.7-10.2l-1.3-1.1v11h-4.1v-19.7h0.2l10.6,10.2l1.2,1.1v-11h4.1v19.7H292.9L292.9,419.6z"/>
<path class="st1" d="M305,399.5h0.2l9.5,19.7h-4.4l-1.6-3.4h-7.3l-1.5,3.4h-4.4L305,399.5L305,399.5z M307.4,412.9
	c-0.9-2-1.8-4.1-2.4-5.8c-0.6,1.4-1.6,3.9-2.4,5.8H307.4z"/>
<path class="st1" d="M317.1,419.3v-19.4h4.2v16h7.5v3.5L317.1,419.3L317.1,419.3z"/>
<path class="st1" d="M331.9,419.3v-19.4h4.2v19.4H331.9z"/>
<path class="st1" d="M348.6,403.3v16h-4.2v-16H339v-3.5h15v3.5H348.6z"/>
<path class="st1" d="M357,419.3v-19.4h12.5v3.5h-8.3v4.4h7.1v3.4h-7.1v4.7h8.8v3.5L357,419.3L357,419.3z M363.6,392.7h5l-4.2,5.5
	h-3.3L363.6,392.7z"/>
<path class="st1" d="M378.8,419.3v-19.4h6.2c6.6,0,10.8,4,10.8,9.7s-4.2,9.7-10.7,9.7L378.8,419.3L378.8,419.3z M383,403.3v12.5h2
	c4.2,0,6.6-2.7,6.6-6.2s-2.5-6.2-6.7-6.2L383,403.3L383,403.3z"/>
<path class="st1" d="M400.7,405.8h-3.3l2.1-7.9h4.1L400.7,405.8z"/>
<path class="st1" d="M422.3,412.2c0,4.5-3,7.5-8.1,7.5s-8.1-2.9-8.1-7.5v-12.4h4.2v12c0,2.5,1.4,4,4,4s4-1.5,4-4v-12h4.2
	L422.3,412.2L422.3,412.2z"/>
<path class="st1" d="M442.8,419.6l-10.7-10.2l-1.3-1.1v11h-4.1v-19.7h0.2l10.6,10.2l1.2,1.1v-11h4.1v19.7H442.8L442.8,419.6z"/>
<path class="st1" d="M457.2,412.6v6.6h-4.2v-19.4h6.3c4.5,0,7.5,2.2,7.5,6.4s-3,6.4-7.5,6.4L457.2,412.6L457.2,412.6z M457.2,403.3
	v5.8h2.4c1.8,0,3-0.9,3-2.9s-1.3-2.9-3.2-2.9L457.2,403.3L457.2,403.3z"/>
<path class="st1" d="M475.3,399.5h0.2l9.5,19.7h-4.4l-1.6-3.4h-7.3l-1.5,3.4h-4.4L475.3,399.5L475.3,399.5z M477.8,412.9
	c-0.9-2-1.8-4.1-2.4-5.8c-0.6,1.4-1.6,3.9-2.4,5.8H477.8z"/>
<path class="st1" d="M501.4,404.6c-1.2-0.6-3-1.4-5.4-1.4c-3.9,0-6.4,2.8-6.4,6.3s2.5,6.3,6.3,6.3c2.5,0,4.4-0.7,5.6-1.4v3.9
	c-1,0.5-3.2,1.3-5.9,1.3c-5.9,0-10.1-4.4-10.1-10.1s4.3-10.1,10.3-10.1c2.7,0,4.7,0.8,5.7,1.4L501.4,404.6L501.4,404.6z"/>
<path class="st1" d="M509.2,409l7.6-9.2h4.9l-6.9,8.1l7,11.3h-4.6l-5.2-8.6l-2.8,3.2v5.5H505v-19.4h4.2L509.2,409L509.2,409z"/>
<path class="st1" d="M531.2,399.8c4.5,0,7.5,2.2,7.5,6.4c0,2.8-1.6,4.7-3.7,5.5l4.1,7.5h-4.4l-3.4-6.8h-2.8v6.8h-4.1v-19.4H531.2
	L531.2,399.8z M528.4,403.3v5.8h3c1.8,0,3.1-0.9,3.1-2.9s-1.3-2.9-3.2-2.9L528.4,403.3L528.4,403.3z"/>
<path class="st1" d="M549.7,399.5h0.2l9.5,19.7H555l-1.6-3.4h-7.3l-1.5,3.4h-4.3L549.7,399.5L549.7,399.5z M552.2,412.9
	c-0.9-2-1.8-4.1-2.3-5.8c-0.6,1.4-1.6,3.9-2.4,5.8H552.2z"/>
<path class="st1" d="M566,403.3v4.6h6.5v3.4H566v7.9h-4.2v-19.4h11.8v3.5L566,403.3L566,403.3z"/>
<path class="st1" d="M584.9,403.3v16h-4.2v-16h-5.4v-3.5h15v3.5H584.9z"/>
<rect x="97" y="320.2" class="st1" width="487.5" height="3.4"/>
</svg>
