<?xml version="1.0" encoding="UTF-8"?><svg id="Calque_1" xmlns="http://www.w3.org/2000/svg" viewBox="0 0 584.9 186.72"><defs><style>.cls-1{fill:#fff;stroke-width:0px;}</style></defs><path class="cls-1" d="m293.84,31.32c-4.33-2.97-9.45-6.27-15.41-7.71-.37-.09-.74-.21-1.08-.34-6.73-2.7-14.1-4.01-22.54-4.01-1.46,0-2.98.04-4.53.12-1.08.05-2.24.32-3.38.77-2.31.91-3.75,2.56-4.3,4.9-.25,1.09-.64,2.15-1.05,3.27-.25.69-.5,1.37-.73,2.07-.26.82-.54,1.8-.6,2.79-.41,6.32-.35,12.77.16,19.14.78,9.77,1.47,19.34,1.23,29-.04,1.41-.08,2.82-.13,4.23-.08,2.46-.17,5-.18,7.5,0,1.61-.02,3.21-.03,4.82-.04,6.29-.08,12.79.13,19.19.22,6.62.65,13.33,1.06,19.83.16,2.58.33,5.16.48,7.74.09,1.51.19,3.03.3,4.54.16,2.34.33,4.76.43,7.13.07,1.66.02,3.44-.17,5.29-.57,5.6-.97,10.65-.12,15.86.21,1.28.75,2.64,1.66,4.18.59,1,1.62,1.6,2.75,1.6.52,0,1.03-.13,1.51-.37,1.19-.62,2.46-1.4,2.88-2.58.24-.66.51-1.31.79-1.96.84-1.97,1.7-4.01,1.58-6.41-.06-1.08-.13-2.17-.19-3.25-.14-2.16-.28-4.39-.31-6.58-.08-5.91-.13-12.23.01-18.45.12-5.22.32-10.54.51-15.68.12-3.1.23-6.19.33-9.29.02-.57.02-1.03.02-1.42,0-.29,0-.61.01-.81.21-.05.55-.12.89-.18.35-.07.77-.15,1.27-.25l1.03-.22c4.42-.94,8.98-1.91,13.17-4.09.48,1.48.94,2.97,1.4,4.45,1.03,3.35,2.1,6.81,3.38,10.14,3.63,9.47,6.74,19.3,9.75,28.81.55,1.72,1.09,3.45,1.64,5.17,1.73,5.42,3.66,11.16,6.59,16.59,1.03,1.91,2.27,3.47,3.8,4.77.72.61,1.71,1.06,2.64,1.18.25.03.49.05.72.05,1.39,0,2.67-.56,3.62-1.56,1.1-1.17,1.65-2.8,1.54-4.59-.16-2.79-.87-5.15-2.16-7.2-.87-1.38-1.42-2.45-1.77-3.47-1.2-3.46-2.36-6.92-3.53-10.39-1.07-3.19-2.14-6.37-3.24-9.55l-1.03-2.99c-1.6-4.68-3.26-9.51-5.11-14.2-2.16-5.47-4.49-11-6.74-16.34-.88-2.08-1.76-4.17-2.63-6.27.05-.03.09-.07.13-.1.45-.32.8-.57,1.16-.8,4.1-2.61,7.64-5.92,10.52-9.84,2.25-3.06,4.88-6.71,7.31-10.55,4.83-7.63,7.64-14.77,8.59-21.85.75-5.64,1.13-12.95-2.68-19.47-2.9-4.96-6.83-9.23-11.37-12.35Zm-38.91,72.49c0-.17-.01-.42,0-.78.08-3.5.2-7,.32-10.5l.14-4.33c0-.23-.05-.44-.16-.62l.22-6.15c.2-5.46.4-10.92.57-16.38.2-6.22-.01-11.4-.68-16.3-.24-1.74-.29-3.57-.34-5.33-.03-.97-.06-1.93-.11-2.89-.1-1.77-.23-3.55-.35-5.32l-.17-2.47c0-.05,0-.11,0-.17,0-.31.01-.64.02-.89.24.02.54.07.88.12,1.23.18,2.47.34,3.71.5,2.83.37,5.75.75,8.57,1.31,6.8,1.33,13.15,3.99,18.89,7.88.71.48,1.38,1.19,1.92,1.76.44.47.86.95,1.28,1.44.66.76,1.33,1.55,2.1,2.26,3.38,3.17,4.58,7.3,3.89,13.41-.68,5.99-2.95,11.76-7.37,18.72-1.31,2.07-2.74,4.13-4.12,6.12l-.82,1.18c-2.77,4.02-6.18,7.26-10.15,9.63l-.74.44c-.89.52-1.8,1.06-2.66,1.69-4.44,3.3-9.67,4.66-14.19,5.55-.21.04-.45.09-.66.11Z"/><path class="cls-1" d="m439.14,124.88c-.16-7.98-.2-16.09-.24-23.94-.02-5.21-.05-10.43-.11-15.65-.05-4.6-.27-9.27-.49-13.78l-.05-1.09c-.09-1.96-.22-3.93-.35-5.89-.16-2.41-.32-4.91-.41-7.35-.33-9.04-1.05-16.41-2.26-23.19-.48-2.68-1.16-5.44-2.02-8.2-.69-2.2-2.43-3.57-4.54-3.57-.51,0-1.04.08-1.56.24-1.81.55-2.99,1.89-3.52,3.97-.67,2.63-.52,5.24-.38,7.77l.05.86c.36,6.94.75,13.87,1.13,20.8l.32,5.89c.14,2.55.28,5.09.46,7.64.03.37,0,.52.02.53-.04.02-.17.08-.49.12-3.02.44-6.22,1.04-10.04,1.89-4.77,1.06-9.75,1.36-14.56,1.65l-.38.02c-.09,0-.15,0-.19-.01,0-.04-.02-.1-.03-.19l-.07-1.03c-.17-2.75-.33-5.49-.49-8.24-.38-6.59-.78-13.4-1.31-20.1-.33-4.11-1.02-8.23-1.69-12.21l-.3-1.77c-.19-1.16-.74-2.42-1.61-3.73-.98-1.48-2.48-2.33-4.1-2.33-1.46,0-2.87.72-3.87,1.96-.43.54-1.45,1.98-1.56,3.65-.17,2.43-.18,5.02-.05,8.16.33,7.57.73,15.83,1.23,25.23.23,4.34.55,8.72.84,12.49.14,1.85.3,3.7.46,5.55.25,2.85.51,5.8.68,8.7.12,2.04.17,4.13.22,6.15.07,3.03.15,6.17.46,9.25.63,6.27.98,12.7,1.05,19.65.04,4.05.21,8.19.49,12.29.47,6.89.99,13.27,1.57,19.49.57,6.06,1.2,11.57,1.93,16.85.28,2.05,1.09,4.01,1.76,5.48.74,1.62,2.71,2.59,4.18,2.59.51,0,.96-.11,1.34-.32,1.4-.79,3.28-2.13,3.41-4.71l.02-.43c.05-.91.1-1.85.06-2.8-.23-5.46-.49-11.32-.8-17.18-.1-2.02-.24-4.03-.38-6.05-.12-1.71-.23-3.42-.33-5.13-.07-1.29-.16-2.58-.24-3.87-.22-3.4-.45-6.92-.45-10.37,0-8.34,0-17.8-.92-27.16-.44-4.48-.48-9.1-.51-13.56-.01-1.87-.03-3.74-.07-5.61,0-.13,0-.32,0-.49.17,0,.68-.03.68-.03,1.08-.04,2.16-.06,3.24-.08,2.81-.05,5.71-.11,8.55-.5,3.26-.44,6.4-1.14,9.73-1.88.99-.22,1.99-.44,2.99-.65.04,1.36.08,2.73.12,4.09.12,3.92.24,7.97.3,11.95.12,9,.18,18.15.24,26.99v1.4c.06,7.54.95,14.98,1.81,22.17.24,1.98.49,3.95.74,5.93.99,7.76,2,15.78,2.13,23.73.02,1.53.5,2.98.97,4.39l.07.21c.62,1.9,2.18,3.04,4.37,3.2.15.01.31.02.46.02,2.1,0,3.72-1.07,4.47-2.93.56-1.41.89-3.07.91-4.68.17-11.73-.79-23.46-1.76-33.39-.62-6.35-1.19-12.57-1.32-18.86Z"/><path class="cls-1" d="m380.6,113.87c-.11-4.42-.45-9.23-1.08-15.13-.38-3.57-2.45-5.54-5.82-5.54-.36,0-.75.02-1.15.07-.97.11-1.95.2-2.92.29-.92.08-1.84.17-2.75.27-.82.09-1.58.25-2.25.46-2.89.93-4.72,3.29-4.53,5.88.17,2.41,2.22,4.54,4.99,5.18.53.12,1.06.15,1.5.17.36.02.72.04,1.08.04.2,0,.41,0,.61-.02.3-.02.56-.04.78-.04.11,0,.2,0,.27,0,.02.18.02.44.03.67l.02.57c.03.72.02,1.44.01,2.16,0,.67-.01,1.33,0,2l.07,2.18c.18,5.86.36,11.91.59,17.87.09,2.45.23,5.08.58,7.63.9,6.53.99,13.5.29,21.3-.21,2.29-.61,4.45-1.19,6.41-.64,2.17-2.37,3.51-4.5,3.51-.95,0-1.92-.28-2.8-.81l-.58-.34c-.63-.37-1.23-.72-1.79-1.12-2.08-1.46-3.81-3.48-5.01-5.84-1.32-2.59-2.03-5.38-2.11-8.29-.08-2.88-.45-15.09-.45-15.09-.02-.66-.03-1.32-.04-1.98-.02-1.33-.04-2.7-.14-4.06-.39-4.94-.82-9.87-1.24-14.8-.24-2.85-.49-5.69-.73-8.54-.12-1.38-.22-2.77-.32-4.16-.18-2.56-.37-5.2-.67-7.8-.42-3.7-.56-7.61-.44-12.31.15-6.18.19-12.46.23-18.54.01-2.16.03-4.31.04-6.47,0-.34-.05-.65-.1-.93-.03-.15-.05-.3-.06-.44-.08-1.38-.18-2.75-.28-4.13-.23-3.23-.47-6.57-.5-9.84-.04-4.25,1.04-8,3.22-11.17.56-.81.89-1.17,1.08-1.17.35,0,1.09.37,1.37.5,2.88,1.41,5.16,3.47,6.78,6.11.2.33.39.66.59.99.61,1.04,1.24,2.12,2.06,3.07.92,1.08,2.14,1.67,3.43,1.67s2.58-.63,3.5-1.78c.82-1.02,1.39-2.37,1.52-3.61.36-3.45-.72-6.74-3.13-9.53-4.11-4.74-8.63-7.72-13.81-9.11-1.02-.27-2-.41-2.94-.41-2.74,0-5.12,1.15-7.3,3.52-4.45,4.85-7.1,10.91-7.86,18.01-.37,3.46-.24,7-.12,10.41.04,1.09.08,2.18.1,3.26.04,1.74.14,3.5.24,5.2.09,1.62.19,3.3.23,4.94.06,2.4.04,4.85.03,7.23,0,.91,0,1.82-.01,2.72-.06.14-.09.28-.09.44,0,0,0,4.86,0,6.25,0,1.29-.02,2.58-.04,3.87-.04,2.84-.07,5.78.04,8.67.17,4.33.55,8.58,1,13.29.21,2.18.48,4.38.74,6.52.21,1.71.42,3.41.6,5.12l.27,2.56c.51,4.83,1.05,9.83,1.43,14.75.2,2.53.32,5.12.45,7.63.16,3.38.33,6.87.68,10.31.53,5.19,1.81,11.81,7.08,16.94.18.18.36.41.55.66.18.24.37.48.58.7,4.68,5.06,9.25,7.46,14.82,7.77.32.02.64.03.95.03,6.64,0,12.07-3.76,14.17-9.82,1.02-2.93,1.72-6.08,2.08-9.36.96-8.69.79-17.93-.55-29.08-.82-6.87-1.29-12.95-1.42-18.56Z"/><path class="cls-1" d="m127.59,76.44c-1.48-.79-3.13-1.27-4.67-1.35-.64-.03-1.28-.05-1.92-.05-1.71,0-3.55.1-5.77.31-2.05.2-4.06.49-6.18.81-.55.08-1.1.16-1.66.24-.01-.15-.03-.31-.04-.46-.1-1.2-.2-2.33-.24-3.48-.11-2.86-.21-5.73-.3-8.6l-.13-4.15-.21-6.14c-.17-4.98-.34-9.96-.49-14.93,0-.12,0-.21,0-.29.14,0,.3.02.49.03.58.04,1.15.1,1.73.15,1.4.13,2.84.26,4.29.26h.3c9.58-.13,19.49-.26,29.44-.57,6.43-.2,12.97-1.44,19.44-3.69,1.26-.44,2.24-.9,3.06-1.44,1.36-.89,1.58-1.82,1.52-2.44-.05-.63-.44-1.51-1.94-2.16-.48-.21-.96-.36-1.43-.52-.44-.15-.86-.28-1.26-.45-4.8-2.08-9.37-3.1-13.95-3.1-.22,0-.44,0-.66,0-6.23.13-12.46.24-18.69.35-3.14.05-6.29.11-9.43.17h-.38c-.52,0-1.11,0-1.7.15-3.03.77-6.09.85-9.33.94-2.42.07-4.91.14-7.38.52-2.4.37-5.63,1.39-5.9,5.92l-.16,2.67c-.44,7.15-.89,14.54-.48,21.9.49,8.67.76,17.5,1.03,26.04.11,3.54.22,7.08.35,10.63.02.51.04,1.01.07,1.52.07,1.42.13,2.75.06,4.09-.75,12.97-.58,26.24.51,39.44.09,1.1.15,2.2.2,3.3.05,1.07.11,2.13.19,3.19.17,2.18.36,4.36.54,6.54.32,3.72.65,7.56.89,11.34.17,2.63.24,5.32.32,7.92.05,1.78.1,3.55.18,5.33.16,3.68,1.38,6.71,3.63,9,1.05,1.07,2.02,1.29,2.66,1.29.76,0,1.86-.31,2.8-1.76.63-.98,1.42-2.48,1.61-4.15.43-3.82.88-7.78.87-11.7,0-6.43-.22-12.95-.42-19.26l-.11-3.42c-.1-3.24-.31-6.52-.52-9.7l-.05-.74c-.09-1.39-.21-2.78-.33-4.16-.21-2.45-.44-4.98-.46-7.45-.08-8.32-.07-16.78-.06-24.97,0-3.22,0-6.44,0-9.67,0-.14-.01-.28-.02-.43,0-.05-.01-.1-.01-.15.08-.12.15-.21.2-.25.12-.01.25-.02.37-.02.21,0,.43.01.65.03.26.02.52.03.78.03.09,0,.19,0,.28,0l2.56-.11c3.26-.14,6.63-.28,9.94-.5,2.26-.15,4.26-.87,5.93-2.14,1.82-1.38,2.78-3.27,2.63-5.2-.14-1.86-1.32-3.51-3.22-4.54Z"/><path class="cls-1" d="m88.15,26.23c-.8-.56-1.87-1.23-3.03-1.42-2.26-.37-4.48-.58-6.59-.64-.2,0-.4,0-.6,0-1.02,0-2.04.06-3.03.13-.87.06-1.77.11-2.64.12-2.81.03-5.63.04-8.44.06-3.7.02-7.4.03-11.1.09-1.58.02-3.18.12-4.73.21-1.52.09-3.09.18-4.63.21h-.71c-2.67.04-5.43.08-8.14,1.06-.22.08-.59.08-.94.08h-.21c-3.81.02-5.88,1.82-6.33,5.52-.37,3.06-.55,5.98-.54,8.7.02,2.58.11,5.19.2,7.71.1,2.76.2,5.62.2,8.42,0,9.52-.09,19.3-.28,29.91-.11,6.15-.28,12.2-.48,19.2-.1,3.31-.2,6.78-.29,10.59l.15,3.39c.15,3.55.34,7.98.58,12.44.35,6.38.72,11.66,1.15,16.64.17,2,.7,3.93,1.21,5.79.69,2.55,2.38,4.11,5.14,4.78,4.6,1.11,9.18,1.52,13.05,1.78,2.57.17,5.96.37,9.43.37s6.77-.21,9.77-.63c3.22-.46,6.61-1.16,9.54-3.2,1.3-.91,1.98-1.88,2.07-2.97.09-1.09-.42-2.16-1.56-3.26-1.65-1.59-3.63-2.55-5.74-2.77-2.94-.31-5.59-.57-8.3-.57-.48,0-.96,0-1.45.03-1.84.07-3.68.08-5.08.08h-4.21c-4.23,0-7.79.09-11.37.58-.32.04-.67.09-.91.09-.07-.23-.15-.64-.22-.97-.2-1-.31-1.97-.32-2.89-.04-2.65-.06-5.31-.09-7.96-.02-2.47-.04-4.93-.08-7.4-.02-1.18-.06-2.37-.11-3.55-.08-1.9-.15-3.86-.1-5.76.09-3.14.3-6.34.51-9.43.09-1.44.19-2.87.27-4.31.21-3.64.41-7.28.62-10.92,0-.18.02-.38.03-.54.04,0,.66,0,.66,0,.49,0,.98.03,1.47.04.66.02,1.31.05,1.97.05.71,0,1.33-.03,1.9-.09,2.75-.29,5.55-.73,8.31-1.29,2.31-.47,4.16-1.74,5.34-3.67,1.41-2.29-.05-3.52-.54-3.84l-.41-.27c-2.15-1.44-4.36-2.93-7.22-3.05-.42-.02-.84-.02-1.26-.02-1.83,0-3.67.15-5.45.29h-.17c-.79.08-1.54.26-2.26.43-.39.09-.78.19-1.17.26-.17.03-.37.07-.56.09,0-.13.01-.29.03-.5.03-.39.06-.79.1-1.18.08-.99.17-2.01.18-3.04.04-4.15.05-8.71.04-14.34,0-1.85-.05-3.37-.16-4.77-.26-3.5-.54-7.01-.81-10.51-.33-4.19-.66-8.38-.97-12.57-.01-.14-.04-.47-.04-.73.26,0,.59.04.99.08,3.46.34,7.14.62,10.92.84,1.85.11,3.73.13,5.54.15.68,0,1.37.02,2.05.03,1.79.03,3.59.08,5.38.13,3.23.09,6.57.18,9.86.18,1.09,0,2.19-.01,3.28-.03,4.75-.1,8.71-1.56,11.76-4.33,1.59-1.45,1.86-2.81,1.81-3.69-.06-.89-.49-2.2-2.26-3.44Z"/><path class="cls-1" d="m504.75,28.06c.05-.08.09-.14.13-.19.15-.19.24-.43.25-.68.05-1.87-.3-3.84-3.21-4.3-2.85-.44-5.63-.85-8.4-.94-4.17-.13-8.34-.14-12.26-.14h-4.4c-1.73,0-3.57.02-5.39.25-6.05.76-12.19,1.6-18.13,2.41l-3.02.41c-1.41.19-2.68.38-3.95.69-1.97.48-3.13,1.75-3.18,3.48-.05,1.8,1.06,3.19,2.98,3.72,1.42.39,2.95.66,4.54.79,3.72.32,6.81.47,9.71.47,2.53,0,4.87-.11,7.14-.35.4-.04.72-.07.98-.07.03.27.05.7.06.96.49,11.73.94,23.46,1.4,35.2l.05,1.22c.14,3.57.27,7.15.4,10.73l.18,4.88c.09,2.36.2,4.71.3,7.07.23,5.09.48,10.36.49,15.52.04,14.12.09,31.7,1.74,48.49.48,4.93,1.05,9.92,1.6,14.76l.38,3.36c.08.7.22,1.6.64,2.4.95,1.82,2.41,2.82,4.2,2.88.01,0,.12,0,.13,0,1.85,0,3.57-1.51,4.11-3.58.36-1.38.69-2.86.48-4.29-.34-2.29-.24-4.56-.13-6.95.06-1.24.11-2.53.1-3.8-.02-2.32-.07-4.63-.12-6.95-.06-2.93-.13-5.95-.12-8.92,0-6.7.03-13.82.24-20.79.44-14.16.2-29.28-.78-49.03-.18-3.62-.32-7.24-.47-10.86-.19-4.71-.38-9.59-.65-14.38-.28-4.99-.74-10.05-1.19-14.94l-.27-2.99c0-.07,0-.13,0-.18.04,0,.79-.02.79-.02,2.28-.04,4.63-.08,6.96-.22,2.35-.15,4.85-.32,7.35-.72,2.73-.44,5.14-1.46,7.16-3.04.56-.44.95-1.02,1.18-1.37Z"/><path class="cls-1" d="m70.31,172.65c-1.4-1.04-2.98-1.75-4.45-2.01-2.4-.42-4.82-.47-7.16-.52-.9-.02-1.8-.03-2.7-.03-1.16,0-2.32.01-3.48.02-1.15.01-2.31.02-3.46.02-1.32,0-2.64-.02-3.96-.04-1.33-.02-2.66-.04-4-.04-1.52,0-2.85.03-4.07.08-4.51.21-9.08.52-13.5.82-2.68.18-5.37.36-8.06.53l-.33.02c-.52.03-.94.06-1.26.06h-.06c0-.23,0-.53,0-.81l.02-.77c.11-8.79.23-17.59.34-25.2l.1-7.36v-34.87c0-1.54,0-3.09-.01-4.63-.01-3.16-.02-6.44.02-9.65.05-4.1.14-8.2.24-12.3.04-1.97.09-3.93.13-5.9.02-1.19.02-2.39.02-3.58,0-2.57,0-5.22.26-7.77.37-3.61.27-7.37-.32-12.18-.06-.48-.1-.95-.14-1.43-.06-.66-.11-1.31-.21-1.96l-.19-1.29c-.48-3.29-.99-6.69-1.58-10.03-.22-1.25-.92-2.34-1.47-3.03-.77-.98-2.1-1.6-3.4-1.6-.98,0-1.81.36-2.32,1.02-.18.23-.37.46-.56.69-1.12,1.35-2.38,2.87-2.3,5.23.04,1.22-.04,2.43-.12,3.72-.08,1.24-.16,2.52-.13,3.81.16,6.24.44,12.57.72,18.47.06,1.3.18,2.6.3,3.86.16,1.7.32,3.46.33,5.17.06,8.98.09,17.95.12,26.93.02,6.56.04,13.12.07,19.68,0,1.65.09,3.32.16,4.94.07,1.46.14,2.96.16,4.43.03,2.53.03,5.06.02,7.59,0,2.59,0,5.19.03,7.78.06,5.11.16,10.21.25,15.32.05,2.62.1,5.24.14,7.85.06,3.38.12,6.76.13,10.14,0,.51-.08,1.1-.25,1.75-.64,2.47-.05,4.02.56,4.89.6.85,1.82,1.92,4.27,2.14,5.18.48,10.36.78,14.3.98.25.01.5.02.76.02.8,0,1.6-.06,2.37-.11.74-.05,1.44-.1,2.14-.11,3.19-.02,6.38-.02,9.57-.02,5.32,0,10.81-.01,16.22-.08,3.99-.05,7.97-.39,10.99-.68,1.32-.13,2.78-.6,4.11-1.33,1.83-1.01,2.9-2.48,3.01-4.16.11-1.65-.73-3.22-2.37-4.44Z"/><path class="cls-1" d="m197.09,57.42c.87-.4,1.4-1.08,1.46-1.87.06-.8-.37-1.57-1.18-2.11-.88-.58-1.72-.96-2.51-1.12-1.38-.28-3.2-.62-5.04-.73-1.87-.11-3.77-.16-5.6-.21-1.08-.03-2.17-.05-3.25-.1-1.64-.06-3.28-.13-4.92-.21-3.17-.14-6.44-.29-9.67-.34-.44,0-.88,0-1.32,0-2.84,0-5.72.12-8.51.25l-3.29.14c-4.34.18-8.83.37-13.24.71-2.82.22-5.66.65-8.4,1.06-.75.11-1.49.22-2.24.33-.84.12-1.69.44-2.38.89-1.28.84-2.04,2.17-2.01,3.56.03,1.34.75,2.54,1.99,3.28,1.22.73,2.73,1.21,4.15,1.32,3.21.25,6.47.4,9.62.55,1.22.06,2.44.12,3.66.18.02,0,.04,0,.06,0,.26,0,.52-.09.72-.26h4.4c1.16,0,2.32,0,3.48,0,.34,0,.75,0,1,.02.03.24.05.63.06,1.03.1,2.18.19,4.36.29,6.54.24,5.61.49,11.42.81,17.13.18,3.31.42,6.66.65,9.9.27,3.73.54,7.59.73,11.38.26,5.25.47,10.59.67,15.76.19,4.89.39,9.95.63,14.92.23,4.62.48,9.86,1.19,14.88.88,6.2,1.35,12.43,1.4,18.51.01,1.54.23,3.11.47,4.56.53,3.3,1.68,4.34,5.12,4.65.24.02.46.03.68.03,1.62,0,3.66-.64,4.21-3.66.19-1.04.17-2.11.13-3.11-.05-1.09-.12-2.17-.19-3.26-.08-1.25-.17-2.49-.21-3.74-.12-3.18-.22-6.37-.32-9.55-.12-3.84-.25-7.68-.4-11.52-.12-3-.26-6-.4-9-.23-4.71-.46-9.59-.58-14.38-.13-5.15-.19-10.4-.25-15.47-.06-4.99-.11-10.16-.24-15.24-.1-4.18-.41-8.41-.71-12.5l-.22-3.13c-.21-3.06-.46-6.13-.71-9.19-.14-1.7-.28-3.39-.41-5.09-.02-.3-.05-.64-.06-.89.24-.02.55-.02.77-.03,1.11-.02,2.21-.04,3.32-.04,1.39,0,2.67.02,3.91.06.53.02,1.06.03,1.59.03,5.08,0,10.19-.86,15.18-2.57,1.95-.66,3.93-1.45,5.9-2.35Z"/><path class="cls-1" d="m583.08,11.18c-.41-1.51-1.58-2.38-3.19-2.38-.12,0-.25,0-.38.02-1.02.08-2.09.33-3.09.73-1.51.61-3.01,1.26-4.51,1.9-.97.42-1.95.84-2.93,1.25-.09.04-.18.07-.28.1,0-.26,0-.51,0-.75.02-.58.04-1.15.06-1.73.04-.91.07-1.81.09-2.72.03-2.35-1.42-3.07-2.29-3.29-.37-.1-.74-.14-1.11-.14-1.34,0-2.48.63-3.11,1.74-.32.56-.54,1.24-.67,2.1l-.08.51c-.31,2.04-.64,4.15-.85,6.25-.11,1.13-.56,1.72-1.65,2.16-2.15.87-4.31,1.8-6.39,2.69-.98.42-1.95.84-2.93,1.25l.07-1.3c.12-2.15.23-4.27.34-6.39l.09-1.79c.11-2.06.22-4.2.25-6.31.03-2.35-.83-3.4-2.97-3.62-.33-.03-.62-.05-.89-.05-2.3,0-2.86,1.56-3.21,3.02-.21.88-.35,1.67-.43,2.44-.3,2.84-.6,5.68-.89,8.52-.25,2.42-.5,4.84-.76,7.26-.12,1.09-.28,1.7-.86,2.01-1.87,1-4.05,2.1-6.43,2.98l.33-5.68c.27-4.71.54-9.42.79-14.13.05-.95-.03-1.94-.24-2.87-.34-1.57-1.58-2.58-3.31-2.69-.09,0-.19,0-.28,0-1.56,0-2.79.87-3.31,2.33-.36,1.02-.58,2.09-.64,3.09-.42,6.78-.82,13.75-1.22,21.31-.09,1.66-.67,2.67-1.89,3.27l-.38.19c-1.21.6-2.46,1.22-3.71,1.76-.02-.39-.02-.78,0-1.18l.17-18.94c0-.71-.01-1.43-.04-2.14-.07-1.63-1.06-2.73-2.59-2.85-.11,0-.21-.01-.32-.01-1.39,0-2.48.74-2.93,1.98-.34.93-.56,1.91-.63,2.82-.15,1.87-.27,3.75-.39,5.63-.08,1.24-.16,2.49-.25,3.73-.08,1.18-.2,2.36-.31,3.54-.24,2.52-.49,5.13-.44,7.72.06,2.96-1.11,4.66-4.17,6.08-2.11.98-4.05,2.32-5.92,3.61l-1.08.74c-2.65,1.81-2.33,3.91-1.59,5.36.2.39.6.62,1.01.62.15,0,.3-.03.45-.09.61-.26,1.22-.53,1.83-.8,1.38-.61,2.69-1.19,4.05-1.69.68-.25,1.33-.55,1.97-.85.87-.4,1.71-.79,2.6-1.05-.02.78-.03,1.53.06,2.3.33,2.71.73,5.4,1.18,8.01.15.87.57,1.79,1.16,2.59.58.78,1.41,1.23,2.28,1.23,1.08,0,2.06-.69,2.56-1.8.27-.58.34-1.22.38-1.64.13-1.59.23-3.19.34-4.78,0,0,.14-2.25.19-3.03.11-1.86.23-3.79.41-5.67.06-.65.32-1.15.43-1.24,1.49-1.11,2.8-1.81,4.2-2.23,0,.71,0,1.39-.02,2.06-.04,1.06-.11,2.12-.18,3.19-.14,2.22-.29,4.52-.18,6.79.11,2.32.63,4.61,1.14,6.83l.29,1.26c.18.82,1.21,2.33,2.33,2.33.06,0,.16,0,.22-.02,1.05-.18,2.02-1.03,2.52-1.81.43-.68.57-1.45.69-2.14.03-.16.06-.32.09-.48,1.22-5.95,1.47-11.95,1.54-16.51.02-1.46.06-2.93.13-4.4.05-1.1.29-1.37.54-1.49,1.79-.85,3.63-1.66,5.58-2.52.3-.13.61-.27.91-.4,0,.44,0,.84,0,1.24-.01,1.39-.02,2.79-.03,4.18-.02,3.49-.04,7.11-.12,10.65-.06,2.95.56,5.76,1.16,8.49.11.49.25.9.43,1.25.49.95,1.26,1.5,2.1,1.5.76,0,1.44-.46,1.87-1.25.7-1.3,1.15-2.69,1.32-4.04l.04-.33c.85-6.87,1.72-13.97,1.78-21.05,0-.6.04-1.19.08-1.79.02-.34.04-.68.06-1.03.06-1.32.57-2.01,1.83-2.49,1.9-.71,3.78-1.52,5.6-2.31.94-.41,1.89-.81,2.84-1.21.08-.03.15-.06.24-.09-.12,1.65-.25,3.31-.38,4.96-.29,3.7-.58,7.52-.76,11.3-.21,4.48-.29,9.21-.24,14.89.01,1.39.7,2.69,1.32,3.87.54,1.02,1.56,1.63,2.73,1.63.25,0,.5-.03.75-.08,1.39-.3,2.33-1.26,2.59-2.64.2-1.06.4-2.15.4-3.29.05-10.9.86-21.92,1.57-31.64.14-1.97.88-2.96,2.71-3.67,2.31-.89,4.61-1.9,6.84-2.88.85-.37,1.69-.74,2.54-1.11.52-.23,1.18-.51,1.78-.87,1.49-.91,2.07-2.29,1.64-3.89Z"/><path class="cls-1" d="m328.71,152.35c-.08-1.8-.25-3.62-.41-5.38v-.12c-.12-1.24-.25-2.48-.37-3.72-.17-1.69-.34-3.38-.48-5.07-.09-1.03-.14-2.06-.19-3.1-.05-.96-.09-1.91-.17-2.87-.13-1.62-.27-3.23-.42-4.84-.27-2.99-.55-6.08-.69-9.11-.16-3.58-.15-7.23-.14-10.77,0-1.08,0-2.16,0-3.24,0-2.21.01-4.58.14-6.96.27-5.04.57-10.08.88-15.12l.35-5.94c.11-6.14-.4-12.31-.9-18.28-.21-2.56-.44-5.21-.6-7.81-.14-2.16-.44-4.33-.73-6.42l-.25-1.81c-.48-3.51-.97-7.13-1.58-10.69-.24-1.39-.72-2.88-1.5-4.69-.78-1.8-2.39-2.83-4.54-2.91h-.21c-1.83,0-3.31.9-4.07,2.48-.91,1.9-1.85,3.86-1.74,6.22.03.71.06,1.42.09,2.12.06,1.46.12,2.93.22,4.39.13,1.89.29,3.79.44,5.68.11,1.31.22,2.61.32,3.92.2,2.62.39,5.23.58,7.85.34,4.65.69,9.3,1.06,13.95.58,7.09,1.07,14.68.8,22.22-.03.88-.1,1.75-.16,2.63-.1,1.36-.2,2.77-.18,4.18.08,5.93.21,11.95.34,17.78l.12,5.38c.01.6.08,1.18.13,1.67.31,2.53.63,5.05.95,7.58.71,5.54,1.44,11.27,1.99,16.91.71,7.33,1.13,14.83,1.53,22.08l.04.69c.16,2.87,1.13,5.39,2.07,7.83.54,1.39,1.59,2.16,2.97,2.16,0,0,.07,0,.08,0,.95-.02,2.23-.41,2.98-2.13l.06-.14c.09-.2.18-.4.26-.6,1.23-3,1.77-5.72,1.68-8.32-.2-5.29-.43-10.91-.75-17.68Z"/><path class="cls-1" d="m230.49,93.68c.01-.31-.15-.61-.36-.83-.21-.22-.56-.35-.86-.35,0,0-.35-.01-.43-.01-.22,0-.55.02-.89.17-.66.3-1.31.62-1.97.94-1.14.56-2.22,1.1-3.35,1.5-2.64.94-4.64,1.36-6.5,1.36-1.46,0-2.79-.26-4.09-.8-1.59-.66-3.25-1.44-5.08-2.39-2.59-1.34-5.22-2.02-7.82-2.02-.34,0-.69.01-1.04.04-4.15.28-8.36,1.54-13.27,3.95-.74.36-1.4.94-1.81,1.58-.41.64-.57,1.81-.1,2.57.41.67,1.35,1.18,2.28,1.18h0c.59-.02,1.08-.24,1.51-.43.17-.07.33-.15.5-.2l1.67-.53c1.88-.6,3.82-1.22,5.74-1.78,1.43-.42,2.84-.63,4.17-.63,2.33,0,4.57.65,6.66,1.94.8.49,1.67.97,2.82,1.55,2.52,1.26,5,1.93,7.19,1.93.13,0,.25,0,.39,0,4.51,0,8.41-1.48,12.27-4.66.85-.7,1.54-1.56,2.09-2.31.38-.51.33-1.11.3-1.5,0-.09-.02-.17-.01-.25Z"/><path class="cls-1" d="m227.51,124.71l-.38-.25c-.19-.13-.41-.19-.63-.19-.18,0-.35.04-.51.12-.73.37-1.46.74-2.18,1.12-1.54.79-3.13,1.61-4.71,2.37-1.65.79-3.32,1.19-4.98,1.19-1.45,0-2.93-.3-4.43-.91-1.75-.7-3.68-1.28-5.89-1.77-2.13-.47-4.26-.7-6.31-.7-4.4,0-8.65,1.08-12.62,3.22-.92.49-1.73,1.1-2.34,1.76-.6.64-.79,2.12-.16,2.87.44.52,1.33,1.05,2.18,1.05.15,0,.3-.02.45-.05.79-.2,1.5-.54,2.19-.87.28-.14.56-.27.85-.39,2.91-1.25,5.9-1.88,8.88-1.88,2.17,0,4.4.34,6.61,1,1.21.36,2.43.78,3.61,1.19.68.23,1.35.47,2.03.69,1.79.59,3.41.88,4.96.88,1.38,0,2.71-.24,3.96-.71,3.47-1.31,6.49-3.54,8.96-6.61.34-.42.52-.88.68-1.29.06-.14.11-.29.18-.42.24-.51.07-1.11-.4-1.42Z"/><path class="cls-1" d="m201.27,123.71c.17,0,.35-.02.54-.05,1.92-.37,2.02-2.25,2.05-2.87.01-.29.01-.58.01-.87,0-.23,0-.47,0-.7.03-.74.07-1.48.1-2.25.7.97,1.39,1.89,2.08,2.79.82,1.06,1.69,2.01,2.57,2.82.61.57,1.48.63,1.82.63.2,0,.39-.02.58-.06,1.2-.26,1.3-1.98,1.31-2.18.12-2.99.23-6.17.27-9.38.01-1.16-.14-2.29-.29-3.39l-.02-.13c-.07-.49-.23-1.22-.65-1.89-.42-.69-1.12-1.11-1.85-1.11-.84,0-1.6.53-1.97,1.39-.3.69-.43,1.42-.52,2.04-.14.94-.26,1.88-.39,2.89-.91-1.24-1.78-2.43-2.69-3.58-.11-.13-.21-.29-.33-.45-.52-.74-1.3-1.85-2.63-1.85-.28,0-.56.05-.85.15-1.8.65-1.9,2.68-1.96,3.96-.04.74-.08,1.48-.13,2.22-.1,1.58-.21,3.21-.21,4.84,0,1.45.18,3.01.55,4.62.34,1.51,1.31,2.41,2.59,2.41Z"/><path class="cls-1" d="m193.86,122.49c-.27-.94-.53-1.88-.79-2.82-.72-2.63-1.47-5.34-2.43-7.95-.76-2.06-2.02-3.88-3.25-5.65l-.14-.2c-.55-.81-1.36-1.27-2.2-1.27-1.14,0-2.13.82-2.54,2.1-.09.29-.12.57-.15.8l-1.56,11.98v2.23s.01,0,.01.01c.11.81.24,1.73.5,2.62s1,1.46,1.88,1.46c.68,0,1.32-.34,1.75-.94.33-.46.59-1.03.79-1.77.34-1.23.68-2.55.93-3.88.02-.05.03-.1.04-.14.09,0,.19,0,.29,0h.4c.19,0,.25,0,.24.05.37.92.82,1.98,1.42,2.98.52.87,1.21,1.6,1.82,2.19.19.19.54.42,1.11.42.32,0,.7-.07,1.02-.19.81-.31,1.05-1.39.86-2.04Zm-7.94-7.4v-4.07l1.63,4.07h-1.63Z"/><path class="cls-1" d="m225.62,105.09c-1.93-.85-3.2-1.21-4.26-1.21-3.5,0-3.74,4.03-3.86,6.19-.13,2.32.42,4.63.95,6.86.13.54.26,1.08.38,1.62.54,2.47,1.69,2.74,4.01,2.74h.11c.07,0,.16-.01.23-.02.05,0,.12-.02.2-.03.39-.05,1.05-.13,1.67-.42,3.41-1.61,5.24-4.26,5.3-7.67.07-3.84-1.61-6.7-4.72-8.07Zm-1.66,10.26l-.32.45-.81-6.1c1.97,1.38,2.45,3.79,1.13,5.65Z"/></svg>