<?xml version="1.0" encoding="utf-8"?>
<!-- Generator: Adobe Illustrator 28.0.0, SVG Export Plug-In . SVG Version: 6.00 Build 0)  -->
<svg version="1.1" id="Calque_1" xmlns="http://www.w3.org/2000/svg" xmlns:xlink="http://www.w3.org/1999/xlink" x="0px" y="0px"
	 viewBox="0 0 20.8 18.8" style="enable-background:new 0 0 20.8 18.8;" xml:space="preserve">
<style type="text/css">
	.st0{clip-path:url(#SVGID_00000114780296172599831170000010307674735464610736_);}
	.st1{fill:#FFFFFF;}
</style>
<g>
	<defs>
		<rect id="SVGID_1_" x="0.3" y="-2" width="23.3" height="19.9"/>
	</defs>
	<clipPath id="SVGID_00000053511871568094238070000004725336227855590841_">
		<use xlink:href="#SVGID_1_"  style="overflow:visible;"/>
	</clipPath>
	<g style="clip-path:url(#SVGID_00000053511871568094238070000004725336227855590841_);">
		<path class="st1" d="M7.7,14.6c0.9,0.1,1.6,0.9,1.5,1.8c-0.1,0.8-0.7,1.5-1.5,1.5C6.8,18,6,17.3,5.9,16.4
			c-0.1-0.9,0.6-1.7,1.5-1.8C7.5,14.6,7.6,14.6,7.7,14.6"/>
		<path class="st1" d="M14.8,14.6c0.9,0,1.7,0.7,1.7,1.6c0,0.9-0.7,1.7-1.6,1.7c-0.9,0-1.7-0.7-1.7-1.6c0,0,0,0,0,0
			C13.2,15.4,13.9,14.6,14.8,14.6C14.8,14.6,14.8,14.6,14.8,14.6"/>
		<path class="st1" d="M19,5.6H8.9C8.5,5.7,8.3,6,8.3,6.4c0,0.4,0.2,0.7,0.6,0.8H18L17.5,9H8.5C8.2,9.1,8,9.4,8,9.7
			c0,0.4,0.2,0.7,0.6,0.8H17l-0.5,1.6H7.3L6.7,7.2L6.5,5.6c0,0-0.2-1.5-0.3-2.1S4.5,2,1.1,0.4c-0.8-0.3-1.5,1.1,0,1.9l2.7,1.2
			c0,0,0.6,0.4,0.7,0.9S5.6,13,5.6,13s0,1.1,1.1,1.1h10.2c0.5,0,0.9-0.4,1-0.9l2-6C19.9,7.2,20.5,5.6,19,5.6"/>
	</g>
</g>
</svg>
