<?xml version="1.0" encoding="UTF-8"?><svg id="Calque_1" xmlns="http://www.w3.org/2000/svg" viewBox="0 0 163.75 161.72"><defs><style>.cls-1{fill:#fff;stroke-width:0px;}</style></defs><path class="cls-1" d="m159.08,90.51c-3.05.61-6.11,2.44-9.77,1.83-20.16-3.05-39.09-3.05-58.03-1.83l1.22,23.21c.61,7.94,1.83,15.88,3.05,23.82.61,7.94-4.89,16.49-12.83,19.55-1.22.61-4.28-.61-7.94-.61-.61-3.05-2.44-6.11-1.83-9.77,2.44-18.93,1.83-37.26.61-54.97l-20.16,1.22c-11.6,0-22.6,4.28-33.59,5.5-7.94,1.22-15.27-4.89-14.66-12.22,0-3.66,2.44-7.94,5.5-9.16,4.28-1.83,10.38-1.83,15.27-2.44l45.81-1.22c-.61-7.94-1.83-15.27-2.44-22.6-.61-11.61-4.89-22.6-6.72-33.59-1.22-7.33,4.89-15.27,12.22-14.66,3.66,0,7.94,1.83,9.16,4.89,1.83,4.28,1.83,10.38,3.05,15.27l3.05,50.08c9.16-.61,17.71-.61,26.88-1.22,7.94,0,15.88-1.22,23.82-1.83s16.49,4.89,18.93,12.83c.61,1.83-.61,4.28-.61,7.94Z"/></svg>